<svg width="60" height="60" viewBox="0 0 60 60" fill="none" xmlns="http://www.w3.org/2000/svg">
<path d="M16.479 20.4551V42.0977C16.479 43.7881 17.494 45.1141 19.2337 45.1141H21.5047C21.4267 45.1141 21.2517 45.6876 21.2517 45.9692V52.099C21.2517 53.701 22.7878 55 24.4336 55C26.0801 55 27.6154 53.701 27.6154 52.099V45.9692C27.6154 45.6876 27.3083 45.1141 27.2328 45.1141H32.7723C32.6967 45.1141 32.3881 45.6876 32.3881 45.9692V52.099C32.3881 53.701 33.9209 55 35.5667 55C37.2165 55 38.7517 53.701 38.7517 52.099V45.9692C38.7517 45.6876 38.5775 45.1141 38.4995 45.1141H40.7737C42.5134 45.1141 43.5244 43.7881 43.5244 42.0977V20.4551H16.2969H16.479Z" fill="#57C927"/>
<path d="M10.9103 20.8076C9.26294 20.8076 7.72852 22.1074 7.72852 23.7086V36.1296C7.72852 37.7317 9.26294 39.0306 10.9103 39.0306C12.5569 39.0306 14.0921 37.7317 14.0921 36.1296V23.7094C14.0921 22.1074 12.5569 20.8076 10.9103 20.8076Z" fill="#57C927"/>
<path d="M36.8481 9.18203L37.4033 8.36749L37.9594 7.56249L39.1979 5.75283C39.353 5.52852 39.2886 5.22943 39.0603 5.08227C38.8344 4.93193 38.5217 4.99477 38.3738 5.2175L36.483 7.97215L35.9142 8.8018C34.1173 8.12249 32.1152 7.74385 30.0001 7.74385C27.8897 7.74385 25.8836 8.12328 24.0867 8.8018L23.5211 7.97294L22.9619 7.15919L21.6335 5.21909C21.48 4.99556 21.1713 4.9367 20.9422 5.08386C20.7155 5.23181 20.6527 5.5309 20.8038 5.75443L22.0416 7.56487L22.5976 8.37067L23.156 9.18282C18.9369 11.0959 16.082 14.887 16.082 18.8643H43.9189C43.9189 14.887 41.0648 11.0959 36.8481 9.18203ZM24.035 15.0024C23.2085 15.0024 22.5427 14.3525 22.5427 13.5499C22.5427 12.7472 23.2085 12.1005 24.035 12.1005C24.8591 12.1005 25.5264 12.7472 25.5264 13.5499C25.5264 14.3525 24.8598 15.0024 24.035 15.0024ZM35.9667 15.0024C35.1411 15.0024 34.4737 14.3525 34.4737 13.5499C34.4737 12.7472 35.1411 12.1005 35.9667 12.1005C36.7908 12.1005 37.4582 12.7472 37.4582 13.5499C37.4582 14.3525 36.7908 15.0024 35.9667 15.0024Z" fill="#57C927"/>
<path d="M11.05 27.292C9.80985 27.292 8.52201 26.1219 7.72656 24.2661V36.1303C7.72656 37.7323 9.26099 39.0313 10.9084 39.0313C12.555 39.0313 14.0902 37.7323 14.0902 36.1303V24.885C13.2947 26.3757 12.1445 27.292 11.05 27.292Z" fill="#1CB71C"/>
<path d="M49.092 20.8074C47.4446 20.8074 45.9102 22.1071 45.9102 23.7084V36.1294C45.9102 37.7314 47.4446 39.0304 49.092 39.0304C50.7386 39.0304 52.2738 37.7314 52.2738 36.1294V23.7092C52.2738 22.1071 50.7386 20.8074 49.092 20.8074Z" fill="#57C927"/>
<path d="M49.2296 27.292C47.9895 27.292 46.7017 26.1219 45.9062 24.2661V36.1303C45.9062 37.7323 47.4407 39.0313 49.0881 39.0313C50.7346 39.0313 52.2699 37.7323 52.2699 36.1303V24.885C51.4744 26.3757 50.3242 27.292 49.2296 27.292Z" fill="#1CB71C"/>
<path d="M29.9973 22.8322C23.7053 22.8322 18.0655 22.1044 16.4746 21.0711V42.0981C16.4746 43.7884 17.4896 45.1145 19.2293 45.1145H21.5003C21.4223 45.1145 21.2473 45.688 21.2473 45.9696V52.0993C21.2473 53.7014 22.7833 55.0003 24.4291 55.0003C26.0757 55.0003 27.6109 53.7014 27.6109 52.0993V45.9696C27.6109 45.688 27.3039 45.1145 27.2283 45.1145H32.7679C32.6923 45.1145 32.3837 45.688 32.3837 45.9696V52.0993C32.3837 53.7014 33.9165 55.0003 35.5623 55.0003C37.212 55.0003 38.7473 53.7014 38.7473 52.0993V45.9696C38.7473 45.688 38.5731 45.1145 38.4951 45.1145H40.7693C42.509 45.1145 43.52 43.7884 43.52 42.0981V21.0703C41.9291 22.1036 36.2901 22.8322 29.9973 22.8322Z" fill="#1CB71C"/>
<path d="M37.4563 13.5491C37.4563 14.3517 36.7889 15.0016 35.9648 15.0016C35.1391 15.0016 34.4717 14.3517 34.4717 13.5491C34.4717 13.114 34.6714 12.7298 34.9824 12.4641C33.4098 12.2016 31.737 12.0576 29.9981 12.0576C28.2592 12.0576 26.5872 12.2016 25.0138 12.4641C25.3256 12.729 25.5253 13.114 25.5253 13.5491C25.5253 14.3517 24.8579 15.0016 24.0338 15.0016C23.2073 15.0016 22.5415 14.3517 22.5415 13.5491C22.5415 13.3439 22.5869 13.149 22.6656 12.9716C20.2809 13.5984 18.2318 14.5132 16.6854 15.6372C16.2956 16.6609 16.0801 18.0689 16.0801 18.8643H43.9169C43.9169 18.0689 43.7014 16.6617 43.3124 15.6387C41.7668 14.5132 39.7169 13.5968 37.3338 12.97C37.4117 13.1474 37.4563 13.3447 37.4563 13.5491Z" fill="#1CB71C"/>
<path d="M30.0012 31.1324C24.6422 31.1324 19.6603 30.0753 16.4785 28.3428V42.0977C16.4785 43.7881 17.4935 45.1141 19.2332 45.1141H21.5042C21.4262 45.1141 21.2512 45.6876 21.2512 45.9692V52.099C21.2512 53.701 22.7872 55 24.433 55C26.0796 55 27.6148 53.701 27.6148 52.099V45.9692C27.6148 45.6876 27.3078 45.1141 27.2322 45.1141H32.7718C32.6962 45.1141 32.3876 45.6876 32.3876 45.9692V52.099C32.3876 53.701 33.9204 55 35.5662 55C37.216 55 38.7512 53.701 38.7512 52.099V45.9692C38.7512 45.6876 38.577 45.1141 38.499 45.1141H40.7732C42.5129 45.1141 43.5239 43.7881 43.5239 42.0977V28.3428C40.3421 30.0761 35.3602 31.1324 30.0012 31.1324Z" fill="#049E42"/>
</svg>
