<svg width="60" height="60" viewBox="0 0 60 60" fill="none" xmlns="http://www.w3.org/2000/svg">
<g clip-path="url(#clip0_7015_7332)">
<path d="M19.0905 26.7621C19.0905 27.3719 19.157 27.8663 19.2734 28.2289C19.4065 28.5915 19.5727 28.987 19.8056 29.4155C19.8887 29.5474 19.922 29.6792 19.922 29.7946C19.922 29.9594 19.8222 30.1242 19.606 30.289L18.5583 30.9812C18.4087 31.0801 18.259 31.1296 18.126 31.1296C17.9597 31.1296 17.7934 31.0471 17.6271 30.8988C17.3943 30.6516 17.1947 30.3879 17.0284 30.1242C16.8621 29.844 16.6958 29.5309 16.5129 29.1518C15.2158 30.6681 13.5861 31.4262 11.6239 31.4262C10.227 31.4262 9.11281 31.0307 8.29796 30.2396C7.48312 29.4485 7.06738 28.3937 7.06738 27.0752C7.06738 25.6743 7.56627 24.5372 8.58066 23.6801C9.59506 22.8231 10.942 22.3946 12.6549 22.3946C13.2203 22.3946 13.8023 22.4441 14.4176 22.5265C15.0329 22.6089 15.6648 22.7407 16.33 22.8891V21.6859C16.33 20.4334 16.0639 19.5599 15.5484 19.049C15.0163 18.5381 14.1183 18.2909 12.8378 18.2909C12.2558 18.2909 11.6571 18.3568 11.0418 18.5051C10.4265 18.6534 9.82788 18.8347 9.24584 19.0655C8.97977 19.1808 8.78022 19.2468 8.66381 19.2797C8.54741 19.3127 8.46426 19.3292 8.39774 19.3292C8.16493 19.3292 8.04852 19.1644 8.04852 18.8183V18.0107C8.04852 17.747 8.08178 17.5492 8.16493 17.4338C8.24808 17.3185 8.39774 17.2031 8.63055 17.0877C9.21258 16.7911 9.91102 16.5439 10.7259 16.3461C11.5407 16.1318 12.4054 16.033 13.3201 16.033C15.299 16.033 16.7457 16.4779 17.677 17.3679C18.5916 18.2579 19.0572 19.6093 19.0572 21.4222V26.7621H19.0905ZM12.3389 29.2672C12.8877 29.2672 13.4531 29.1683 14.0518 28.9705C14.6504 28.7728 15.1826 28.4102 15.6316 27.9158C15.8976 27.6026 16.0972 27.2565 16.197 26.861C16.2967 26.4654 16.3633 25.9875 16.3633 25.4271V24.7349C15.881 24.6196 15.3655 24.5207 14.8333 24.4548C14.3012 24.3888 13.7857 24.3559 13.2702 24.3559C12.156 24.3559 11.3412 24.5701 10.7924 25.0151C10.2436 25.4601 9.97754 26.0864 9.97754 26.9104C9.97754 27.685 10.1771 28.2619 10.5928 28.6574C10.9919 29.0694 11.574 29.2672 12.3389 29.2672ZM25.6924 31.0471C25.3931 31.0471 25.1935 30.9977 25.0605 30.8823C24.9274 30.7835 24.811 30.5527 24.7113 30.2396L20.8033 17.4998C20.7035 17.1702 20.6537 16.9559 20.6537 16.8405C20.6537 16.5768 20.7867 16.4285 21.0528 16.4285H22.6825C22.9984 16.4285 23.2146 16.4779 23.331 16.5933C23.464 16.6922 23.5638 16.9229 23.6636 17.2361L26.4573 28.1465L29.0515 17.2361C29.1347 16.9065 29.2345 16.6922 29.3675 16.5933C29.5005 16.4944 29.7334 16.4285 30.0327 16.4285H31.363C31.679 16.4285 31.8952 16.4779 32.0282 16.5933C32.1613 16.6922 32.2777 16.9229 32.3442 17.2361L34.9716 28.2783L37.8485 17.2361C37.9483 16.9065 38.0647 16.6922 38.1811 16.5933C38.3142 16.4944 38.5303 16.4285 38.8297 16.4285H40.3762C40.6423 16.4285 40.7919 16.5604 40.7919 16.8405C40.7919 16.9229 40.7753 17.0053 40.7587 17.1042C40.7421 17.2031 40.7088 17.335 40.6423 17.5163L36.6346 30.2561C36.5348 30.5857 36.4184 30.7999 36.2854 30.8988C36.1523 30.9977 35.9361 31.0636 35.6534 31.0636H34.2233C33.9073 31.0636 33.6912 31.0142 33.5581 30.8988C33.4251 30.7835 33.3087 30.5692 33.2422 30.2396L30.6646 19.6093L28.1037 30.2231C28.0205 30.5527 27.9207 30.767 27.7877 30.8823C27.6547 30.9977 27.4219 31.0471 27.1225 31.0471H25.6924ZM47.0613 31.4921C46.1965 31.4921 45.3318 31.3932 44.5003 31.1955C43.6688 30.9977 43.0203 30.7835 42.5879 30.5362C42.3219 30.3879 42.1389 30.2231 42.0724 30.0748C42.0059 29.9264 41.9726 29.7616 41.9726 29.6133V28.7728C41.9726 28.4267 42.1057 28.2619 42.3551 28.2619C42.4549 28.2619 42.5547 28.2783 42.6544 28.3113C42.7542 28.3443 42.9039 28.4102 43.0702 28.4761C43.6356 28.7233 44.2509 28.9211 44.8994 29.0529C45.5646 29.1848 46.2132 29.2507 46.8783 29.2507C47.926 29.2507 48.7408 29.0694 49.3062 28.7068C49.8716 28.3443 50.171 27.8169 50.171 27.1412C50.171 26.6797 50.0213 26.3006 49.722 25.9875C49.4226 25.6743 48.8572 25.3942 48.0424 25.1305L45.6311 24.3888C44.4172 24.0098 43.5192 23.4494 42.9704 22.7078C42.4216 21.9826 42.1389 21.175 42.1389 20.318C42.1389 19.6258 42.2886 19.016 42.5879 18.4886C42.8873 17.9612 43.2864 17.4998 43.7853 17.1372C44.2841 16.7581 44.8495 16.4779 45.5147 16.2802C46.1799 16.0824 46.8783 16 47.61 16C47.9759 16 48.3584 16.0165 48.7242 16.0659C49.1067 16.1154 49.4559 16.1813 49.8051 16.2472C50.1377 16.3296 50.4537 16.412 50.753 16.5109C51.0523 16.6098 51.2851 16.7087 51.4514 16.8076C51.6843 16.9394 51.8505 17.0713 51.9503 17.2196C52.0501 17.3514 52.1 17.5327 52.1 17.7635V18.5381C52.1 18.8842 51.967 19.0655 51.7175 19.0655C51.5845 19.0655 51.3683 18.9995 51.0856 18.8677C50.1377 18.4392 49.0734 18.2249 47.8927 18.2249C46.9449 18.2249 46.1965 18.3733 45.681 18.6864C45.1655 18.9995 44.8994 19.4775 44.8994 20.1532C44.8994 20.6147 45.0657 21.0102 45.3983 21.3234C45.7309 21.6365 46.3462 21.9496 47.2276 22.2298L49.5889 22.9715C50.7863 23.3505 51.651 23.8779 52.1665 24.5536C52.682 25.2294 52.9315 26.004 52.9315 26.861C52.9315 27.5697 52.7818 28.2124 52.4991 28.7728C52.1998 29.3331 51.8007 29.8276 51.2851 30.2231C50.7696 30.6351 50.1543 30.9318 49.4393 31.146C48.6909 31.3768 47.9094 31.4921 47.0613 31.4921Z" fill="white"/>
<path fill-rule="evenodd" clip-rule="evenodd" d="M50.2042 39.5023C44.7331 43.5072 36.7842 45.6333 29.9495 45.6333C20.371 45.6333 11.7403 42.1228 5.22151 36.2885C4.70599 35.8271 5.17162 35.2008 5.78691 35.5634C12.8378 39.6177 21.535 42.0734 30.5316 42.0734C36.6013 42.0734 43.2697 40.8208 49.406 38.2498C50.3206 37.8377 51.1022 38.8431 50.2042 39.5023Z" fill="#FF9900"/>
<path fill-rule="evenodd" clip-rule="evenodd" d="M52.4825 36.9316C51.784 36.0416 47.8595 36.503 46.0801 36.7173C45.548 36.7832 45.4648 36.3218 45.9471 35.9757C49.0734 33.8002 54.2119 34.4264 54.8106 35.1516C55.4093 35.8933 54.6443 40.9859 51.7175 43.4251C51.2685 43.8041 50.8362 43.6064 51.0357 43.1119C51.7009 41.4803 53.1809 37.805 52.4825 36.9316Z" fill="#FF9900"/>
</g>
<defs>
<clipPath id="clip0_7015_7332">
<rect width="60" height="60" fill="white"/>
</clipPath>
</defs>
</svg>
