<svg width="60" height="60" viewBox="0 0 60 60" fill="none" xmlns="http://www.w3.org/2000/svg">
<path fill-rule="evenodd" clip-rule="evenodd" d="M16.8251 36.8655C13.3645 36.1989 10.75 33.1545 10.75 29.4996C10.75 25.9529 13.2114 22.9813 16.5186 22.1988C16.4998 21.9828 16.4898 21.7645 16.4898 21.544C16.4898 17.4007 19.8487 14.0413 23.9925 14.0413C26.8396 14.0413 29.3162 15.6271 30.5873 17.9635C31.6019 17.4517 32.7482 17.1629 33.9621 17.1629C37.1702 17.1629 39.9078 19.1766 40.9802 22.0091C41.124 22.0007 41.2684 21.9962 41.414 21.9962C45.5573 21.9962 48.9167 25.3552 48.9167 29.499C48.9167 32.9494 46.587 35.8555 43.4148 36.7309C43.2827 35.6656 42.3738 34.8403 41.2731 34.8403H40.8553C41.8894 34.2437 42.2621 32.9318 41.6635 31.8905C41.0713 30.8598 39.7483 30.5028 38.7185 31.0969L36.9143 32.1382C36.8379 32.1824 36.7652 32.2305 36.6958 32.2828V31.3493C36.6958 29.7355 35.3805 28.4208 33.7672 28.4208C32.5315 28.4208 31.4572 29.1959 31.0326 30.3022C29.4893 31.4017 27.4831 32.1237 25.5556 32.5187V32.4927H21.3295C18.8929 32.4933 16.8968 34.4455 16.8255 36.8655L16.8251 36.8655ZM37.6892 40.5163L39.4934 41.5576C39.7822 41.7243 40.1516 41.623 40.3175 41.3348C40.4834 41.046 40.3827 40.6769 40.0947 40.5104L38.2906 39.4691C38.0018 39.3023 37.6324 39.4036 37.4665 39.6919C37.3 39.9809 37.4007 40.3501 37.6892 40.5163ZM38.29 34.53L40.0942 33.4887C40.3824 33.3225 40.4832 32.9534 40.3169 32.6643C40.151 32.3761 39.7816 32.2748 39.4928 32.4415L37.6892 33.4828C37.401 33.649 37.3002 34.0182 37.4665 34.3072C37.6318 34.5958 38.0018 34.6962 38.29 34.53ZM39.2969 37.6065H41.2717C41.607 37.6065 41.8784 37.3348 41.8784 36.9998C41.8784 36.6646 41.6067 36.3931 41.2717 36.3931H39.2969C38.9617 36.3931 38.6902 36.6649 38.6902 36.9998C38.6899 37.3348 38.9617 37.6065 39.2969 37.6065ZM33.7665 29.9727C32.5542 29.9727 32.4151 31.2034 32.3958 31.216C30.7657 32.5194 28.3359 33.5792 25.5548 34.1014V39.898C28.3364 40.4238 30.7671 41.4947 32.3975 42.7985C32.4398 42.8195 32.5587 44.0259 33.7665 44.0259C34.524 44.0259 35.1439 43.406 35.1439 42.6485V38.6144C35.2158 38.6239 35.2894 38.6289 35.3635 38.6289C36.2637 38.6289 36.9933 37.8993 36.9933 36.9991C36.9933 36.0989 36.2637 35.3693 35.3635 35.3693C35.2888 35.3693 35.2155 35.3744 35.1439 35.3839V31.3495C35.1439 30.5925 34.524 29.9726 33.7665 29.9726V29.9727ZM24.0035 39.9541V34.0445H21.3291C19.7037 34.0445 18.3742 35.3743 18.3742 36.9993C18.3742 38.6247 19.704 39.9541 21.3291 39.9541L24.0035 39.9544V39.9541ZM24.1876 41.5056L24.5377 44.1392C24.5777 44.4408 24.379 44.7204 24.0813 44.7847L23.1531 44.9857C22.9871 45.0215 22.831 44.9899 22.6922 44.8919C22.5534 44.7943 22.4716 44.6574 22.449 44.4895L22.046 41.505L24.1877 41.5053L24.1876 41.5056Z" fill="#9D2D2D"/>
</svg>
