<svg width="741" height="106" viewBox="0 0 741 106" fill="none" xmlns="http://www.w3.org/2000/svg">
<path d="M207.9 27.86V77H195.93V56.77H177.31V77H165.34V27.86H177.31V47.11H195.93V27.86H207.9ZM215.561 57.4C215.561 53.3867 216.308 49.8633 217.801 46.83C219.341 43.7967 221.418 41.4633 224.031 39.83C226.645 38.1967 229.561 37.38 232.781 37.38C235.535 37.38 237.938 37.94 239.991 39.06C242.091 40.18 243.701 41.65 244.821 43.47V37.94H256.791V77H244.821V71.47C243.655 73.29 242.021 74.76 239.921 75.88C237.868 77 235.465 77.56 232.711 77.56C229.538 77.56 226.645 76.7433 224.031 75.11C221.418 73.43 219.341 71.0733 217.801 68.04C216.308 64.96 215.561 61.4133 215.561 57.4ZM244.821 57.47C244.821 54.4833 243.981 52.1267 242.301 50.4C240.668 48.6733 238.661 47.81 236.281 47.81C233.901 47.81 231.871 48.6733 230.191 50.4C228.558 52.08 227.741 54.4133 227.741 57.4C227.741 60.3867 228.558 62.7667 230.191 64.54C231.871 66.2667 233.901 67.13 236.281 67.13C238.661 67.13 240.668 66.2667 242.301 64.54C243.981 62.8133 244.821 60.4567 244.821 57.47ZM284.421 65.8L292.891 37.94H305.631L291.771 77H277.001L263.141 37.94H275.951L284.421 65.8ZM348.889 56.84C348.889 57.96 348.819 59.1267 348.679 60.34H321.589C321.776 62.7667 322.546 64.6333 323.899 65.94C325.299 67.2 327.003 67.83 329.009 67.83C331.996 67.83 334.073 66.57 335.239 64.05H347.979C347.326 66.6167 346.136 68.9267 344.409 70.98C342.729 73.0333 340.606 74.6433 338.039 75.81C335.473 76.9767 332.603 77.56 329.429 77.56C325.603 77.56 322.196 76.7433 319.209 75.11C316.223 73.4767 313.889 71.1433 312.209 68.11C310.529 65.0767 309.689 61.53 309.689 57.47C309.689 53.41 310.506 49.8633 312.139 46.83C313.819 43.7967 316.153 41.4633 319.139 39.83C322.126 38.1967 325.556 37.38 329.429 37.38C333.209 37.38 336.569 38.1733 339.509 39.76C342.449 41.3467 344.736 43.61 346.369 46.55C348.049 49.49 348.889 52.92 348.889 56.84ZM336.639 53.69C336.639 51.6367 335.939 50.0033 334.539 48.79C333.139 47.5767 331.389 46.97 329.289 46.97C327.283 46.97 325.579 47.5533 324.179 48.72C322.826 49.8867 321.986 51.5433 321.659 53.69H336.639ZM370.458 57.4C370.458 53.3867 371.205 49.8633 372.698 46.83C374.238 43.7967 376.315 41.4633 378.928 39.83C381.541 38.1967 384.458 37.38 387.678 37.38C390.431 37.38 392.835 37.94 394.888 39.06C396.988 40.18 398.598 41.65 399.718 43.47V37.94H411.688V77H399.718V71.47C398.551 73.29 396.918 74.76 394.818 75.88C392.765 77 390.361 77.56 387.608 77.56C384.435 77.56 381.541 76.7433 378.928 75.11C376.315 73.43 374.238 71.0733 372.698 68.04C371.205 64.96 370.458 61.4133 370.458 57.4ZM399.718 57.47C399.718 54.4833 398.878 52.1267 397.198 50.4C395.565 48.6733 393.558 47.81 391.178 47.81C388.798 47.81 386.768 48.6733 385.088 50.4C383.455 52.08 382.638 54.4133 382.638 57.4C382.638 60.3867 383.455 62.7667 385.088 64.54C386.768 66.2667 388.798 67.13 391.178 67.13C393.558 67.13 395.565 66.2667 397.198 64.54C398.878 62.8133 399.718 60.4567 399.718 57.47ZM449.952 43.47C451.118 41.65 452.728 40.18 454.782 39.06C456.835 37.94 459.238 37.38 461.992 37.38C465.212 37.38 468.128 38.1967 470.742 39.83C473.355 41.4633 475.408 43.7967 476.902 46.83C478.442 49.8633 479.212 53.3867 479.212 57.4C479.212 61.4133 478.442 64.96 476.902 68.04C475.408 71.0733 473.355 73.43 470.742 75.11C468.128 76.7433 465.212 77.56 461.992 77.56C459.285 77.56 456.882 77 454.782 75.88C452.728 74.76 451.118 73.3133 449.952 71.54V95.62H437.982V37.94H449.952V43.47ZM467.032 57.4C467.032 54.4133 466.192 52.08 464.512 50.4C462.878 48.6733 460.848 47.81 458.422 47.81C456.042 47.81 454.012 48.6733 452.332 50.4C450.698 52.1267 449.882 54.4833 449.882 57.47C449.882 60.4567 450.698 62.8133 452.332 64.54C454.012 66.2667 456.042 67.13 458.422 67.13C460.802 67.13 462.832 66.2667 464.512 64.54C466.192 62.7667 467.032 60.3867 467.032 57.4ZM498.862 44.45C500.262 42.3033 502.012 40.6233 504.112 39.41C506.212 38.15 508.545 37.52 511.112 37.52V50.19H507.822C504.835 50.19 502.595 50.8433 501.102 52.15C499.608 53.41 498.862 55.65 498.862 58.87V77H486.892V37.94H498.862V44.45ZM536.013 77.56C532.186 77.56 528.733 76.7433 525.653 75.11C522.62 73.4767 520.216 71.1433 518.443 68.11C516.716 65.0767 515.853 61.53 515.853 57.47C515.853 53.4567 516.74 49.9333 518.513 46.9C520.286 43.82 522.713 41.4633 525.793 39.83C528.873 38.1967 532.326 37.38 536.153 37.38C539.98 37.38 543.433 38.1967 546.513 39.83C549.593 41.4633 552.02 43.82 553.793 46.9C555.566 49.9333 556.453 53.4567 556.453 57.47C556.453 61.4833 555.543 65.03 553.723 68.11C551.95 71.1433 549.5 73.4767 546.373 75.11C543.293 76.7433 539.84 77.56 536.013 77.56ZM536.013 67.2C538.3 67.2 540.236 66.36 541.823 64.68C543.456 63 544.273 60.5967 544.273 57.47C544.273 54.3433 543.48 51.94 541.893 50.26C540.353 48.58 538.44 47.74 536.153 47.74C533.82 47.74 531.883 48.58 530.343 50.26C528.803 51.8933 528.033 54.2967 528.033 57.47C528.033 60.5967 528.78 63 530.273 64.68C531.813 66.36 533.726 67.2 536.013 67.2ZM570.153 33.88C568.053 33.88 566.327 33.2733 564.973 32.06C563.667 30.8 563.013 29.26 563.013 27.44C563.013 25.5733 563.667 24.0333 564.973 22.82C566.327 21.56 568.053 20.93 570.153 20.93C572.207 20.93 573.887 21.56 575.193 22.82C576.547 24.0333 577.223 25.5733 577.223 27.44C577.223 29.26 576.547 30.8 575.193 32.06C573.887 33.2733 572.207 33.88 570.153 33.88ZM576.173 82.04C576.173 86.8467 574.96 90.3 572.533 92.4C570.107 94.5467 566.723 95.62 562.383 95.62H557.693V85.47H560.563C561.87 85.47 562.803 85.2133 563.363 84.7C563.923 84.1867 564.203 83.3467 564.203 82.18V37.94H576.173V82.04ZM622.999 56.84C622.999 57.96 622.929 59.1267 622.789 60.34H595.699C595.886 62.7667 596.656 64.6333 598.009 65.94C599.409 67.2 601.113 67.83 603.119 67.83C606.106 67.83 608.183 66.57 609.349 64.05H622.089C621.436 66.6167 620.246 68.9267 618.519 70.98C616.839 73.0333 614.716 74.6433 612.149 75.81C609.583 76.9767 606.713 77.56 603.539 77.56C599.713 77.56 596.306 76.7433 593.319 75.11C590.333 73.4767 587.999 71.1433 586.319 68.11C584.639 65.0767 583.799 61.53 583.799 57.47C583.799 53.41 584.616 49.8633 586.249 46.83C587.929 43.7967 590.263 41.4633 593.249 39.83C596.236 38.1967 599.666 37.38 603.539 37.38C607.319 37.38 610.679 38.1733 613.619 39.76C616.559 41.3467 618.846 43.61 620.479 46.55C622.159 49.49 622.999 52.92 622.999 56.84ZM610.749 53.69C610.749 51.6367 610.049 50.0033 608.649 48.79C607.249 47.5767 605.499 46.97 603.399 46.97C601.393 46.97 599.689 47.5533 598.289 48.72C596.936 49.8867 596.096 51.5433 595.769 53.69H610.749ZM628.334 57.47C628.334 53.41 629.151 49.8633 630.784 46.83C632.464 43.7967 634.774 41.4633 637.714 39.83C640.701 38.1967 644.108 37.38 647.934 37.38C652.834 37.38 656.918 38.6633 660.184 41.23C663.498 43.7967 665.668 47.4133 666.694 52.08H653.954C652.881 49.0933 650.804 47.6 647.724 47.6C645.531 47.6 643.781 48.4633 642.474 50.19C641.168 51.87 640.514 54.2967 640.514 57.47C640.514 60.6433 641.168 63.0933 642.474 64.82C643.781 66.5 645.531 67.34 647.724 67.34C650.804 67.34 652.881 65.8467 653.954 62.86H666.694C665.668 67.4333 663.498 71.0267 660.184 73.64C656.871 76.2533 652.788 77.56 647.934 77.56C644.108 77.56 640.701 76.7433 637.714 75.11C634.774 73.4767 632.464 71.1433 630.784 68.11C629.151 65.0767 628.334 61.53 628.334 57.47ZM696.267 66.85V77H690.177C685.837 77 682.454 75.95 680.027 73.85C677.6 71.7033 676.387 68.2267 676.387 63.42V47.88H671.627V37.94H676.387V28.42H688.357V37.94H696.197V47.88H688.357V63.56C688.357 64.7267 688.637 65.5667 689.197 66.08C689.757 66.5933 690.69 66.85 691.997 66.85H696.267ZM718.685 25.13C723.678 25.13 727.668 26.4367 730.655 29.05C733.688 31.6633 735.205 35.35 735.205 40.11C735.205 44.4967 733.758 47.9267 730.865 50.4C728.018 52.8267 724.238 54.0633 719.525 54.11L719.175 59.36H708.675L708.325 46.34H712.525C716.118 46.34 718.848 45.8967 720.715 45.01C722.628 44.1233 723.585 42.5133 723.585 40.18C723.585 38.5467 723.141 37.2633 722.255 36.33C721.368 35.3967 720.131 34.93 718.545 34.93C716.865 34.93 715.558 35.42 714.625 36.4C713.691 37.3333 713.225 38.6167 713.225 40.25H701.955C701.861 37.4033 702.445 34.8367 703.705 32.55C705.011 30.2633 706.925 28.4667 709.445 27.16C712.011 25.8067 715.091 25.13 718.685 25.13ZM714.065 77.56C711.965 77.56 710.238 76.9533 708.885 75.74C707.578 74.48 706.925 72.94 706.925 71.12C706.925 69.2533 707.578 67.69 708.885 66.43C710.238 65.17 711.965 64.54 714.065 64.54C716.118 64.54 717.798 65.17 719.105 66.43C720.458 67.69 721.135 69.2533 721.135 71.12C721.135 72.94 720.458 74.48 719.105 75.74C717.798 76.9533 716.118 77.56 714.065 77.56Z" fill="#9F9F9F" fill-opacity="0.35"/>
<path d="M210.9 28.86H211.9V27.86H210.9V28.86ZM210.9 78V79H211.9V78H210.9ZM198.93 78H197.93V79H198.93V78ZM198.93 57.77H199.93V56.77H198.93V57.77ZM180.31 57.77V56.77H179.31V57.77H180.31ZM180.31 78V79H181.31V78H180.31ZM168.34 78H167.34V79H168.34V78ZM168.34 28.86V27.86H167.34V28.86H168.34ZM180.31 28.86H181.31V27.86H180.31V28.86ZM180.31 48.11H179.31V49.11H180.31V48.11ZM198.93 48.11V49.11H199.93V48.11H198.93ZM198.93 28.86V27.86H197.93V28.86H198.93ZM209.9 28.86V78H211.9V28.86H209.9ZM210.9 77H198.93V79H210.9V77ZM199.93 78V57.77H197.93V78H199.93ZM198.93 56.77H180.31V58.77H198.93V56.77ZM179.31 57.77V78H181.31V57.77H179.31ZM180.31 77H168.34V79H180.31V77ZM169.34 78V28.86H167.34V78H169.34ZM168.34 29.86H180.31V27.86H168.34V29.86ZM179.31 28.86V48.11H181.31V28.86H179.31ZM180.31 49.11H198.93V47.11H180.31V49.11ZM199.93 48.11V28.86H197.93V48.11H199.93ZM198.93 29.86H210.9V27.86H198.93V29.86ZM220.801 47.83L219.909 47.3773L219.904 47.3883L220.801 47.83ZM227.031 40.83L227.561 41.678L227.031 40.83ZM242.991 40.06L242.512 40.9379L242.521 40.9423L242.991 40.06ZM247.821 44.47L246.97 44.9941L248.821 48.003V44.47H247.821ZM247.821 38.94V37.94H246.821V38.94H247.821ZM259.791 38.94H260.791V37.94H259.791V38.94ZM259.791 78V79H260.791V78H259.791ZM247.821 78H246.821V79H247.821V78ZM247.821 72.47H248.821V69.057L246.979 71.9303L247.821 72.47ZM242.921 76.88L242.451 75.9976L242.442 76.0021L242.921 76.88ZM227.031 76.11L226.49 76.9512L226.501 76.958L227.031 76.11ZM220.801 69.04L219.901 69.4763L219.905 69.4845L219.91 69.4927L220.801 69.04ZM245.301 51.4L244.575 52.0873L244.584 52.0974L245.301 51.4ZM233.191 51.4L232.474 50.7026L232.474 50.7029L233.191 51.4ZM233.191 65.54L232.456 66.2175L232.465 66.2275L232.474 66.2374L233.191 65.54ZM245.301 65.54L244.584 64.8426L244.575 64.8528L245.301 65.54ZM219.561 58.4C219.561 54.5114 220.284 51.1442 221.698 48.2717L219.904 47.3883C218.332 50.5825 217.561 54.2619 217.561 58.4H219.561ZM221.693 48.2827C223.159 45.3942 225.118 43.2051 227.561 41.678L226.501 39.982C223.718 41.7216 221.523 44.1991 219.91 47.3773L221.693 48.2827ZM227.561 41.678C230.008 40.1486 232.74 39.38 235.781 39.38V37.38C232.383 37.38 229.281 38.2448 226.501 39.982L227.561 41.678ZM235.781 39.38C238.397 39.38 240.63 39.9111 242.512 40.9379L243.47 39.1821C241.246 37.9689 238.672 37.38 235.781 37.38V39.38ZM242.521 40.9423C244.482 41.9886 245.953 43.3419 246.97 44.9941L248.673 43.9459C247.45 41.9581 245.7 40.3714 243.462 39.1776L242.521 40.9423ZM248.821 44.47V38.94H246.821V44.47H248.821ZM247.821 39.94H259.791V37.94H247.821V39.94ZM258.791 38.94V78H260.791V38.94H258.791ZM259.791 77H247.821V79H259.791V77ZM248.821 78V72.47H246.821V78H248.821ZM246.979 71.9303C245.914 73.592 244.415 74.9499 242.451 75.9977L243.392 77.7624C245.627 76.5701 247.395 74.988 248.663 73.0097L246.979 71.9303ZM242.442 76.0021C240.56 77.0289 238.327 77.56 235.711 77.56V79.56C238.602 79.56 241.176 78.9711 243.4 77.7579L242.442 76.0021ZM235.711 77.56C232.719 77.56 230.011 76.7929 227.561 75.262L226.501 76.958C229.278 78.6937 232.356 79.56 235.711 79.56V77.56ZM227.572 75.2688C225.122 73.6938 223.16 71.4778 221.693 68.5873L219.91 69.4927C221.522 72.6689 223.714 75.1662 226.49 76.9512L227.572 75.2688ZM221.701 68.6037C220.284 65.6813 219.561 62.2881 219.561 58.4H217.561C217.561 62.5385 218.332 66.2387 219.901 69.4763L221.701 68.6037ZM248.821 58.47C248.821 55.2887 247.921 52.6584 246.018 50.7026L244.584 52.0974C246.042 53.5949 246.821 55.6779 246.821 58.47H248.821ZM246.028 50.7128C244.205 48.7862 241.936 47.81 239.281 47.81V49.81C241.387 49.81 243.131 50.5605 244.575 52.0872L246.028 50.7128ZM239.281 47.81C236.628 47.81 234.34 48.7852 232.474 50.7026L233.908 52.0974C235.402 50.5615 237.175 49.81 239.281 49.81V47.81ZM232.474 50.7029C230.613 52.6171 229.741 55.2277 229.741 58.4H231.741C231.741 55.599 232.502 53.5429 233.908 52.0971L232.474 50.7029ZM229.741 58.4C229.741 61.575 230.614 64.218 232.456 66.2175L233.927 64.8625C232.502 63.3153 231.741 61.1984 231.741 58.4H229.741ZM232.474 66.2374C234.34 68.1548 236.628 69.13 239.281 69.13V67.13C237.175 67.13 235.402 66.3785 233.908 64.8426L232.474 66.2374ZM239.281 69.13C241.936 69.13 244.205 68.1538 246.028 66.2272L244.575 64.8528C243.131 66.3795 241.387 67.13 239.281 67.13V69.13ZM246.018 66.2374C247.921 64.2816 248.821 61.6513 248.821 58.47H246.821C246.821 61.2621 246.042 63.3451 244.584 64.8426L246.018 66.2374ZM287.421 66.8L286.464 67.0909L287.421 70.2379L288.378 67.0909L287.421 66.8ZM295.891 38.94V37.94H295.15L294.934 38.6491L295.891 38.94ZM308.631 38.94L309.573 39.2744L310.047 37.94H308.631V38.94ZM294.771 78V79H295.477L295.713 78.3344L294.771 78ZM280.001 78L279.059 78.3344L279.295 79H280.001V78ZM266.141 38.94V37.94H264.725L265.199 39.2744L266.141 38.94ZM278.951 38.94L279.908 38.6491L279.692 37.94H278.951V38.94ZM288.378 67.0909L296.848 39.2309L294.934 38.6491L286.464 66.5091L288.378 67.0909ZM295.891 39.94H308.631V37.94H295.891V39.94ZM307.689 38.6056L293.829 77.6656L295.713 78.3344L309.573 39.2744L307.689 38.6056ZM294.771 77H280.001V79H294.771V77ZM280.943 77.6656L267.083 38.6056L265.199 39.2744L279.059 78.3344L280.943 77.6656ZM266.141 39.94H278.951V37.94H266.141V39.94ZM277.994 39.2309L286.464 67.0909L288.378 66.5091L279.908 38.6491L277.994 39.2309ZM351.679 61.34V62.34H352.571L352.673 61.4546L351.679 61.34ZM324.589 61.34V60.34H323.509L323.592 61.4167L324.589 61.34ZM326.899 66.94L326.205 67.6594L326.217 67.6716L326.23 67.6833L326.899 66.94ZM338.239 65.05V64.05H337.6L337.332 64.6299L338.239 65.05ZM350.979 65.05L351.948 65.2967L352.266 64.05H350.979V65.05ZM347.409 71.98L346.644 71.3363L346.635 71.3468L347.409 71.98ZM341.039 76.81L341.453 77.7204L341.039 76.81ZM322.209 76.11L321.729 76.9874L322.209 76.11ZM315.209 69.11L316.084 68.6255L315.209 69.11ZM315.139 47.83L314.264 47.3455L314.259 47.3559L315.139 47.83ZM322.139 40.83L322.619 41.7074L322.139 40.83ZM342.509 40.76L342.034 41.64L342.509 40.76ZM349.369 47.55L348.495 48.0357L348.501 48.0461L349.369 47.55ZM339.639 54.69V55.69H340.639V54.69H339.639ZM337.539 49.79L338.194 49.0343L337.539 49.79ZM327.179 49.72L326.539 48.9518L326.533 48.9571L326.526 48.9626L327.179 49.72ZM324.659 54.69L323.671 54.5396L323.496 55.69H324.659V54.69ZM350.889 57.84C350.889 58.9184 350.822 60.0467 350.686 61.2254L352.673 61.4546C352.817 60.2066 352.889 59.0016 352.889 57.84H350.889ZM351.679 60.34H324.589V62.34H351.679V60.34ZM323.592 61.4167C323.792 64.0139 324.629 66.1377 326.205 67.6594L327.594 66.2206C326.463 65.129 325.76 63.5195 325.586 61.2633L323.592 61.4167ZM326.23 67.6833C327.827 69.12 329.773 69.83 332.009 69.83V67.83C330.232 67.83 328.772 67.28 327.568 66.1967L326.23 67.6833ZM332.009 69.83C333.644 69.83 335.098 69.4844 336.326 68.7399C337.557 67.9926 338.492 66.8838 339.147 65.4701L337.332 64.6299C336.82 65.7362 336.133 66.5174 335.288 67.0301C334.438 67.5456 333.362 67.83 332.009 67.83V69.83ZM338.239 66.05H350.979V64.05H338.239V66.05ZM350.01 64.8033C349.395 67.2221 348.275 69.3968 346.644 71.3364L348.175 72.6236C349.997 70.4565 351.257 68.0113 351.948 65.2967L350.01 64.8033ZM346.635 71.3468C345.059 73.2739 343.061 74.7924 340.625 75.8996L341.453 77.7204C344.151 76.4943 346.4 74.7928 348.183 72.6132L346.635 71.3468ZM340.625 75.8996C338.204 77.0002 335.478 77.56 332.429 77.56V79.56C335.727 79.56 338.741 78.9531 341.453 77.7204L340.625 75.8996ZM332.429 77.56C328.749 77.56 325.511 76.7759 322.689 75.2326L321.729 76.9874C324.881 78.7107 328.456 79.56 332.429 79.56V77.56ZM322.689 75.2326C319.872 73.692 317.674 71.4964 316.084 68.6255L314.335 69.5945C316.104 72.7903 318.573 75.2614 321.729 76.9874L322.689 75.2326ZM316.084 68.6255C314.499 65.764 313.689 62.3896 313.689 58.47H311.689C311.689 62.6704 312.559 66.3894 314.335 69.5945L316.084 68.6255ZM313.689 58.47C313.689 54.5459 314.478 51.1677 316.02 48.3041L314.259 47.3559C312.534 50.5589 311.689 54.2741 311.689 58.47H313.689ZM316.014 48.3145C317.604 45.4436 319.802 43.248 322.619 41.7074L321.659 39.9526C318.503 41.6786 316.034 44.1497 314.264 47.3455L316.014 48.3145ZM322.619 41.7074C325.439 40.165 328.7 39.38 332.429 39.38V37.38C328.412 37.38 324.813 38.2283 321.659 39.9526L322.619 41.7074ZM332.429 39.38C336.066 39.38 339.259 40.142 342.034 41.64L342.984 39.88C339.88 38.2047 336.353 37.38 332.429 37.38V39.38ZM342.034 41.64C344.805 43.1354 346.954 45.2613 348.495 48.0356L350.243 47.0644C348.518 43.9587 346.093 41.5579 342.984 39.88L342.034 41.64ZM348.501 48.0461C350.082 50.8126 350.889 54.0663 350.889 57.84H352.889C352.889 53.7737 352.017 50.1673 350.238 47.0539L348.501 48.0461ZM340.639 54.69C340.639 52.3819 339.839 50.4595 338.194 49.0343L336.884 50.5457C338.04 51.5471 338.639 52.8914 338.639 54.69H340.639ZM338.194 49.0343C336.588 47.6423 334.596 46.97 332.289 46.97V48.97C334.183 48.97 335.69 49.511 336.884 50.5457L338.194 49.0343ZM332.289 46.97C330.074 46.97 328.137 47.6199 326.539 48.9518L327.819 50.4882C329.021 49.4868 330.491 48.97 332.289 48.97V46.97ZM326.526 48.9626C324.956 50.3168 324.025 52.2099 323.671 54.5396L325.648 54.8404C325.947 52.8768 326.696 51.4566 327.832 50.4774L326.526 48.9626ZM324.659 55.69H339.639V53.69H324.659V55.69ZM375.698 47.83L374.806 47.3773L374.801 47.3883L375.698 47.83ZM381.928 40.83L382.458 41.678L381.928 40.83ZM397.888 40.06L397.409 40.9379L397.417 40.9423L397.888 40.06ZM402.718 44.47L401.866 44.9941L403.718 48.003V44.47H402.718ZM402.718 38.94V37.94H401.718V38.94H402.718ZM414.688 38.94H415.688V37.94H414.688V38.94ZM414.688 78V79H415.688V78H414.688ZM402.718 78H401.718V79H402.718V78ZM402.718 72.47H403.718V69.057L401.876 71.9303L402.718 72.47ZM397.818 76.88L397.347 75.9976L397.339 76.0021L397.818 76.88ZM381.928 76.11L381.387 76.9512L381.398 76.958L381.928 76.11ZM375.698 69.04L374.798 69.4763L374.802 69.4845L374.806 69.4927L375.698 69.04ZM400.198 51.4L399.472 52.0873L399.481 52.0974L400.198 51.4ZM388.088 51.4L387.371 50.7026L387.371 50.7029L388.088 51.4ZM388.088 65.54L387.353 66.2175L387.362 66.2275L387.371 66.2374L388.088 65.54ZM400.198 65.54L399.481 64.8426L399.472 64.8528L400.198 65.54ZM374.458 58.4C374.458 54.5114 375.181 51.1442 376.595 48.2717L374.801 47.3883C373.228 50.5825 372.458 54.2619 372.458 58.4H374.458ZM376.59 48.2827C378.056 45.3942 380.015 43.2051 382.458 41.678L381.398 39.982C378.615 41.7216 376.42 44.1991 374.806 47.3773L376.59 48.2827ZM382.458 41.678C384.905 40.1486 387.637 39.38 390.678 39.38V37.38C387.279 37.38 384.178 38.2448 381.398 39.982L382.458 41.678ZM390.678 39.38C393.294 39.38 395.527 39.9111 397.409 40.9379L398.367 39.1821C396.143 37.9689 393.569 37.38 390.678 37.38V39.38ZM397.417 40.9423C399.379 41.9886 400.85 43.3419 401.866 44.9941L403.57 43.9459C402.346 41.9581 400.597 40.3714 398.359 39.1776L397.417 40.9423ZM403.718 44.47V38.94H401.718V44.47H403.718ZM402.718 39.94H414.688V37.94H402.718V39.94ZM413.688 38.94V78H415.688V38.94H413.688ZM414.688 77H402.718V79H414.688V77ZM403.718 78V72.47H401.718V78H403.718ZM401.876 71.9303C400.811 73.592 399.312 74.9499 397.347 75.9977L398.289 77.7624C400.524 76.5701 402.292 74.988 403.56 73.0097L401.876 71.9303ZM397.339 76.0021C395.457 77.0289 393.224 77.56 390.608 77.56V79.56C393.499 79.56 396.073 78.9711 398.297 77.7579L397.339 76.0021ZM390.608 77.56C387.616 77.56 384.908 76.7929 382.458 75.262L381.398 76.958C384.175 78.6937 387.253 79.56 390.608 79.56V77.56ZM382.469 75.2688C380.019 73.6938 378.057 71.4778 376.59 68.5873L374.806 69.4927C376.419 72.6689 378.611 75.1662 381.387 76.9512L382.469 75.2688ZM376.598 68.6037C375.181 65.6813 374.458 62.2881 374.458 58.4H372.458C372.458 62.5385 373.229 66.2387 374.798 69.4763L376.598 68.6037ZM403.718 58.47C403.718 55.2887 402.818 52.6584 400.915 50.7026L399.481 52.0974C400.938 53.5949 401.718 55.6779 401.718 58.47H403.718ZM400.925 50.7128C399.102 48.7862 396.832 47.81 394.178 47.81V49.81C396.284 49.81 398.027 50.5605 399.472 52.0872L400.925 50.7128ZM394.178 47.81C391.524 47.81 389.237 48.7852 387.371 50.7026L388.805 52.0974C390.299 50.5615 392.072 49.81 394.178 49.81V47.81ZM387.371 50.7029C385.51 52.6171 384.638 55.2277 384.638 58.4H386.638C386.638 55.599 387.399 53.5429 388.805 52.0971L387.371 50.7029ZM384.638 58.4C384.638 61.575 385.511 64.218 387.353 66.2175L388.824 64.8625C387.398 63.3153 386.638 61.1984 386.638 58.4H384.638ZM387.371 66.2374C389.237 68.1548 391.524 69.13 394.178 69.13V67.13C392.072 67.13 390.299 66.3785 388.805 64.8426L387.371 66.2374ZM394.178 69.13C396.832 69.13 399.102 68.1538 400.925 66.2272L399.472 64.8528C398.027 66.3795 396.284 67.13 394.178 67.13V69.13ZM400.915 66.2374C402.818 64.2816 403.718 61.6513 403.718 58.47H401.718C401.718 61.2621 400.938 63.3451 399.481 64.8426L400.915 66.2374ZM452.952 44.47H451.952V47.883L453.794 45.0097L452.952 44.47ZM457.782 40.06L457.303 39.1821L457.782 40.06ZM473.742 40.83L473.212 41.678L473.742 40.83ZM479.902 47.83L479.005 48.2717L479.01 48.2827L479.902 47.83ZM479.902 69.04L479.007 68.5928L479.005 68.5983L479.902 69.04ZM473.742 76.11L474.272 76.9581L474.283 76.9512L473.742 76.11ZM457.782 76.88L457.303 77.7579L457.311 77.7624L457.782 76.88ZM452.952 72.54L453.787 71.9904L451.952 69.2006V72.54H452.952ZM452.952 96.62V97.62H453.952V96.62H452.952ZM440.982 96.62H439.982V97.62H440.982V96.62ZM440.982 38.94V37.94H439.982V38.94H440.982ZM452.952 38.94H453.952V37.94H452.952V38.94ZM467.512 51.4L466.785 52.0872L466.795 52.0973L466.805 52.1071L467.512 51.4ZM455.332 51.4L454.615 50.7026L454.605 50.7128L455.332 51.4ZM455.332 65.54L454.605 66.2273L454.615 66.2374L455.332 65.54ZM467.512 65.54L468.229 66.2374L468.238 66.2277L467.512 65.54ZM453.794 45.0097C454.862 43.3426 456.342 41.9842 458.261 40.9379L457.303 39.1821C455.115 40.3758 453.375 41.9574 452.11 43.9303L453.794 45.0097ZM458.261 40.9379C460.143 39.9111 462.376 39.38 464.992 39.38V37.38C462.101 37.38 459.527 37.9689 457.303 39.1821L458.261 40.9379ZM464.992 39.38C468.033 39.38 470.765 40.1486 473.212 41.678L474.272 39.982C471.492 38.2448 468.39 37.38 464.992 37.38V39.38ZM473.212 41.678C475.652 43.2032 477.585 45.3885 479.005 48.2717L480.799 47.3883C479.232 44.2048 477.058 41.7234 474.272 39.982L473.212 41.678ZM479.01 48.2827C480.467 51.1526 481.212 54.5158 481.212 58.4H483.212C483.212 54.2575 482.416 50.574 480.793 47.3773L479.01 48.2827ZM481.212 58.4C481.212 62.2837 480.467 65.6729 479.007 68.5928L480.796 69.4872C482.416 66.2471 483.212 62.5429 483.212 58.4H481.212ZM479.005 68.5983C477.584 71.4835 475.648 73.6957 473.201 75.2688L474.283 76.9512C477.062 75.1643 479.233 72.6632 480.799 69.4817L479.005 68.5983ZM473.212 75.262C470.765 76.7914 468.033 77.56 464.992 77.56V79.56C468.39 79.56 471.492 78.6952 474.272 76.958L473.212 75.262ZM464.992 77.56C462.426 77.56 460.189 77.0304 458.252 75.9977L457.311 77.7624C459.575 78.9696 462.144 79.56 464.992 79.56V77.56ZM458.261 76.0021C456.336 74.9525 454.855 73.6131 453.787 71.9904L452.116 73.0896C453.382 75.0135 455.121 76.5675 457.303 77.7579L458.261 76.0021ZM451.952 72.54V96.62H453.952V72.54H451.952ZM452.952 95.62H440.982V97.62H452.952V95.62ZM441.982 96.62V38.94H439.982V96.62H441.982ZM440.982 39.94H452.952V37.94H440.982V39.94ZM451.952 38.94V44.47H453.952V38.94H451.952ZM471.032 58.4C471.032 55.22 470.132 52.6058 468.219 50.6929L466.805 52.1071C468.252 53.5542 469.032 55.6067 469.032 58.4H471.032ZM468.238 50.7128C466.412 48.7818 464.117 47.81 461.422 47.81V49.81C463.58 49.81 465.345 50.5649 466.785 52.0872L468.238 50.7128ZM461.422 47.81C458.768 47.81 456.481 48.7852 454.615 50.7026L456.049 52.0974C457.543 50.5615 459.315 49.81 461.422 49.81V47.81ZM454.605 50.7128C452.754 52.6696 451.882 55.2963 451.882 58.47H453.882C453.882 55.6704 454.643 53.5837 456.058 52.0872L454.605 50.7128ZM451.882 58.47C451.882 61.6437 452.754 64.2704 454.605 66.2272L456.058 64.8528C454.643 63.3563 453.882 61.2696 453.882 58.47H451.882ZM454.615 66.2374C456.481 68.1548 458.768 69.13 461.422 69.13V67.13C459.315 67.13 457.543 66.3785 456.049 64.8426L454.615 66.2374ZM461.422 69.13C464.075 69.13 466.363 68.1548 468.229 66.2374L466.795 64.8426C465.301 66.3785 463.528 67.13 461.422 67.13V69.13ZM468.238 66.2277C470.131 64.2292 471.032 61.5824 471.032 58.4H469.032C469.032 61.1909 468.252 63.3041 466.786 64.8523L468.238 66.2277ZM501.862 45.45H500.862V48.8139L502.699 45.9963L501.862 45.45ZM507.112 40.41L507.612 41.2759L507.619 41.2717L507.626 41.2675L507.112 40.41ZM514.112 38.52H515.112V37.52H514.112V38.52ZM514.112 51.19V52.19H515.112V51.19H514.112ZM504.102 53.15L504.746 53.9143L504.753 53.9085L504.76 53.9026L504.102 53.15ZM501.862 78V79H502.862V78H501.862ZM489.892 78H488.892V79H489.892V78ZM489.892 38.94V37.94H488.892V38.94H489.892ZM501.862 38.94H502.862V37.94H501.862V38.94ZM502.699 45.9963C504.018 43.9735 505.656 42.4062 507.612 41.2759L506.611 39.5441C504.368 40.8405 502.505 42.6332 501.024 44.9037L502.699 45.9963ZM507.626 41.2675C509.563 40.1053 511.717 39.52 514.112 39.52V37.52C511.373 37.52 508.86 38.1947 506.597 39.5525L507.626 41.2675ZM513.112 38.52V51.19H515.112V38.52H513.112ZM514.112 50.19H510.822V52.19H514.112V50.19ZM510.822 50.19C507.711 50.19 505.192 50.8675 503.443 52.3974L504.76 53.9026C505.998 52.8191 507.959 52.19 510.822 52.19V50.19ZM503.457 52.3857C501.627 53.9298 500.862 56.5417 500.862 59.87H502.862C502.862 56.7583 503.59 54.8902 504.746 53.9143L503.457 52.3857ZM500.862 59.87V78H502.862V59.87H500.862ZM501.862 77H489.892V79H501.862V77ZM490.892 78V38.94H488.892V78H490.892ZM489.892 39.94H501.862V37.94H489.892V39.94ZM500.862 38.94V45.45H502.862V38.94H500.862ZM528.653 76.11L528.179 76.9905L528.184 76.9935L528.653 76.11ZM521.443 69.11L520.574 69.6047L520.58 69.6147L521.443 69.11ZM521.513 47.9L522.376 48.4047L522.38 48.399L521.513 47.9ZM528.793 40.83L529.261 41.7135L528.793 40.83ZM549.513 40.83L549.044 41.7135L549.513 40.83ZM556.793 47.9L555.926 48.399L555.93 48.4047L556.793 47.9ZM556.723 69.11L555.862 68.6013L555.86 68.6053L556.723 69.11ZM549.373 76.11L548.91 75.2236L548.904 75.2265L549.373 76.11ZM544.823 65.68L544.106 64.9829L544.101 64.9881L544.096 64.9934L544.823 65.68ZM544.893 51.26L544.156 51.9357L544.161 51.9412L544.166 51.9466L544.893 51.26ZM533.343 51.26L534.071 51.9461L534.08 51.9357L533.343 51.26ZM533.273 65.68L532.526 66.3444L532.531 66.3501L532.536 66.3557L533.273 65.68ZM539.013 77.56C535.333 77.56 532.043 76.7761 529.121 75.2265L528.184 76.9935C531.423 78.7106 535.039 79.56 539.013 79.56V77.56ZM529.127 75.2295C526.259 73.6851 523.989 71.4833 522.306 68.6053L520.58 69.6147C522.444 72.8033 524.98 75.2682 528.179 76.9905L529.127 75.2295ZM522.312 68.6153C520.684 65.7558 519.853 62.3851 519.853 58.47H517.853C517.853 62.6749 518.748 66.3976 520.574 69.6047L522.312 68.6153ZM519.853 58.47C519.853 54.6084 520.705 51.2642 522.376 48.4047L520.65 47.3953C518.775 50.6025 517.853 54.3049 517.853 58.47H519.853ZM522.38 48.399C524.061 45.4787 526.351 43.2568 529.261 41.7135L528.324 39.9465C525.075 41.6698 522.512 44.1613 520.646 47.401L522.38 48.399ZM529.261 41.7135C532.183 40.1639 535.473 39.38 539.153 39.38V37.38C535.179 37.38 531.562 38.2294 528.324 39.9465L529.261 41.7135ZM539.153 39.38C542.833 39.38 546.122 40.1639 549.044 41.7135L549.981 39.9465C546.743 38.2294 543.127 37.38 539.153 37.38V39.38ZM549.044 41.7135C551.955 43.2568 554.245 45.4787 555.926 48.399L557.66 47.401C555.794 44.1613 553.231 41.6698 549.981 39.9465L549.044 41.7135ZM555.93 48.4047C557.601 51.2642 558.453 54.6084 558.453 58.47H560.453C560.453 54.3049 559.531 50.6025 557.656 47.3953L555.93 48.4047ZM558.453 58.47C558.453 62.3267 557.58 65.6935 555.862 68.6013L557.584 69.6187C559.506 66.3665 560.453 62.64 560.453 58.47H558.453ZM555.86 68.6053C554.182 71.4756 551.871 73.677 548.91 75.2236L549.836 76.9963C553.129 75.2763 555.718 72.811 557.586 69.6147L555.86 68.6053ZM548.904 75.2265C545.983 76.7761 542.693 77.56 539.013 77.56V79.56C542.987 79.56 546.603 78.7106 549.841 76.9935L548.904 75.2265ZM539.013 69.2C541.578 69.2 543.777 68.2442 545.55 66.3666L544.096 64.9934C542.696 66.4758 541.021 67.2 539.013 67.2V69.2ZM545.54 66.3771C547.409 64.4548 548.273 61.7675 548.273 58.47H546.273C546.273 61.4259 545.504 63.5452 544.106 64.9829L545.54 66.3771ZM548.273 58.47C548.273 55.1798 547.436 52.4965 545.62 50.5734L544.166 51.9466C545.523 53.3835 546.273 55.5068 546.273 58.47H548.273ZM545.63 50.5843C543.9 48.6969 541.719 47.74 539.153 47.74V49.74C541.16 49.74 542.806 50.4631 544.156 51.9357L545.63 50.5843ZM539.153 47.74C536.547 47.74 534.34 48.6921 532.606 50.5843L534.08 51.9357C535.426 50.4679 537.092 49.74 539.153 49.74V47.74ZM532.615 50.574C530.839 52.4577 530.033 55.1474 530.033 58.47H532.033C532.033 55.446 532.767 53.329 534.071 51.946L532.615 50.574ZM530.033 58.47C530.033 61.7458 530.816 64.4206 532.526 66.3444L534.02 65.0156C532.744 63.5794 532.033 61.4475 532.033 58.47H530.033ZM532.536 66.3557C534.266 68.2431 536.447 69.2 539.013 69.2V67.2C537.006 67.2 535.36 66.4769 534.01 65.0043L532.536 66.3557ZM567.973 33.06L567.279 33.7798L567.292 33.7924L567.306 33.8046L567.973 33.06ZM567.973 23.82L568.654 24.5528L568.655 24.5519L567.973 23.82ZM578.193 23.82L577.499 24.5398L577.512 24.5524L577.526 24.5646L578.193 23.82ZM578.193 33.06L578.874 33.7928L578.875 33.7919L578.193 33.06ZM575.533 93.4L574.879 92.6438L574.871 92.651L575.533 93.4ZM560.693 96.62H559.693V97.62H560.693V96.62ZM560.693 86.47V85.47H559.693V86.47H560.693ZM566.363 85.7L565.688 84.9628L566.363 85.7ZM567.203 38.94V37.94H566.203V38.94H567.203ZM579.173 38.94H580.173V37.94H579.173V38.94ZM573.153 33.88C571.259 33.88 569.782 33.339 568.641 32.3154L567.306 33.8046C568.871 35.2077 570.848 35.88 573.153 35.88V33.88ZM568.667 32.3402C567.557 31.2692 567.013 29.9893 567.013 28.44H565.013C565.013 30.5307 565.776 32.3308 567.279 33.7798L568.667 32.3402ZM567.013 28.44C567.013 26.8367 567.561 25.5671 568.654 24.5528L567.293 23.0872C565.772 24.4995 565.013 26.3099 565.013 28.44H567.013ZM568.655 24.5519C569.798 23.4878 571.269 22.93 573.153 22.93V20.93C570.837 20.93 568.856 21.6322 567.292 23.0881L568.655 24.5519ZM573.153 22.93C574.984 22.93 576.404 23.4836 577.499 24.5398L578.887 23.1002C577.369 21.6364 575.429 20.93 573.153 20.93V22.93ZM577.526 24.5646C578.661 25.5825 579.223 26.8487 579.223 28.44H581.223C581.223 26.2979 580.432 24.4842 578.861 23.0754L577.526 24.5646ZM579.223 28.44C579.223 29.9774 578.666 31.2538 577.512 32.3281L578.875 33.7919C580.428 32.3462 581.223 30.5426 581.223 28.44H579.223ZM577.513 32.3272C576.419 33.3428 574.995 33.88 573.153 33.88V35.88C575.418 35.88 577.354 35.2039 578.874 33.7928L577.513 32.3272ZM578.173 83.04C578.173 87.7026 576.996 90.8121 574.879 92.6438L576.188 94.1562C578.924 91.7878 580.173 87.9907 580.173 83.04H578.173ZM574.871 92.651C572.681 94.5878 569.563 95.62 565.383 95.62V97.62C569.883 97.62 573.532 96.5055 576.196 94.149L574.871 92.651ZM565.383 95.62H560.693V97.62H565.383V95.62ZM561.693 96.62V86.47H559.693V96.62H561.693ZM560.693 87.47H563.563V85.47H560.693V87.47ZM563.563 87.47C564.954 87.47 566.201 87.2055 567.039 86.4372L565.688 84.9628C565.406 85.2212 564.786 85.47 563.563 85.47V87.47ZM567.039 86.4372C567.895 85.6529 568.203 84.478 568.203 83.18H566.203C566.203 84.2154 565.952 84.7204 565.688 84.9628L567.039 86.4372ZM568.203 83.18V38.94H566.203V83.18H568.203ZM567.203 39.94H579.173V37.94H567.203V39.94ZM578.173 38.94V83.04H580.173V38.94H578.173ZM625.789 61.34V62.34H626.681L626.783 61.4546L625.789 61.34ZM598.699 61.34V60.34H597.62L597.702 61.4167L598.699 61.34ZM601.009 66.94L600.315 67.6594L600.327 67.6716L600.34 67.6833L601.009 66.94ZM612.349 65.05V64.05H611.71L611.442 64.6299L612.349 65.05ZM625.089 65.05L626.059 65.2967L626.376 64.05H625.089V65.05ZM621.519 71.98L620.754 71.3363L620.745 71.3468L621.519 71.98ZM615.149 76.81L615.563 77.7204L615.149 76.81ZM596.319 76.11L595.84 76.9874L596.319 76.11ZM589.319 69.11L590.194 68.6255L589.319 69.11ZM589.249 47.83L588.375 47.3455L588.369 47.3559L589.249 47.83ZM596.249 40.83L596.729 41.7074L596.249 40.83ZM616.619 40.76L616.145 41.64H616.145L616.619 40.76ZM623.479 47.55L622.605 48.0357L622.611 48.0461L623.479 47.55ZM613.749 54.69V55.69H614.749V54.69H613.749ZM611.649 49.79L612.304 49.0343L611.649 49.79ZM601.289 49.72L600.649 48.9518L600.643 48.9571L600.637 48.9626L601.289 49.72ZM598.769 54.69L597.781 54.5396L597.606 55.69H598.769V54.69ZM624.999 57.84C624.999 58.9184 624.932 60.0467 624.796 61.2254L626.783 61.4546C626.927 60.2066 626.999 59.0016 626.999 57.84H624.999ZM625.789 60.34H598.699V62.34H625.789V60.34ZM597.702 61.4167C597.902 64.0139 598.739 66.1377 600.315 67.6594L601.704 66.2206C600.573 65.129 599.87 63.5195 599.697 61.2633L597.702 61.4167ZM600.34 67.6833C601.937 69.12 603.883 69.83 606.119 69.83V67.83C604.342 67.83 602.882 67.28 601.678 66.1967L600.34 67.6833ZM606.119 69.83C607.754 69.83 609.209 69.4844 610.436 68.7399C611.667 67.9926 612.602 66.8838 613.257 65.4701L611.442 64.6299C610.93 65.7362 610.243 66.5174 609.398 67.0301C608.549 67.5456 607.472 67.83 606.119 67.83V69.83ZM612.349 66.05H625.089V64.05H612.349V66.05ZM624.12 64.8033C623.505 67.2221 622.385 69.3968 620.754 71.3364L622.285 72.6236C624.107 70.4565 625.368 68.0113 626.059 65.2967L624.12 64.8033ZM620.745 71.3468C619.169 73.2739 617.172 74.7924 614.736 75.8996L615.563 77.7204C618.261 76.4943 620.51 74.7928 622.293 72.6132L620.745 71.3468ZM614.736 75.8996C612.314 77.0002 609.588 77.56 606.539 77.56V79.56C609.838 79.56 612.851 78.9531 615.563 77.7204L614.736 75.8996ZM606.539 77.56C602.859 77.56 599.621 76.7759 596.799 75.2326L595.84 76.9874C598.991 78.7107 602.566 79.56 606.539 79.56V77.56ZM596.799 75.2326C593.982 73.692 591.784 71.4964 590.194 68.6255L588.445 69.5945C590.215 72.7903 592.684 75.2614 595.84 76.9874L596.799 75.2326ZM590.194 68.6255C588.609 65.764 587.799 62.3896 587.799 58.47H585.799C585.799 62.6704 586.669 66.3894 588.445 69.5945L590.194 68.6255ZM587.799 58.47C587.799 54.5459 588.588 51.1677 590.13 48.3041L588.369 47.3559C586.644 50.5589 585.799 54.2741 585.799 58.47H587.799ZM590.124 48.3145C591.714 45.4436 593.912 43.248 596.729 41.7074L595.77 39.9526C592.613 41.6786 590.145 44.1497 588.375 47.3455L590.124 48.3145ZM596.729 41.7074C599.55 40.165 602.81 39.38 606.539 39.38V37.38C602.522 37.38 598.923 38.2283 595.77 39.9526L596.729 41.7074ZM606.539 39.38C610.176 39.38 613.369 40.142 616.145 41.64L617.094 39.88C613.99 38.2047 610.463 37.38 606.539 37.38V39.38ZM616.145 41.64C618.915 43.1354 621.064 45.2613 622.605 48.0356L624.354 47.0644C622.628 43.9587 620.204 41.5579 617.094 39.88L616.145 41.64ZM622.611 48.0461C624.192 50.8126 624.999 54.0663 624.999 57.84H626.999C626.999 53.7737 626.127 50.1673 624.348 47.0539L622.611 48.0461ZM614.749 54.69C614.749 52.3819 613.949 50.4595 612.304 49.0343L610.995 50.5457C612.15 51.5471 612.749 52.8914 612.749 54.69H614.749ZM612.304 49.0343C610.698 47.6423 608.706 46.97 606.399 46.97V48.97C608.293 48.97 609.801 49.511 610.995 50.5457L612.304 49.0343ZM606.399 46.97C604.184 46.97 602.247 47.6199 600.649 48.9518L601.93 50.4882C603.131 49.4868 604.601 48.97 606.399 48.97V46.97ZM600.637 48.9626C599.066 50.3168 598.135 52.2099 597.781 54.5396L599.758 54.8404C600.057 52.8768 600.807 51.4566 601.942 50.4774L600.637 48.9626ZM598.769 55.69H613.749V53.69H598.769V55.69ZM633.784 47.83L632.909 47.3455L632.904 47.3559L633.784 47.83ZM640.714 40.83L640.234 39.9526L640.229 39.9558L640.714 40.83ZM663.184 42.23L662.566 43.0163L662.572 43.0205L663.184 42.23ZM669.694 53.08V54.08H670.938L670.671 52.8651L669.694 53.08ZM656.954 53.08L656.013 53.4182L656.251 54.08H656.954V53.08ZM645.474 51.19L646.264 51.804L646.272 51.7934L645.474 51.19ZM645.474 65.82L644.677 66.4235L644.685 66.4339L645.474 65.82ZM656.954 63.86V62.86H656.251L656.013 63.5218L656.954 63.86ZM669.694 63.86L670.67 64.079L670.944 62.86H669.694V63.86ZM663.184 74.64L662.565 73.8548L663.184 74.64ZM640.714 76.11L640.229 76.9842L640.234 76.9874L640.714 76.11ZM633.784 69.11L632.904 69.5841L632.909 69.5945L633.784 69.11ZM632.334 58.47C632.334 54.5459 633.123 51.1677 634.665 48.3041L632.904 47.3559C631.179 50.5589 630.334 54.2741 630.334 58.47H632.334ZM634.659 48.3145C636.251 45.4396 638.429 43.2437 641.2 41.7042L640.229 39.9558C637.12 41.683 634.677 44.1538 632.909 47.3455L634.659 48.3145ZM641.194 41.7074C644.016 40.1641 647.254 39.38 650.934 39.38V37.38C646.961 37.38 643.386 38.2293 640.234 39.9526L641.194 41.7074ZM650.934 39.38C655.652 39.38 659.506 40.6119 662.566 43.0163L663.802 41.4437C660.329 38.7148 656.016 37.38 650.934 37.38V39.38ZM662.572 43.0205C665.674 45.424 667.734 48.8229 668.718 53.2949L670.671 52.8651C669.601 48.0038 667.321 44.1694 663.797 41.4394L662.572 43.0205ZM669.694 52.08H656.954V54.08H669.694V52.08ZM657.895 52.7418C657.307 51.1043 656.414 49.7986 655.176 48.9081C653.935 48.0159 652.43 47.6 650.724 47.6V49.6C652.098 49.6 653.172 49.9308 654.008 50.5319C654.846 51.1347 655.528 52.0691 656.013 53.4182L657.895 52.7418ZM650.724 47.6C648.222 47.6 646.175 48.6063 644.677 50.5866L646.272 51.7934C647.386 50.3203 648.839 49.6 650.724 49.6V47.6ZM644.685 50.5761C643.189 52.4993 642.514 55.1788 642.514 58.47H644.514C644.514 55.4146 645.146 53.2407 646.264 51.8039L644.685 50.5761ZM642.514 58.47C642.514 61.7638 643.19 64.4588 644.677 66.4234L646.272 65.2166C645.145 63.7279 644.514 61.5229 644.514 58.47H642.514ZM644.685 66.4339C646.188 68.3661 648.233 69.34 650.724 69.34V67.34C648.828 67.34 647.374 66.6339 646.264 65.2061L644.685 66.4339ZM650.724 69.34C652.43 69.34 653.935 68.9241 655.176 68.0319C656.414 67.1414 657.307 65.8357 657.895 64.1982L656.013 63.5218C655.528 64.8709 654.846 65.8053 654.008 66.4081C653.172 67.0092 652.098 67.34 650.724 67.34V69.34ZM656.954 64.86H669.694V62.86H656.954V64.86ZM668.719 63.641C667.736 68.0166 665.678 71.3996 662.565 73.8548L663.803 75.4252C667.317 72.6538 669.599 68.85 670.67 64.079L668.719 63.641ZM662.565 73.8548C659.454 76.3086 655.598 77.56 650.934 77.56V79.56C655.977 79.56 660.288 78.1981 663.803 75.4252L662.565 73.8548ZM650.934 77.56C647.254 77.56 644.016 76.7759 641.194 75.2326L640.234 76.9874C643.386 78.7107 646.961 79.56 650.934 79.56V77.56ZM641.2 75.2358C638.429 73.6963 636.251 71.5004 634.659 68.6255L632.909 69.5945C634.677 72.7862 637.12 75.257 640.229 76.9842L641.2 75.2358ZM634.665 68.6359C633.123 65.7723 632.334 62.3941 632.334 58.47H630.334C630.334 62.6659 631.179 66.3811 632.904 69.5841L634.665 68.6359ZM699.267 67.85H700.267V66.85H699.267V67.85ZM699.267 78V79H700.267V78H699.267ZM683.027 74.85L682.364 75.599L682.373 75.6062L683.027 74.85ZM679.387 48.88H680.387V47.88H679.387V48.88ZM674.627 48.88H673.627V49.88H674.627V48.88ZM674.627 38.94V37.94H673.627V38.94H674.627ZM679.387 38.94V39.94H680.387V38.94H679.387ZM679.387 29.42V28.42H678.387V29.42H679.387ZM691.357 29.42H692.357V28.42H691.357V29.42ZM691.357 38.94H690.357V39.94H691.357V38.94ZM699.197 38.94H700.197V37.94H699.197V38.94ZM699.197 48.88V49.88H700.197V48.88H699.197ZM691.357 48.88V47.88H690.357V48.88H691.357ZM692.197 67.08L691.521 67.8172L692.197 67.08ZM698.267 67.85V78H700.267V67.85H698.267ZM699.267 77H693.177V79H699.267V77ZM693.177 77C688.992 77 685.871 75.9885 683.681 74.0938L682.373 75.6062C685.037 77.9114 688.682 79 693.177 79V77ZM683.69 74.101C681.564 72.2206 680.387 69.0804 680.387 64.42H678.387C678.387 69.3729 679.637 73.1861 682.364 75.599L683.69 74.101ZM680.387 64.42V48.88H678.387V64.42H680.387ZM679.387 47.88H674.627V49.88H679.387V47.88ZM675.627 48.88V38.94H673.627V48.88H675.627ZM674.627 39.94H679.387V37.94H674.627V39.94ZM680.387 38.94V29.42H678.387V38.94H680.387ZM679.387 30.42H691.357V28.42H679.387V30.42ZM690.357 29.42V38.94H692.357V29.42H690.357ZM691.357 39.94H699.197V37.94H691.357V39.94ZM698.197 38.94V48.88H700.197V38.94H698.197ZM699.197 47.88H691.357V49.88H699.197V47.88ZM690.357 48.88V64.56H692.357V48.88H690.357ZM690.357 64.56C690.357 65.858 690.666 67.0329 691.521 67.8172L692.873 66.3428C692.608 66.1004 692.357 65.5954 692.357 64.56H690.357ZM691.521 67.8172C692.359 68.5855 693.606 68.85 694.997 68.85V66.85C693.775 66.85 693.155 66.6012 692.873 66.3428L691.521 67.8172ZM694.997 68.85H699.267V66.85H694.997V68.85ZM733.654 30.05L732.996 30.8026L733.002 30.8076L733.654 30.05ZM733.865 51.4L734.513 52.161L734.514 52.1601L733.865 51.4ZM722.525 55.11L722.515 54.11L721.588 54.1192L721.527 55.0435L722.525 55.11ZM722.174 60.36V61.36H723.11L723.172 60.4265L722.174 60.36ZM711.674 60.36L710.675 60.3869L710.701 61.36H711.674V60.36ZM711.325 47.34V46.34H710.297L710.325 47.3669L711.325 47.34ZM723.714 46.01L723.294 45.1026L723.285 45.1067L723.714 46.01ZM717.625 37.4L718.332 38.1071L718.34 38.0985L718.349 38.0897L717.625 37.4ZM716.224 41.25V42.25H717.224V41.25H716.224ZM704.955 41.25L703.955 41.2828L703.987 42.25H704.955V41.25ZM706.705 33.55L705.836 33.0539L705.832 33.0606L705.829 33.0674L706.705 33.55ZM712.445 28.16L712.905 29.0478L712.911 29.0446L712.445 28.16ZM711.885 76.74L711.19 77.4598L711.203 77.4725L711.217 77.4846L711.885 76.74ZM711.885 67.43L711.203 66.6981L711.197 66.7041L711.19 66.7102L711.885 67.43ZM722.104 67.43L721.41 68.1498L721.417 68.1559L721.423 68.1619L722.104 67.43ZM722.104 76.74L722.785 77.4728L722.786 77.4719L722.104 76.74ZM721.685 27.13C726.5 27.13 730.235 28.3867 732.996 30.8026L734.313 29.2974C731.101 26.4866 726.855 25.13 721.685 25.13V27.13ZM733.002 30.8076C735.773 33.1948 737.205 36.5806 737.205 41.11H739.205C739.205 36.1194 737.603 32.1319 734.307 29.2924L733.002 30.8076ZM737.205 41.11C737.205 45.2538 735.851 48.3865 733.215 50.6399L734.514 52.1601C737.665 49.4668 739.205 45.7395 739.205 41.11H737.205ZM733.216 50.639C730.59 52.8774 727.056 54.0651 722.515 54.11L722.534 56.11C727.42 56.0616 731.446 54.7759 734.513 52.161L733.216 50.639ZM721.527 55.0435L721.177 60.2935L723.172 60.4265L723.522 55.1765L721.527 55.0435ZM722.174 59.36H711.674V61.36H722.174V59.36ZM712.674 60.3331L712.324 47.3131L710.325 47.3669L710.675 60.3869L712.674 60.3331ZM711.325 48.34H715.525V46.34H711.325V48.34ZM715.525 48.34C719.172 48.34 722.078 47.8944 724.144 46.9133L723.285 45.1067C721.618 45.8989 719.064 46.34 715.525 46.34V48.34ZM724.135 46.9173C725.251 46.4002 726.133 45.6481 726.727 44.6483C727.317 43.655 727.585 42.4826 727.585 41.18H725.585C725.585 42.2107 725.374 43.01 725.007 43.6267C724.645 44.2369 724.092 44.7331 723.294 45.1027L724.135 46.9173ZM727.585 41.18C727.585 39.3622 727.087 37.8067 725.979 36.6412L724.529 38.0187C725.196 38.72 725.585 39.7312 725.585 41.18H727.585ZM725.979 36.6412C724.862 35.4646 723.337 34.93 721.544 34.93V36.93C722.925 36.93 723.874 37.3287 724.529 38.0187L725.979 36.6412ZM721.544 34.93C719.661 34.93 718.066 35.4863 716.9 36.7103L718.349 38.0897C719.05 37.3537 720.068 36.93 721.544 36.93V34.93ZM716.917 36.6929C715.754 37.8562 715.224 39.4182 715.224 41.25H717.224C717.224 39.8151 717.628 38.8105 718.332 38.1071L716.917 36.6929ZM716.224 40.25H704.955V42.25H716.224V40.25ZM705.954 41.2172C705.866 38.5335 706.415 36.1476 707.58 34.0326L705.829 33.0674C704.474 35.5258 703.856 38.2732 703.955 41.2828L705.954 41.2172ZM707.573 34.0461C708.776 31.9396 710.542 30.273 712.905 29.0478L711.984 27.2722C709.307 28.6603 707.246 30.5871 705.836 33.0539L707.573 34.0461ZM712.911 29.0446C715.303 27.783 718.216 27.13 721.685 27.13V25.13C717.967 25.13 714.719 25.8303 711.978 27.2754L712.911 29.0446ZM717.065 77.56C715.17 77.56 713.694 77.019 712.552 75.9954L711.217 77.4846C712.782 78.8877 714.759 79.56 717.065 79.56V77.56ZM712.579 76.0202C711.468 74.9492 710.924 73.6693 710.924 72.12H708.924C708.924 74.2107 709.688 76.0108 711.19 77.4598L712.579 76.0202ZM710.924 72.12C710.924 70.5162 711.474 69.2154 712.579 68.1498L711.19 66.7102C709.682 68.1646 708.924 69.9905 708.924 72.12H710.924ZM712.566 68.1619C713.709 67.0978 715.18 66.54 717.065 66.54V64.54C714.749 64.54 712.767 65.2422 711.203 66.6981L712.566 68.1619ZM717.065 66.54C718.896 66.54 720.315 67.0936 721.41 68.1498L722.799 66.7102C721.281 65.2464 719.34 64.54 717.065 64.54V66.54ZM721.423 68.1619C722.571 69.2307 723.135 70.5279 723.135 72.12H725.135C725.135 69.9787 724.345 68.1493 722.786 66.6981L721.423 68.1619ZM723.135 72.12C723.135 73.6574 722.577 74.9338 721.423 76.0081L722.786 77.4719C724.339 76.0262 725.135 74.2226 725.135 72.12H723.135ZM721.424 76.0072C720.33 77.0228 718.906 77.56 717.065 77.56V79.56C719.329 79.56 721.265 78.8839 722.785 77.4728L721.424 76.0072Z" fill="#6A6A6A"/>
<path d="M0 52L144 52" stroke="#8B8B8B" stroke-opacity="0.35" stroke-width="4"/>
</svg>
