<svg width="60" height="60" viewBox="0 0 60 60" fill="none" xmlns="http://www.w3.org/2000/svg">
<path d="M30.3192 42.3258C26.3174 42.3285 22.5778 40.3354 20.349 37.0118C18.1203 33.6884 17.6958 29.472 19.217 25.7712C20.7387 22.0699 24.0059 19.3712 27.9274 18.5762C31.8495 17.7812 35.9091 18.9943 38.7523 21.8107C41.595 24.6272 42.8459 28.6756 42.0875 32.6047C41.3291 36.5339 38.6611 39.8259 34.9744 41.3816C33.5015 42.0054 31.9182 42.3266 30.3186 42.3254L30.3192 42.3258ZM30.3192 19.5807V19.581C27.47 19.5799 24.7368 20.7108 22.7214 22.7252C20.7059 24.7395 19.5734 27.4719 19.5731 30.3215C19.5728 33.1707 20.7044 35.9036 22.7193 37.9186C24.7339 39.9335 27.4668 41.0651 30.3164 41.0648C33.1659 41.0645 35.8982 39.932 37.9127 37.9165C39.927 35.9013 41.058 33.1681 41.0569 30.3187C41.0536 27.4719 39.9215 24.7428 37.9083 22.73C35.8954 20.7168 33.1664 19.5847 30.3195 19.5814L30.3192 19.5807Z" fill="#FFF2BC"/>
<path d="M33.9521 49.9864H26.6896C26.3388 49.9864 26.0545 49.7024 26.0545 49.3517V46.4399C24.6118 46.0638 23.2266 45.4943 21.9365 44.7468L19.8796 46.8037V46.804C19.7604 46.9241 19.5983 46.9917 19.4288 46.9917C19.2597 46.9917 19.0973 46.9241 18.9783 46.804L13.8485 41.6614C13.7283 41.5425 13.6607 41.3801 13.6607 41.2109C13.6607 41.0415 13.7283 40.8794 13.8485 40.7601L15.9053 38.7033H15.9056C15.159 37.411 14.5895 36.0247 14.2125 34.5807H11.2754C10.9246 34.5807 10.6406 34.2967 10.6406 33.946V26.6918C10.6406 26.341 10.9246 26.057 11.2754 26.057H14.1871C14.5641 24.6131 15.1336 23.2267 15.8802 21.9345L13.8234 19.8777H13.8231C13.7029 19.7584 13.6353 19.5963 13.6353 19.4269C13.6353 19.2577 13.7029 19.0953 13.8231 18.9764L18.9783 13.8465C19.0973 13.7264 19.2597 13.6588 19.4288 13.6588C19.5983 13.6588 19.7604 13.7264 19.8796 13.8465L21.9365 15.9034V15.9037C23.2266 15.1562 24.6118 14.5866 26.0545 14.2106V11.2734C26.0545 10.9227 26.3388 10.6387 26.6896 10.6387H33.9521C34.3028 10.6387 34.5871 10.9227 34.5871 11.2734V14.1852C36.0299 14.5613 37.4151 15.1308 38.7052 15.8783L40.7621 13.8214V13.8211C40.8813 13.701 41.0434 13.6334 41.2129 13.6334C41.382 13.6334 41.5444 13.701 41.6634 13.8211L46.7932 18.9764C46.9134 19.0953 46.981 19.2577 46.981 19.4269C46.981 19.5963 46.9134 19.7584 46.7932 19.8777L44.7364 21.9345H44.7361C45.4827 23.2267 46.0522 24.6131 46.4292 26.057H49.3663C49.717 26.057 50.0011 26.341 50.0011 26.6918V33.946C50.0011 34.2967 49.717 34.5807 49.3663 34.5807H46.4418C46.0648 36.0247 45.4954 37.411 44.7488 38.7033L46.8056 40.7601H46.8059C46.9261 40.8794 46.9937 41.0415 46.9937 41.2109C46.9937 41.3801 46.9261 41.5425 46.8059 41.6614L41.6634 46.7913C41.5444 46.9114 41.382 46.979 41.2129 46.979C41.0434 46.979 40.8813 46.9114 40.7621 46.7913L38.7052 44.7344V44.7341C37.4151 45.4816 36.0299 46.0511 34.5871 46.4272V49.3644C34.5801 49.7101 34.2978 49.9867 33.9521 49.9864V49.9864ZM27.3243 48.7166L33.3174 48.7169V45.9404C33.3192 45.646 33.522 45.3907 33.8084 45.3225C35.4569 44.9428 37.0302 44.2907 38.4638 43.3926C38.7144 43.2364 39.0398 43.2751 39.247 43.4856L41.2108 45.4453L45.4432 41.213L43.4876 39.2492C43.2771 39.0422 43.2384 38.7169 43.3946 38.4662C44.2909 37.0318 44.943 35.4585 45.3245 33.8105C45.393 33.5218 45.6498 33.3172 45.9468 33.3154H48.719V27.3265H45.9468C45.6498 27.3247 45.393 27.1201 45.3245 26.8314C44.943 25.1834 44.2909 23.6105 43.3946 22.176C43.2384 21.9253 43.2771 21.6 43.4876 21.3928L45.4473 19.433L41.215 15.2007L39.2512 17.1521C39.0442 17.3626 38.7189 17.4013 38.4683 17.2451C37.0346 16.347 35.4611 15.6949 33.8125 15.3152C33.5262 15.247 33.3233 14.9917 33.3216 14.6973V11.9208H27.3243V14.6973C27.3226 14.9917 27.1198 15.247 26.8334 15.3152C25.1849 15.6949 23.6116 16.347 22.178 17.2451C21.9273 17.4013 21.602 17.3626 21.3947 17.1521L19.4309 15.1924L15.1986 19.4247L17.1583 21.3845C17.3688 21.5914 17.4075 21.9168 17.2513 22.1674C16.3553 23.6018 15.7032 25.1751 15.3214 26.8228C15.2532 27.1118 14.9961 27.3164 14.6994 27.3182H11.9228V33.3113H14.695C14.992 33.313 15.2489 33.5176 15.3174 33.8064C15.6988 35.4543 16.3509 37.0272 17.2472 38.4618C17.4034 38.7124 17.3647 39.0378 17.1542 39.245L15.1945 41.2047L19.4268 45.4371L21.3907 43.4773C21.5976 43.2668 21.9229 43.2282 22.1736 43.384C23.6072 44.2821 25.1807 44.9343 26.8293 45.3139C27.1157 45.3824 27.3185 45.6375 27.3203 45.9321L27.3243 48.7166Z" fill="#FFF2BC"/>
<path d="M25.686 34.3904C25.2201 34.3904 24.7735 34.2053 24.444 33.8761C24.1145 33.5466 23.9297 33.0999 23.9297 32.6341C23.9297 32.1682 24.1145 31.7215 24.444 31.392C24.7734 31.0625 25.2202 30.8774 25.686 30.8774C26.1519 30.8774 26.5985 31.0625 26.9281 31.392C27.2576 31.7215 27.4426 32.1682 27.4426 32.6341C27.4426 33.0999 27.2575 33.5466 26.9281 33.8761C26.5986 34.2053 26.1519 34.3904 25.686 34.3904ZM25.686 32.1514C25.4888 32.1517 25.3111 32.2707 25.2361 32.4531C25.1608 32.6353 25.2033 32.8452 25.3433 32.9839C25.4835 33.1227 25.6934 33.1634 25.8753 33.0867C26.0571 33.0099 26.1746 32.8313 26.1728 32.6341C26.1728 32.5054 26.1215 32.382 26.03 32.2913C25.9384 32.2007 25.8147 32.1505 25.686 32.1514L25.686 32.1514Z" fill="#FFF2BC"/>
<path d="M34.9756 29.7558C34.5091 29.7569 34.0615 29.5727 33.7312 29.2435C33.4008 28.9141 33.2151 28.4671 33.2148 28.001C33.2145 27.5345 33.3994 27.0872 33.7291 26.7575C34.0589 26.4277 34.5064 26.2426 34.9726 26.2429C35.4391 26.2435 35.886 26.4292 36.2152 26.7596C36.5444 27.0896 36.7289 27.5375 36.7277 28.0036C36.7265 28.468 36.5414 28.9132 36.2131 29.2415C35.8848 29.5698 35.4399 29.7549 34.9755 29.7558L34.9756 29.7558ZM34.9756 27.5168V27.5171C34.7784 27.5153 34.5995 27.6328 34.5227 27.8144C34.4462 27.9962 34.4867 28.2061 34.6254 28.3464C34.7645 28.4863 34.9741 28.5288 35.1565 28.4538C35.339 28.3785 35.458 28.2008 35.458 28.0036C35.458 27.7364 35.2427 27.5191 34.9756 27.5171V27.5168Z" fill="#FFF2BC"/>
<path d="M30.3186 32.0708C29.8539 32.0708 29.4081 31.8863 29.0795 31.5577C28.7509 31.2291 28.5664 30.7833 28.5664 30.3186C28.5664 29.8539 28.7509 29.4081 29.0795 29.0795C29.4081 28.7509 29.8539 28.5664 30.3186 28.5664C30.7833 28.5664 31.2291 28.7509 31.5577 29.0795C31.8863 29.4081 32.0708 29.8539 32.0708 30.3186C32.0708 30.7833 31.8863 31.2291 31.5577 31.5577C31.2291 31.8863 30.7833 32.0708 30.3186 32.0708ZM30.3186 29.8363C30.1235 29.8363 29.9475 29.9538 29.8728 30.1342C29.7981 30.3142 29.8395 30.5218 29.9773 30.66C30.1155 30.7978 30.323 30.8392 30.5031 30.7645C30.6835 30.6898 30.801 30.5138 30.801 30.3187C30.801 30.1908 30.7502 30.068 30.6599 29.9774C30.5693 29.8871 30.4464 29.8363 30.3186 29.8363Z" fill="#FFF2BC"/>
<path d="M30.3222 29.8368C29.9715 29.8368 29.6875 29.5525 29.6875 29.2018V23.8777C29.6875 23.527 29.9715 23.2427 30.3222 23.2427C30.673 23.2427 30.957 23.527 30.957 23.8777V29.2018C30.957 29.5525 30.673 29.8368 30.3222 29.8368Z" fill="#FFF2BC"/>
<path d="M34.9749 27.5173C34.6241 27.5173 34.3398 27.233 34.3398 26.8823V23.8772V23.8775C34.3398 23.5267 34.6241 23.2424 34.9749 23.2424C35.3253 23.2424 35.6096 23.5267 35.6096 23.8775V26.8826V26.8823C35.6096 27.233 35.3253 27.5173 34.9749 27.5173Z" fill="#FFF2BC"/>
<path d="M25.6855 37.3952C25.3348 37.3952 25.0508 37.1109 25.0508 36.7602V33.7551V33.7554C25.0508 33.4047 25.3348 33.1204 25.6855 33.1204C26.0362 33.1204 26.3202 33.4047 26.3202 33.7554V36.7605V36.7602C26.3202 37.1109 26.0362 37.3952 25.6855 37.3952Z" fill="#FFF2BC"/>
<path d="M30.3222 37.3951C29.9715 37.3951 29.6875 37.1108 29.6875 36.7601V31.4361C29.6875 31.0853 29.9715 30.801 30.3222 30.801C30.673 30.801 30.957 31.0853 30.957 31.4361V36.7601C30.957 37.1108 30.673 37.3951 30.3222 37.3951Z" fill="#FFF2BC"/>
<path d="M34.9749 37.3953C34.6241 37.3953 34.3398 37.111 34.3398 36.7603V29.1421V29.1424C34.3398 28.7916 34.6241 28.5073 34.9749 28.5073C35.3253 28.5073 35.6096 28.7916 35.6096 29.1424V36.7606V36.7603C35.6096 37.111 35.3253 37.3953 34.9749 37.3953Z" fill="#FFF2BC"/>
<path d="M25.6855 32.1516C25.3348 32.1516 25.0508 31.8676 25.0508 31.5169V23.8986C25.0508 23.5482 25.3348 23.2639 25.6855 23.2639C26.0362 23.2639 26.3202 23.5482 26.3202 23.8986V31.5169C26.3202 31.8676 26.0362 32.1516 25.6855 32.1516Z" fill="#FFF2BC"/>
</svg>
