<svg width="60" height="60" viewBox="0 0 60 60" fill="none" xmlns="http://www.w3.org/2000/svg">
<path d="M39.8718 17.374V13.9268C39.8718 13.1029 38.8753 12.6899 38.2927 13.2729L32.2011 19.3645C31.8398 19.7258 31.8398 20.3113 32.2011 20.6726L38.2927 26.7642C38.8753 27.3468 39.8718 26.9342 39.8718 26.1103V22.6711C43.7262 22.7182 46.8479 25.8648 46.8479 29.7301C46.8479 33.6251 43.6798 36.7936 39.7848 36.7936C35.8898 36.7936 32.7216 33.6251 32.7216 29.7301C32.7216 22.914 27.1765 17.3697 20.3612 17.3697C13.5454 17.3697 8 22.9139 8 29.7301C8 36.4975 13.4677 42.0046 20.2167 42.0831V45.5335C20.2167 46.3574 21.2128 46.7704 21.7954 46.1874L27.887 40.0958C28.2483 39.7345 28.2483 39.149 27.887 38.7877L21.7954 32.6961C21.2128 32.1135 20.2167 32.5261 20.2167 33.35V36.7857C16.3887 36.7079 13.298 33.5756 13.298 29.7296C13.298 25.8349 16.4662 22.6661 20.3612 22.6661C24.2559 22.6661 27.4244 25.8346 27.4244 29.7296C27.4244 36.5457 32.9695 42.09 39.7856 42.09C46.601 42.09 52.146 36.5459 52.146 29.7296C52.146 22.9432 46.6477 17.4213 39.8723 17.3742L39.8718 17.374Z" fill="#4095C5"/>
</svg>
