<svg width="30" height="30" viewBox="0 0 30 30" fill="none" xmlns="http://www.w3.org/2000/svg">
<path d="M26.3944 11.6074C26.9221 11.6074 27.3538 11.1757 27.3538 10.648C27.3538 10.1204 26.9221 9.68863 26.3944 9.68863H9.36501C9.33623 9.68863 9.30265 9.68863 9.27387 9.69343L8.1082 6.62814C8.1034 6.61855 8.1034 6.61375 8.0986 6.60416C8.0938 6.58497 8.08421 6.57058 8.07462 6.55139C8.06982 6.537 8.06023 6.5274 8.05543 6.51301C8.04583 6.49862 8.04104 6.48423 8.03144 6.46984C8.02185 6.45545 8.01705 6.44586 8.00746 6.43146C7.99786 6.41707 7.98827 6.40268 7.97868 6.39309C7.96908 6.3787 7.95949 6.3691 7.94989 6.35471C7.9403 6.34512 7.93071 6.33073 7.92111 6.32113C7.91152 6.30674 7.89713 6.29715 7.88753 6.28755C7.87794 6.27796 7.86834 6.26837 7.85395 6.25877C7.83956 6.24918 7.82997 6.23479 7.81558 6.22519C7.80598 6.2156 7.79639 6.20601 7.782 6.20121C7.76761 6.19161 7.75322 6.18202 7.73883 6.16763C7.73403 6.16283 7.72443 6.15804 7.71964 6.15324L4.46247 4.14329C4.01155 3.86507 3.42152 4.00418 3.14329 4.4551C2.86507 4.90602 3.00418 5.49605 3.4551 5.77427L6.42924 7.61633L10.6218 18.6446C10.6842 19.1148 11.0871 19.4745 11.5716 19.4745H24.3317C24.8593 19.4745 25.2911 19.0428 25.2911 18.5151C25.2911 17.9875 24.8593 17.5557 24.3317 17.5557H12.2576L11.4901 15.541H25.4782C26.0058 15.541 26.4376 15.1093 26.4376 14.5816C26.4376 14.0539 26.0058 13.6222 25.4782 13.6222H10.7657L9.99822 11.6074H26.3944Z" fill="#D9D9D9"/>
<path fill-rule="evenodd" clip-rule="evenodd" d="M14.6965 26.2212C15.9884 26.2212 17.0356 25.1739 17.0356 23.8821C17.0356 22.5902 15.9884 21.543 14.6965 21.543C13.4047 21.543 12.3574 22.5902 12.3574 23.8821C12.3574 25.1739 13.4047 26.2212 14.6965 26.2212ZM14.6965 24.4669C15.0195 24.4669 15.2813 24.205 15.2813 23.8821C15.2813 23.5591 15.0195 23.2973 14.6965 23.2973C14.3736 23.2973 14.1118 23.5591 14.1118 23.8821C14.1118 24.205 14.3736 24.4669 14.6965 24.4669Z" fill="#FFC400"/>
<path fill-rule="evenodd" clip-rule="evenodd" d="M21.1282 26.2212C22.42 26.2212 23.4673 25.1739 23.4673 23.8821C23.4673 22.5902 22.42 21.543 21.1282 21.543C19.8363 21.543 18.7891 22.5902 18.7891 23.8821C18.7891 25.1739 19.8363 26.2212 21.1282 26.2212ZM21.1282 24.4669C21.4511 24.4669 21.713 24.205 21.713 23.8821C21.713 23.5591 21.4511 23.2973 21.1282 23.2973C20.8052 23.2973 20.5434 23.5591 20.5434 23.8821C20.5434 24.205 20.8052 24.4669 21.1282 24.4669Z" fill="#FFC400"/>
</svg>
