<svg width="30" height="30" viewBox="0 0 30 30" fill="none" xmlns="http://www.w3.org/2000/svg">
<path d="M15.1732 5.79083L25.9732 9.87079C26.1506 9.9411 26.2764 10.1261 26.2764 10.3171C26.2764 10.5081 26.1508 10.6929 25.9732 10.7632L24.6008 11.2807V13.8682C24.7469 14 24.8408 14.1885 24.8408 14.4007C24.8408 14.7983 24.5184 15.1208 24.1208 15.1208C23.7232 15.1208 23.4008 14.7985 23.4008 14.4007C23.4008 14.1885 23.4947 14 23.6408 13.8682V11.6406L21.9833 12.2706L22.2008 15.3232C22.2366 15.8247 21.92 16.2113 21.5258 16.5307C21.1315 16.8501 20.6028 17.1282 19.9583 17.3781C18.6692 17.8783 16.9223 18.2406 15.0006 18.2406C13.0789 18.2406 11.3321 17.8783 10.0429 17.3781C9.39834 17.128 8.86965 16.8499 8.47541 16.5307C8.08116 16.2113 7.76458 15.8247 7.80041 15.3232L8.01788 12.2706L4.02779 10.763C3.85034 10.6927 3.72461 10.5077 3.72461 10.3169C3.72461 10.1259 3.85017 9.94105 4.02779 9.87057L14.8278 5.79061C14.9698 5.73235 15.0921 5.76751 15.1728 5.79061L15.1732 5.79083ZM15.0008 6.75074L5.55076 10.3208L15.0008 13.8833L24.4508 10.3208L15.0008 6.75074ZM21.0458 12.6235L15.1735 14.8435C15.0637 14.8857 14.9383 14.8857 14.8284 14.8435L8.95616 12.6235L8.76112 15.3909C8.76112 15.3909 8.79879 15.5563 9.07619 15.781C9.35342 16.0056 9.80978 16.2613 10.3887 16.4859C11.5468 16.9353 13.1999 17.281 15.001 17.281C16.8021 17.281 18.4555 16.9353 19.6133 16.4859C20.1922 16.2613 20.6485 16.0055 20.9258 15.781C21.203 15.5563 21.2407 15.3906 21.2408 15.3909L21.0458 12.6235Z" fill="#D9D9D9"/>
<path d="M15 8L8.5 10.5L15 12.5L22 10.5L15 8Z" stroke="#FFC400" stroke-width="0.8" stroke-linejoin="round"/>
</svg>
