<svg xmlns="http://www.w3.org/2000/svg" width="198" height="198" viewBox="0 0 198 198">
  <g id="Flexibility" transform="translate(-3023.467 -2706.262)">
    <path id="Path_4388" data-name="Path 4388" d="M3201.147,2805.472c-1.2,1.859-2.287,3.805-3.631,5.552-1.4,1.818-3.04,3.45-4.588,5.152s-3.028,2.01-4.2.9c-1.144-1.084-.966-2.508.514-4.152q2.8-3.116,5.6-6.234c1.849-2.06,1.869-3.387.031-5.436q-8.284-9.235-16.585-18.455c-.183-.2-.377-.4-.557-.6a3.041,3.041,0,0,0-3.567-.931,2.963,2.963,0,0,0-2.015,3.066c.013,3.122,0,6.245,0,9.367-.006,2.966-.688,3.641-3.7,3.643-8.71,0-17.42-.025-26.129.007a31.192,31.192,0,0,0-30.679,24.574,46.429,46.429,0,0,0-.757,6.838,1.914,1.914,0,0,0,.705,1.462,37.71,37.71,0,0,1,11.06,11.31c.051.081.173.118.424.281.041-.544.1-1,.1-1.448.016-4.108-.067-8.219.049-12.324a18.64,18.64,0,0,1,18.275-18.3c9.254-.188,18.514-.072,27.771-.061,2,0,2.851.9,2.871,2.969.034,3.506.041,7.012,0,10.518-.02,1.646.481,2.922,2.112,3.506,1.558.558,2.749-.083,3.771-1.257q1.833-2.108,3.732-4.158c1.131-1.221,2.568-1.4,3.635-.519,1.175.976,1.233,2.4.054,3.764-1.435,1.656-2.871,3.317-4.423,4.86a8.04,8.04,0,0,1-13.766-5.44c-.077-2.517-.022-5.039-.035-7.559,0-.534-.045-1.067-.071-1.662-.552-.041-.98-.1-1.407-.1-7.724-.005-15.448-.047-23.172.008-8.539.062-14.434,5.971-14.448,14.521q-.049,30.4-.011,60.805c0,3.439-.559,4-4,4q-7.478,0-14.955,0c-2.434,0-3.239-.8-3.242-3.266-.011-9.915.032-19.83-.019-29.745a13.9,13.9,0,0,0-12.008-14.213,12.034,12.034,0,0,0-1.962-.145q-11.915-.016-23.829-.007c-.371,0-.742.054-1.308.1,0,3.058.062,6.056-.014,9.052-.129,5.1-4.152,8.689-9.149,7.884a8.707,8.707,0,0,1-4.674-2.4c-6.175-6.6-12.2-13.34-18.174-20.117a7.708,7.708,0,0,1,.052-10.38q8.872-10.032,17.91-19.917a8.057,8.057,0,0,1,14.047,5.46c.039,2.625.007,5.251.007,8.1.719.034,1.347.089,1.975.09,6.19.007,12.381.073,18.57-.015,6.273-.088,12.48.142,18.569,2.851V2825.1q0-17.748,0-35.5c0-2.495.807-3.73,2.445-3.764,1.662-.034,2.484,1.175,2.485,3.676q0,9.285,0,18.57v2.022c.487-.612.753-.9.966-1.221a35.46,35.46,0,0,1,10.234-10.3,2.342,2.342,0,0,0,1.162-2.276q-.049-18.406-.02-36.812c0-2.982.667-3.634,3.687-3.636,3.177,0,6.355-.023,9.531.008a3.2,3.2,0,0,0,2.194-5.778q-9.532-8.57-19.065-17.136c-1.815-1.625-3.248-1.6-5.076.039q-9.482,8.5-18.945,17.025c-1.149,1.032-1.806,2.195-1.2,3.774.625,1.631,1.892,2.1,3.527,2.08,3.231-.042,6.463-.018,9.7-.01,2.479.007,3.3.787,3.305,3.192q.019,9.367,0,18.734c0,2.03-.816,3.043-2.384,3.07-1.617.028-2.528-1.059-2.535-3.128-.017-4.985-.006-9.97-.006-14.955v-1.986c-2.919,0-5.7.028-8.47-.007a7.976,7.976,0,0,1-8.212-7.173,7.249,7.249,0,0,1,2.313-6.563c6.754-6.168,13.531-12.312,20.4-18.353a7.6,7.6,0,0,1,10.121-.02q10.314,9.048,20.392,18.361a7.387,7.387,0,0,1,1.758,8.762,7.6,7.6,0,0,1-7.275,4.969c-2.842.075-5.687.015-8.677.015v34.149c2.608-.658,5.208-1.468,7.867-1.939a41.6,41.6,0,0,1,6.861-.563c7.395-.067,14.79-.025,22.186-.025h2.049c0-.7,0-1.279,0-1.856,0-2.082-.03-4.164.012-6.244a8.047,8.047,0,0,1,14.132-5.423c3.708,4.031,7.343,8.13,11.007,12.2,1.429,1.588,2.945,3.108,4.26,4.786,1.6,2.035,3.022,4.2,4.522,6.315Zm-90.313,83.433h12.241c.037-.512.094-.938.094-1.363,0-8.981.023-17.962-.017-26.943a28.68,28.68,0,0,0-.418-4.9c-2.833-15.809-15.407-26.312-31.487-26.339-8.6-.014-17.2,0-25.793-.005-2.849,0-3.582-.754-3.588-3.63-.007-3.067-.022-6.134,0-9.2a3.106,3.106,0,0,0-1.971-3.266,3.156,3.156,0,0,0-3.8,1.089q-8.61,9.6-17.234,19.187c-1.486,1.661-1.471,3.129.038,4.813,5.7,6.363,11.432,12.7,17.122,19.066a3.289,3.289,0,0,0,3.788,1.209c1.63-.58,2.087-1.9,2.066-3.537-.045-3.395-.025-6.791-.008-10.185.012-2.444.835-3.278,3.241-3.28,8.762-.008,17.524-.036,26.286.005,11.276.054,19.4,8.246,19.433,19.552.021,8,0,15.991,0,23.986Z" transform="translate(5.18 -4.996)" stroke="#000" stroke-width="2"/>
    <rect id="Rectangle_9614" data-name="Rectangle 9614" width="198" height="198" transform="translate(3023.467 2706.262)" fill="#fff" opacity="0"/>
  </g>
</svg>
