<svg width="60" height="60" viewBox="0 0 60 60" fill="none" xmlns="http://www.w3.org/2000/svg">
<path d="M33.889 8.75C33.6312 8.75005 33.3839 8.8525 33.2016 9.03483L12.7846 29.4515C12.6024 29.6338 12.5 29.8811 12.5 30.1389C12.5 30.3967 12.6024 30.6439 12.7846 30.8263L18.6181 36.6596C18.8004 36.8419 19.0477 36.9443 19.3055 36.9443C19.5633 36.9443 19.8105 36.8419 19.9929 36.6596L46.2432 10.4096C46.3791 10.2736 46.4716 10.1004 46.5091 9.91185C46.5466 9.7233 46.5273 9.52786 46.4538 9.35025C46.3802 9.17264 46.2556 9.02082 46.0958 8.91398C45.936 8.80714 45.7481 8.75008 45.5558 8.75H33.889ZM34.2916 10.6944H43.2088L19.3055 34.5974L14.8468 30.1389L34.2916 10.6944ZM34.8612 27.2222C34.6034 27.2223 34.3561 27.3247 34.1738 27.5071L22.507 39.1737C22.3247 39.3561 22.2224 39.6033 22.2224 39.8611C22.2224 40.1189 22.3247 40.3662 22.507 40.5485L28.3404 46.3818L34.1738 52.2152C34.3561 52.3975 34.6034 52.5 34.8612 52.5H46.528C46.7203 52.4999 46.9082 52.4429 47.068 52.336C47.2279 52.2292 47.3524 52.0774 47.426 51.8998C47.4996 51.7221 47.5188 51.5267 47.4813 51.3381C47.4439 51.1496 47.3513 50.9764 47.2155 50.8404L36.236 39.8611L47.2155 28.8818C47.3513 28.7458 47.4439 28.5726 47.4813 28.3841C47.5188 28.1955 47.4996 28.0001 47.426 27.8225C47.3524 27.6449 47.2279 27.493 47.068 27.3862C46.9082 27.2794 46.7203 27.2223 46.528 27.2222H34.8612ZM35.2638 29.1667H44.181L29.0278 44.3197L24.5692 39.8611L35.2638 29.1667ZM34.8612 41.2359L44.181 50.5556H35.2638L30.4026 45.6944L34.8612 41.2359Z" fill="white"/>
</svg>
