<svg width="30" height="30" viewBox="0 0 30 30" fill="none" xmlns="http://www.w3.org/2000/svg">
<path d="M25.625 15H22.6036C22.5372 15 22.4737 14.9737 22.4268 14.9268L20.8703 13.3703C20.7496 13.2496 20.5462 13.2826 20.4699 13.4352L18.9051 16.5648C18.8288 16.7174 18.6254 16.7504 18.5047 16.6297L17.0837 15.2087C16.9744 15.0994 16.7933 15.1144 16.7035 15.2401L14.0723 18.9237C13.9472 19.099 13.6737 19.0445 13.6253 18.8346L12.0213 11.8838C11.9698 11.6607 11.6703 11.6184 11.5591 11.8186L8.93723 16.538C8.84926 16.6963 8.62736 16.7115 8.51869 16.5666L7.04795 14.6056C6.95667 14.4839 6.77875 14.4712 6.67117 14.5788L5.69822 15.5518C5.65134 15.5987 5.58775 15.625 5.52145 15.625H4.375" stroke="#FFC400" stroke-linecap="round"/>
<path d="M15 26.1194C8.75 23.75 3.75 18.2838 3.75 11.6735C3.75 7.98455 6.55125 5 10.005 5C12.0525 5 13.8638 6.05056 15 7.67416C16.1362 6.05056 17.9588 5 19.995 5C23.4488 5 26.25 7.98455 26.25 11.6735C26.25 17.2641 21.25 23.75 15 26.1194Z" stroke="#D9D9D9" stroke-linecap="round" stroke-linejoin="round"/>
</svg>
