<svg xmlns="http://www.w3.org/2000/svg" width="198" height="198" viewBox="0 0 198 198">
  <g id="icn_dedicated_team" transform="translate(-234 -7807)">
    <rect id="Rectangle_9614" data-name="Rectangle 9614" width="198" height="198" transform="translate(234 7807)" fill="#fff" opacity="0"/>
    <g id="Group_4122" data-name="Group 4122" transform="translate(161.988 7746.037)">
      <path id="Path_5155" data-name="Path 5155" d="M168.805,254.126c-1.374-.48-2.8-.849-4.114-1.46a14.745,14.745,0,0,1-8.1-16.807c.109-.469.2-.943.319-1.529q-5.1-2.953-10.163-5.886-15.822-9.137-31.634-18.294a1.835,1.835,0,0,0-2.649.268,14.607,14.607,0,0,1-16.7,2.507,14.8,14.8,0,0,1,2.505-27.517,1.629,1.629,0,0,0,1.374-1.914q-.043-23.531-.006-47.061c0-.95-.12-1.5-1.227-1.844-6.248-1.912-10.436-6.99-10.849-12.959a14.869,14.869,0,0,1,8.573-14.767c5.68-2.637,11.959-1.492,16.788,3.061.218.2.449.4.785.692l43.19-24.94c-1.76-7.145-.144-13.046,5.907-17.282a14.289,14.289,0,0,1,16.414-.005c6.059,4.225,7.669,10.134,5.915,17.277l43.166,24.928c.537-.468,1.074-.94,1.616-1.406a14.815,14.815,0,1,1,14.237,25.246,2.04,2.04,0,0,0-1.781,2.364q.084,23.254.01,46.51c0,1.218.259,1.775,1.551,2.154a14.808,14.808,0,1,1-14.385,24.978c-.731-.675-1.219-1.1-2.31-.468q-20.794,12.1-41.646,24.09a3.558,3.558,0,0,0-.477.426,15.2,15.2,0,0,1,.122,9,14.717,14.717,0,0,1-10.647,10.208c-.46.129-.912.289-1.369.435ZM182.883,90.743c-2.8,1.527-5.175,2.993-7.7,4.124-1.1.494-1.463.959-1.436,2.1.067,2.878.035,5.759.006,8.638-.016,1.584-.67,2.743-2.373,2.987-1.792.257-3.058-.909-3.1-2.975-.066-3,.019-6.005-.068-9.005a2.056,2.056,0,0,0-.879-1.487c-2.579-1.436-5.221-2.758-7.842-4.118.175-.457.1-.467.055-.439Q138.463,102.71,117.41,114.9a2.334,2.334,0,0,0-.676,1.735c-.048,2.361.25,4.751-.024,7.078a1.978,1.978,0,0,0,1.157,2.426c2.577,1.41,5.171,2.813,7.6,4.459a3.532,3.532,0,0,1,1.312,2.712,3.177,3.177,0,0,1-1.83,2.161,3.849,3.849,0,0,1-2.717-.524c-2.9-1.551-5.725-3.246-8.075-4.6-2.653,1.5-4.814,3.05-7.213,3.972a2.37,2.37,0,0,0-1.832,2.736c.058,7.72.028,15.44.028,23.16,0,7.6.032,15.2-.029,22.793a2.273,2.273,0,0,0,1.759,2.595c2.111.84,3.947,2.354,5.956,3.482a2.271,2.271,0,0,0,1.813.217c2.435-1.283,4.791-2.715,7.179-4.088,2.308-1.327,3.836-1.164,4.759.494.891,1.6.264,2.966-1.95,4.246-2.278,1.318-4.533,2.678-6.847,3.931-1.01.547-1.223,1.089-1.072,2.3a26.532,26.532,0,0,1,.046,6.718,2.087,2.087,0,0,0,1.169,2.578q14.189,8.107,28.325,16.307l13.494,7.785a16.661,16.661,0,0,1,7.5-4.7,2.044,2.044,0,0,0,.969-1.579c.1-2.938.043-5.881.054-8.822a2.754,2.754,0,0,1,1.932-2.993c1.872-.573,3.486.645,3.547,2.8.085,3-.009,6,.072,9a2.08,2.08,0,0,0,.8,1.539c2.627,1.461,5.321,2.8,8.357,4.371,13.559-7.827,27.66-15.955,41.723-24.149.407-.237.559-1.164.575-1.775.063-2.42-.107-4.853.086-7.26.083-1.03-.051-1.542-.939-2.032-2.52-1.388-5.007-2.835-7.483-4.3-1.8-1.063-2.3-2.49-1.488-3.96.849-1.535,2.393-1.835,4.275-.772,2.558,1.445,5.069,2.975,7.663,4.351a2.287,2.287,0,0,0,1.816-.2c2.181-1.183,4.251-2.58,6.471-3.678.835-.413,1.237-.692,1.236-1.66-.026-15.869-.014-31.739-.044-47.608,0-.457-.291-1.243-.589-1.319a16.545,16.545,0,0,1-7.9-4.774c-3,1.723-5.845,3.388-8.72,5.006-1.8,1.011-3.284.728-4.165-.7-.906-1.471-.374-3,1.49-4.1,2.373-1.4,4.751-2.79,7.168-4.11a1.944,1.944,0,0,0,1.16-2.425,25.273,25.273,0,0,1-.029-6.718c.161-1.263,0-1.823-1.094-2.442-7.395-4.206-14.75-8.481-22.117-12.736C195.5,98.033,188.934,94.239,182.883,90.743ZM180.3,80.681a9.292,9.292,0,1,0-9.311,9.38A9.283,9.283,0,0,0,180.3,80.681Zm59.4,128.255a9.313,9.313,0,0,0,.029-18.626,9.313,9.313,0,1,0-.029,18.626Zm-59.4,30.372a9.292,9.292,0,1,0-9.374,9.3A9.316,9.316,0,0,0,180.3,239.308Zm-77.929-30.371a9.314,9.314,0,1,0-9.331-9.323A9.349,9.349,0,0,0,102.373,208.937Zm-.1-97.9a9.3,9.3,0,0,0,.058,18.609,9.305,9.305,0,1,0-.058-18.609Zm146.706,9.282a9.328,9.328,0,0,0-18.656-.075,9.328,9.328,0,1,0,18.656.075Z" transform="translate(0)"/>
      <path id="Path_5156" data-name="Path 5156" d="M180.836,195.5a17.69,17.69,0,0,1-4.66-9.335,17.061,17.061,0,0,1,32.188-10.193c.681,1.431,1.506,1.388,2.853,1.618,3.39.577,4.654-1.193,6.288-3.725a16.845,16.845,0,0,1,24.375-3.992,17.07,17.07,0,0,1,2.718,24.621c-.275.326-.557.645-.955,1.105.534.367,1.021.694,1.5,1.032a24.429,24.429,0,0,1,10.777,19.331c.136,2.14-.82,3.478-2.5,3.631-1.742.159-2.828-1.037-3-3.335-.538-7.363-3.969-12.88-10.56-16.28a5.75,5.75,0,0,0-2.913-.245c-2.363.186-4.712.608-7.077.712a1.971,1.971,0,0,0-2.1,1.206c-.866,1.736-2.011,3.333-3.147,5.161.355.249.887.613,1.41.991a24.138,24.138,0,0,1,10.577,19.039c.14,2.527-.766,3.777-2.616,3.819-1.826.042-2.715-1.129-2.9-3.68a18.4,18.4,0,0,0-10.482-15.911,4.287,4.287,0,0,0-2.891-.242,19.064,19.064,0,0,1-11.039-.059,3.555,3.555,0,0,0-2.385.11c-6.553,3.255-10.227,8.527-10.827,15.869-.04.488-.03.984-.116,1.463a2.674,2.674,0,0,1-2.917,2.446c-1.553-.105-2.527-1.217-2.5-3.031a23.676,23.676,0,0,1,7.956-17.727c1.25-1.155,2.684-2.111,3.978-3.115-1.141-1.928-2.274-3.913-3.5-5.839-.19-.3-.794-.41-1.225-.467-2.706-.36-5.412-.727-8.129-.98a4.269,4.269,0,0,0-2.246.419,18.766,18.766,0,0,0-10.57,15.711c-.036.366-.04.734-.074,1.1-.171,1.854-1.295,2.967-2.89,2.87a2.655,2.655,0,0,1-2.551-3.18,47.525,47.525,0,0,1,2.008-9.075,22.257,22.257,0,0,1,8.821-10.772c.353-.24.719-.462,1.067-.709A1.551,1.551,0,0,0,180.836,195.5Zm31.494,10.619a11.551,11.551,0,0,0,11.554-11.558,11.6,11.6,0,1,0-23.192.083A11.551,11.551,0,0,0,212.33,206.114Zm-8.473-26.5a11.4,11.4,0,0,0-14.251-7.2,11.565,11.565,0,0,0-7.647,14.436c1.762,5.708,7.9,9.382,13.165,7.792A17.427,17.427,0,0,1,203.856,179.618Zm25.619,15.2c6.913.909,12.388-3.1,13.519-9.677a11.63,11.63,0,0,0-8.823-12.96c-5.88-1.3-12.032,2.087-13.4,7.471A17.466,17.466,0,0,1,229.475,194.821Z" transform="translate(-41.277 -51.153)"/>
      <path id="Path_5157" data-name="Path 5157" d="M230.875,337.572q11.031,0,22.061,0c2.361,0,3.562.94,3.558,2.736s-1.238,2.771-3.561,2.773q-22.244.011-44.489,0c-2.791,0-4.361-1.94-3.281-4.014.652-1.253,1.781-1.514,3.1-1.51C215.8,337.585,223.338,337.572,230.875,337.572Z" transform="translate(-59.68 -138.262)"/>
      <path id="Path_5158" data-name="Path 5158" d="M289.024,321c-1.345,0-2.694.056-4.036-.017a2.712,2.712,0,1,1-.024-5.423c2.748-.1,5.5-.1,8.252.01a2.547,2.547,0,0,1,2.648,2.692,2.606,2.606,0,0,1-2.806,2.727C291.718,321.056,290.369,321,289.024,321Z" transform="translate(-99.055 -127.034)"/>
      <path id="Path_5159" data-name="Path 5159" d="M227.1,315.646a2.712,2.712,0,1,1,.064,5.421,2.711,2.711,0,1,1-.064-5.421Z" transform="translate(-69.649 -127.113)"/>
      <path id="Path_5160" data-name="Path 5160" d="M249.353,318.4a2.767,2.767,0,0,1-2.911,2.658,2.711,2.711,0,1,1,.277-5.414A2.768,2.768,0,0,1,249.353,318.4Z" transform="translate(-79.542 -127.111)"/>
      <path id="Path_5161" data-name="Path 5161" d="M207.641,315.646a2.712,2.712,0,1,1,.094,5.422,2.712,2.712,0,1,1-.094-5.422Z" transform="translate(-59.754 -127.113)"/>
    </g>
  </g>
</svg>
