<svg xmlns="http://www.w3.org/2000/svg" width="170.445" height="170" viewBox="0 0 170.445 170">
  <g id="icn_Swift" transform="translate(-1501.555 -1450)">
    <g id="Rectangle_9622" data-name="Rectangle 9622" transform="translate(1502 1450)" fill="#fff" stroke="#707070" stroke-width="1" opacity="0">
      <rect width="170" height="170" stroke="none"/>
      <rect x="0.5" y="0.5" width="169" height="169" fill="none"/>
    </g>
    <path id="icn_Swift-2" data-name="icn_Swift" d="M-743.43-1501.463c-.551,2.253-1.1,4.5-1.726,7.056-1.176-1.449-2.045-2.635-3.029-3.715-4.258-4.668-9.165-8.261-15.6-9.287a22.05,22.05,0,0,0-12.946,2.1c-4.955,2.285-9.818,4.792-14.863,6.86-8.764,3.59-17.995,4.387-27.373,3.917a97.483,97.483,0,0,1-36.108-8.64,107.268,107.268,0,0,1-41.068-33.133,38.179,38.179,0,0,1-3.707-5.755c.658.4,1.318.8,1.974,1.2a112.181,112.181,0,0,0,33.631,14.361c15.494,3.6,30.793,3.242,45.757-2.577,2.307-.9,4.5-2.079,6.955-3.224-2.264-1.612-4.288-2.952-6.2-4.432-10.594-8.189-19.827-17.814-28.855-27.638-13.175-14.338-25.711-29.227-37.823-44.473-.188-.238-.373-.48-.835-1.076,10.246,8.065,20.067,15.952,30.057,23.616a283.548,283.548,0,0,0,31.166,21.274c-15.35-16.065-27.968-34.252-41.049-52.088,23.443,21.656,49.006,40.583,75.124,59.254.52-1.542,1.01-2.857,1.407-4.2,4.32-14.556,3.332-28.959-1.346-43.23a92.792,92.792,0,0,0-12.857-25.281.731.731,0,0,1-.125-.649c1.53,1.061,3.081,2.1,4.589,3.188,11.655,8.45,22.183,18.059,30.433,29.958,9.163,13.217,14.5,27.714,14.263,43.971a53.347,53.347,0,0,1-3.053,17.876,1.821,1.821,0,0,0,.391,2.044c5.059,6.3,9.224,13.108,11.423,20.96.6,2.143.942,4.359,1.4,6.542Z" transform="translate(2408.896 3098.31)" fill="none" stroke="#000" stroke-width="6" fill-rule="evenodd"/>
  </g>
</svg>
