<svg xmlns="http://www.w3.org/2000/svg" width="198" height="198" viewBox="0 0 198 198">
  <g id="icn_Maintenance" transform="translate(-2532.271 3061.689)">
    <g id="Group_4126" data-name="Group 4126" transform="translate(-0.005 0.001)">
      <path id="Path_4769" data-name="Path 4769" d="M2698.939-3037.69c.318.111.632.234.954.332a8.731,8.731,0,0,1,6.354,8.38q.044,28.415.01,56.83c0,1.988-1.227,3.308-2.953,3.289s-2.892-1.331-2.894-3.349q-.015-17.137-.005-34.274v-1.822h-138.27v1.615q0,46.943,0,93.887c0,3.1.907,4.008,4.009,4.008,18.113,0,36.227-.032,54.339.05a4.224,4.224,0,0,0,3.982-1.946l-2.865-6.892c-1.1,0-2.317.021-3.53-.005a2.947,2.947,0,0,1-3.2-3.194q-.041-6.151,0-12.3c.013-2.1,1.163-3.2,3.3-3.246,1.166-.027,2.584.322,3.423-.219.753-.486.842-1.971,1.277-2.992.515-1.208,1.087-2.392,1.781-3.9-.784-.7-1.7-1.427-2.515-2.252-1.6-1.612-1.615-3.14-.049-4.726q4.271-4.325,8.6-8.6c1.531-1.511,3.249-1.643,4.585.033,1.744,2.188,3.455,2.734,5.782,1.015a4.677,4.677,0,0,1,2.03-.794c1.5-.222,1.871-1.073,1.68-2.424a10.594,10.594,0,0,1-.011-1.609c.031-2.3,1.114-3.4,3.43-3.406q5.932-.023,11.864,0c2.327.008,3.421,1.095,3.45,3.387.014,1.119,0,2.239,0,3.332l7.143,2.984c.742-.812,1.52-1.756,2.395-2.6a2.863,2.863,0,0,1,4.407-.027q4.5,4.41,8.9,8.909a2.872,2.872,0,0,1-.015,4.308c-.424.471-.878.917-1.342,1.35-.428.4-.886.765-1.267,1.091.925,2.35,1.755,4.52,2.654,6.66a1.2,1.2,0,0,0,.9.459c.973.06,1.952,0,2.928.028a2.917,2.917,0,0,1,3.157,3.081q.055,6.3,0,12.6a2.892,2.892,0,0,1-3.033,3.054c-1.261.041-2.525.008-3.694.008l-2.857,6.893a3.991,3.991,0,0,0,3.972,1.948c3.016-.18,6.051-.041,9.078-.051,2.5-.009,3.575-1.066,3.577-3.558q.011-16.039.006-32.077a7.982,7.982,0,0,1,.083-1.6,2.913,2.913,0,0,1,2.847-2.3,2.935,2.935,0,0,1,2.873,2.446,8.959,8.959,0,0,1,.052,1.461q0,15.965,0,31.93c0,5.938-3.637,9.551-9.6,9.557-3.271,0-6.544-.052-9.812.042a3.512,3.512,0,0,0-2.12.9c-2.376,2.246-4.646,4.6-6.97,6.907-1.789,1.773-3.251,1.772-5.043-.018-.757-.757-1.447-1.58-2.1-2.3l-7.131,2.975c0,1.05.019,2.262,0,3.474-.04,2.058-1.138,3.226-3.149,3.242q-6.225.048-12.45,0a2.913,2.913,0,0,1-3.136-3.1c-.033-1.216-.006-2.433-.006-3.583-2.182-.951-4.258-1.885-6.366-2.74a1.332,1.332,0,0,0-1.079.3c-.672.561-1.251,1.231-1.884,1.841-1.689,1.628-3.18,1.64-4.84,0-2.327-2.3-4.655-4.6-6.927-6.951a3.043,3.043,0,0,0-2.417-1.012c-18.064.031-36.129-.07-54.193.08-5.32.044-9.246-1.883-10.767-7.381v-120.107a9.609,9.609,0,0,1,7.323-7.324Zm1.465,23.382c0-4.641,0-9.127,0-13.613,0-2.989-.933-3.909-3.958-3.909q-25.044,0-50.089,0-40.276,0-80.552,0c-2.623,0-3.659,1.025-3.667,3.612-.009,2.783,0,5.565,0,8.348v5.562Zm-42.77,120.686c0-1.038-.008-1.914,0-2.79.022-1.966.751-2.725,2.551-3.4,2.995-1.126,5.951-2.369,8.862-3.7,1.684-.769,2.748-.779,4.093.574a27.354,27.354,0,0,1,1.9,2.392c1.138-1.181,1.9-2,2.694-2.787.817-.809,1.665-1.586,2.6-2.47-.9-.866-1.627-1.516-2.295-2.222-1.232-1.3-1.221-2.351-.479-3.992,1.337-2.96,2.578-5.968,3.739-9,.626-1.636,1.427-2.387,3.205-2.421.962-.018,1.924,0,2.914,0v-7.031c-.967,0-1.839.007-2.71,0-2.033-.021-2.771-.753-3.476-2.651-1.1-2.953-2.331-5.862-3.647-8.725-.781-1.7-.8-2.768.525-4.1a26.9,26.9,0,0,1,2.117-1.767l-5.254-5.384c-.617.722-1.2,1.512-1.893,2.191-1.292,1.269-2.352,1.259-3.98.524q-4.441-2.005-9-3.741c-1.652-.629-2.422-1.419-2.459-3.175-.021-1,0-2,0-2.967H2650.6c0,.948.006,1.817,0,2.685-.019,2.1-.755,2.822-2.755,3.547-2.87,1.041-5.7,2.216-8.462,3.521-1.911.9-2.922.94-4.44-.614a17.589,17.589,0,0,1-1.518-2.007l-5.39,5.179c.709.673,1.44,1.314,2.11,2.014,1.3,1.356,1.281,2.406.5,4.114-1.317,2.862-2.547,5.772-3.643,8.726-.7,1.88-1.447,2.614-3.49,2.632-.906.008-1.812,0-2.713,0v7.031c.982,0,1.9-.01,2.813,0,1.943.024,2.7.769,3.376,2.584,1.123,3,2.377,5.947,3.7,8.86.742,1.634.766,2.7-.511,3.982a23.638,23.638,0,0,1-2.26,1.817l5.059,5.173c.03-.006.094,0,.124-.027.706-.671,1.4-1.358,2.115-2.019,1.269-1.169,2.307-1.187,3.871-.491q4.518,2.012,9.137,3.793c1.564.6,2.335,1.414,2.378,3.092.026,1.007,0,2.015,0,3.052Z"/>
      <path id="Path_4770" data-name="Path 4770" d="M2627.647-2901.487c-1.194.677-2.363,1.281-3.46,2a1.724,1.724,0,0,0-.658,1.125c-.105.916.008,1.855-.075,2.776a2.8,2.8,0,0,1-2.953,2.815q-6.513.058-13.028,0a2.625,2.625,0,0,1-2.832-2.869c.418-2.806-.8-4.253-3.183-5.311a1.952,1.952,0,0,0-2.089.033c-4.065,2.379-4.709,2.19-7.065-1.9-1.7-2.956-3.418-5.907-5.105-8.872-1.191-2.093-.858-3.684,1.323-4.717a3.775,3.775,0,0,0,2.5-4.228,3.136,3.136,0,0,0-1.84-3.114c-3.074-1.634-3.329-2.807-1.572-5.848q2.743-4.748,5.491-9.493c1.271-2.184,2.791-2.724,4.82-1.342a3.772,3.772,0,0,0,4.9.061c1.321-.878,2.012-1.619,1.756-3.165a5.81,5.81,0,0,1-.005-1.169,2.942,2.942,0,0,1,3.15-3.1q6.294-.056,12.589,0c1.906.016,3.365,1.135,3.084,2.929-.482,3.074,1.2,4.386,3.525,5.4a1.97,1.97,0,0,0,1.4,0c.8-.338,1.512-.886,2.294-1.281a2.824,2.824,0,0,1,3.948,1.049q3.363,5.655,6.575,11.4a2.594,2.594,0,0,1-1.143,3.864c-2.691,1.054-3.323,2.933-2.883,5.458a2.37,2.37,0,0,0,.865,1.564c4.318,2.273,4.3,3.589,1.925,7.442-1.711,2.78-3.274,5.651-4.916,8.474-1.325,2.28-2.765,2.644-5.095,1.312C2629.135-2900.634,2628.375-2901.07,2627.647-2901.487Zm-34.169-26.547c.546.332,1.037.638,1.536.93,1.926,1.127,2.23,1.836,2,4.058a12.882,12.882,0,0,0-.1,4.071c.7,3.072-.23,5.127-3.153,6.288-.069.028-.1.147-.208.309l3.489,6.026c.532-.294.916-.5,1.293-.716,2.347-1.359,2.869-1.234,5.132.359a29.844,29.844,0,0,0,4.7,2.615,3.292,3.292,0,0,1,2.258,3.373c-.029.664,0,1.33,0,1.992h7.213c0-.641,0-1.172,0-1.7.022-2.265.52-2.829,2.516-3.775a31.084,31.084,0,0,0,4.889-2.867,3.366,3.366,0,0,1,4.172-.3c.56.351,1.149.657,1.792,1.021l3.579-6.2c-.71-.412-1.332-.779-1.959-1.135a3.254,3.254,0,0,1-1.706-3.282c.092-2.226.075-4.461,0-6.688a3.162,3.162,0,0,1,1.637-3.17c.663-.376,1.305-.79,2.013-1.222l-3.542-6.124c-.545.286-1.017.518-1.475.775-2.143,1.2-2.781,1.073-4.777-.31a30.268,30.268,0,0,0-4.81-2.712,3.347,3.347,0,0,1-2.334-3.469c.03-.663,0-1.33,0-2.011h-7.213c0,.69-.031,1.311.006,1.928a3.4,3.4,0,0,1-2.267,3.525,43.159,43.159,0,0,0-5.283,3.055,3.33,3.33,0,0,1-3.934.255c-.607-.363-1.24-.681-1.919-1.051Z" transform="translate(-18.407 -54.685)"/>
      <path id="Path_4771" data-name="Path 4771" d="M2782.647-2883.624q-7.17,0-14.342,0c-2.175,0-3.47-1.072-3.509-2.86-.04-1.842,1.3-2.992,3.527-2.994q14.268-.01,28.536,0c2.174,0,3.476,1.083,3.512,2.865.038,1.856-1.281,2.984-3.53,2.988Q2789.745-2883.615,2782.647-2883.624Z" transform="translate(-126.915 -90.205)"/>
      <path id="Path_4772" data-name="Path 4772" d="M2835.055-2919.554c-4.052,0-8.1.008-12.157,0-2.137-.006-3.432-1.141-3.417-2.951s1.311-2.9,3.472-2.9q12.083-.012,24.167,0c2.146,0,3.482,1.119,3.51,2.884.029,1.818-1.336,2.966-3.565,2.969Q2841.061-2919.545,2835.055-2919.554Z" transform="translate(-160.199 -68.335)"/>
      <path id="Path_4773" data-name="Path 4773" d="M2608.432-2736.915c-2.781,0-5.562.013-8.343,0-2.026-.012-3.333-1.149-3.365-2.874-.033-1.779,1.306-2.971,3.408-2.976q8.269-.018,16.538,0c2.012,0,3.341,1.162,3.375,2.872.035,1.762-1.329,2.967-3.418,2.979C2613.9-2736.9,2611.164-2736.915,2608.432-2736.915Z" transform="translate(-24.618 -179.497)"/>
      <path id="Path_4774" data-name="Path 4774" d="M2640.554-2772.852c-2.288,0-4.576.019-6.864,0a2.985,2.985,0,0,1-3.261-2.972,2.963,2.963,0,0,1,3.21-2.873q6.937-.034,13.874,0a2.866,2.866,0,0,1,3.154,2.894,2.865,2.865,0,0,1-3.1,2.946C2645.228-2772.826,2642.891-2772.852,2640.554-2772.852Z" transform="translate(-45.133 -157.622)"/>
      <path id="Path_4775" data-name="Path 4775" d="M2771.125-2925.42c1.119,0,2.238-.028,3.355.005a2.881,2.881,0,0,1,3.073,2.976,2.851,2.851,0,0,1-3.03,2.863q-3.354.058-6.711,0a2.874,2.874,0,0,1-3.014-2.893,2.9,2.9,0,0,1,2.971-2.941C2768.886-2925.456,2770.006-2925.42,2771.125-2925.42Z" transform="translate(-126.916 -68.324)"/>
      <path id="Path_4776" data-name="Path 4776" d="M2876.938-2883.668c-.83,0-1.662.042-2.489-.011a2.957,2.957,0,0,1-2.833-2.967,2.918,2.918,0,0,1,2.8-2.844c1.7-.076,3.418-.075,5.123,0a2.891,2.891,0,0,1,2.82,2.962,2.933,2.933,0,0,1-2.935,2.857C2878.6-2883.633,2877.768-2883.666,2876.938-2883.668Z" transform="translate(-191.93 -90.166)"/>
      <path id="Path_4777" data-name="Path 4777" d="M2930.421-2840.13a2.955,2.955,0,0,1-2.987,2.923,2.955,2.955,0,0,1-2.849-2.915,2.951,2.951,0,0,1,2.986-2.922A2.953,2.953,0,0,1,2930.421-2840.13Z" transform="translate(-224.17 -118.47)"/>
      <path id="Path_4778" data-name="Path 4778" d="M2599.592-2778.67a2.948,2.948,0,0,1,2.973,2.939,2.942,2.942,0,0,1-2.866,2.9,2.947,2.947,0,0,1-2.973-2.939A2.947,2.947,0,0,1,2599.592-2778.67Z" transform="translate(-24.619 -157.651)"/>
      <path id="Path_4779" data-name="Path 4779" d="M2757.056-3001.9h-30.438a13.638,13.638,0,0,1-1.462-.024,2.934,2.934,0,0,1-2.677-2.957,2.934,2.934,0,0,1,2.634-2.849,11.247,11.247,0,0,1,1.316-.027H2787.6a12.307,12.307,0,0,1,1.316.022,2.938,2.938,0,0,1,2.678,2.956,2.937,2.937,0,0,1-2.635,2.85,12.516,12.516,0,0,1-1.462.029Z" transform="translate(-101.158 -18.215)"/>
      <path id="Path_4780" data-name="Path 4780" d="M2599.638-3007.721a2.952,2.952,0,0,1,2.923,2.986,2.959,2.959,0,0,1-2.914,2.851,2.953,2.953,0,0,1-2.922-2.987A2.953,2.953,0,0,1,2599.638-3007.721Z" transform="translate(-24.619 -18.241)"/>
      <path id="Path_4781" data-name="Path 4781" d="M2632.511-3007.722a2.951,2.951,0,0,1,2.987,2.922,2.957,2.957,0,0,1-2.85,2.915,2.952,2.952,0,0,1-2.986-2.923A2.952,2.952,0,0,1,2632.511-3007.722Z" transform="translate(-44.666 -18.239)"/>
      <path id="Path_4782" data-name="Path 4782" d="M2665.458-3001.885a2.956,2.956,0,0,1-2.863-3.045,2.957,2.957,0,0,1,2.971-2.792,2.956,2.956,0,0,1,2.864,3.044A2.963,2.963,0,0,1,2665.458-3001.885Z" transform="translate(-64.709 -18.24)"/>
      <path id="Path_4783" data-name="Path 4783" d="M2757.566-2784.484a19.026,19.026,0,0,1,19.157-18.971A19.025,19.025,0,0,1,2795.7-2784.3a19.04,19.04,0,0,1-19.158,18.976A19.034,19.034,0,0,1,2757.566-2784.484Zm5.862.053a13.182,13.182,0,0,0,13.167,13.243,13.178,13.178,0,0,0,13.243-13.166,13.172,13.172,0,0,0-13.166-13.24A13.177,13.177,0,0,0,2763.428-2784.431Z" transform="translate(-122.514 -142.566)"/>
      <path id="Path_4784" data-name="Path 4784" d="M2651.222-2892.861a9.889,9.889,0,0,1-9.981,9.884,10,10,0,0,1-9.917-10,10.049,10.049,0,0,1,10.03-9.91A9.942,9.942,0,0,1,2651.222-2892.861Zm-5.867.045a4.091,4.091,0,0,0-3.959-4.2,4.17,4.17,0,0,0-4.2,4,4.122,4.122,0,0,0,4,4.175A4.03,4.03,0,0,0,2645.355-2892.815Z" transform="translate(-45.678 -82.048)"/>
    </g>
    <rect id="Rectangle_9614" data-name="Rectangle 9614" width="198" height="198" transform="translate(2532.271 -3061.689)" fill="#fff" opacity="0"/>
  </g>
</svg>
