<svg width="60" height="60" viewBox="0 0 60 60" fill="none" xmlns="http://www.w3.org/2000/svg">
<path d="M30.9456 18.7468H31.1331C33.496 18.2613 35.6145 16.9643 37.1214 15.0806C38.6283 13.197 39.4287 10.8454 39.3837 8.43362C39.383 8.29279 39.3507 8.15392 39.289 8.02731C39.2273 7.90071 39.1379 7.78963 39.0274 7.70232C38.9229 7.61249 38.7996 7.54731 38.6665 7.51161C38.5334 7.4759 38.394 7.47059 38.2586 7.49605C35.8925 7.98216 33.7715 9.28192 32.2642 11.1695C30.7569 13.057 29.9586 15.413 30.008 17.828C30.008 18.0767 30.1068 18.3152 30.2826 18.491C30.4585 18.6668 30.6969 18.7656 30.9456 18.7656V18.7468Z" fill="white"/>
<path d="M48.1397 38.492C46.6528 37.8829 45.3818 36.8435 44.4898 35.5071C43.5977 34.1707 43.1253 32.5982 43.1331 30.9914C43.1334 29.531 43.5161 28.0962 44.2431 26.8296C44.9701 25.563 46.0162 24.5089 47.2771 23.7722C47.3986 23.7022 47.5029 23.6058 47.5822 23.4902C47.6615 23.3746 47.7139 23.2427 47.7355 23.1042C47.7571 22.9656 47.7473 22.824 47.7069 22.6897C47.6666 22.5555 47.5966 22.432 47.5021 22.3283C46.4623 21.2121 45.2063 20.3189 43.8105 19.7032C42.4147 19.0875 40.9083 18.7621 39.3828 18.7468C37.8702 18.7794 36.379 19.1108 34.995 19.7219C33.7185 20.2893 32.3414 20.5953 30.9447 20.622C29.5481 20.5953 28.1709 20.2893 26.8945 19.7219C25.5104 19.1108 24.0192 18.7794 22.5066 18.7468C21.3628 18.7468 11.2559 19.1219 11.2559 31.8727C11.2559 42.2985 18.3814 52.4992 22.5066 52.4992C24.3227 52.5197 26.1213 52.1421 27.7758 51.3929C28.765 50.9129 29.8456 50.6508 30.9447 50.6241C32.0439 50.6508 33.1245 50.9129 34.1137 51.3929C35.7682 52.1421 37.5667 52.5197 39.3828 52.4992C42.7393 52.4992 46.6958 45.88 48.7585 39.6733C48.7962 39.5551 48.81 39.4306 48.7993 39.3071C48.7885 39.1835 48.7533 39.0633 48.6958 38.9534C48.6382 38.8435 48.5594 38.7462 48.464 38.667C48.3685 38.5877 48.2583 38.5283 48.1397 38.492V38.492Z" fill="white"/>
</svg>
