<svg width="60" height="60" viewBox="0 0 60 60" fill="none" xmlns="http://www.w3.org/2000/svg">
<path d="M29.6726 30.5047C28.7412 29.0031 28.0655 27.7581 27.1294 25.4136C25.5466 21.4537 36.7562 17.8755 32.2111 11C34.1813 15.7495 25.1397 18.6856 24.2997 22.6409C23.5316 26.2788 29.6679 30.5047 29.6726 30.5047Z" fill="#F44336"/>
<path d="M29.8854 23.3856C29.7062 25.7338 31.9657 26.9853 32.031 28.7007C32.0833 30.0969 30.6806 31.2607 30.6806 31.2607C30.6806 31.2607 33.2266 30.7604 34.0208 28.6307C34.9027 26.2657 32.3091 24.6465 32.5761 22.7528C32.8252 20.9441 38.2047 17.5797 38.2047 17.5797C38.2047 17.5797 30.2895 18.1042 29.8854 23.3856Z" fill="#F44336"/>
<path d="M37.5439 30.6512C39.1809 30.2835 40.5612 31.326 40.5612 32.5271C40.5612 35.2346 36.8085 37.7937 36.8085 37.7937C36.8085 37.7937 42.6182 37.1012 42.6182 32.6559C42.6182 29.7161 39.7652 28.9816 37.5439 30.6512ZM34.7861 32.8351C34.7861 32.8351 36.5976 31.5444 37.0801 31.06C32.6349 32.0036 22.4854 32.1305 22.4854 31.3111C22.4854 30.556 25.7584 29.7823 25.7584 29.7823C25.7584 29.7823 18.504 29.6778 18.504 31.8178C18.504 34.0484 28.0002 34.208 34.7861 32.8351Z" fill="#1565C0"/>
<path d="M33.6717 34.8659C29.4636 36.2649 21.7126 35.8179 24.0085 33.9392C22.8904 33.9392 21.2329 34.8379 21.2329 35.7022C21.2329 37.4353 29.6157 38.7736 35.8202 36.236L33.6717 34.8659Z" fill="#1565C0"/>
<path d="M25.0398 37.8226C23.5129 37.8226 22.5246 38.8063 22.5246 39.523C22.5246 41.7545 31.6334 41.9794 35.2425 39.7144L32.9484 38.1912C30.2522 39.3765 23.4793 39.5398 25.0398 37.8226Z" fill="#1565C0"/>
<path d="M41.4609 41.4559C41.4609 40.5823 40.4763 40.1707 40.1235 39.9738C42.2029 44.9883 19.2954 44.5992 19.2954 41.6388C19.2954 40.9659 20.9819 40.307 22.5405 40.6187L21.2152 39.8357C18.1092 39.3485 16 40.7139 16 41.8152C16 46.951 41.4609 46.7037 41.4609 41.4559Z" fill="#1565C0"/>
<path d="M43.9985 43.2963C40.1291 47.1181 30.3175 48.5106 20.4508 46.1493C30.3175 50.3519 43.9519 47.9851 43.9985 43.2963Z" fill="#1565C0"/>
</svg>
