<svg width="60" height="60" viewBox="0 0 60 60" fill="none" xmlns="http://www.w3.org/2000/svg">
<path d="M22.3545 27.5992L16.8341 30.6536C16.6271 30.7672 16.5 30.9787 16.5 31.2071V37.3192C16.5 37.5476 16.6271 37.758 16.8341 37.8727L22.3556 40.9293C22.5615 41.043 22.8169 41.043 23.0227 40.9293L28.5431 37.8727C28.7479 37.758 28.875 37.5476 28.875 37.3192V31.2071C28.875 30.9787 28.7479 30.7683 28.5409 30.6536L23.0216 27.5992C22.9181 27.5418 22.8022 27.5137 22.6875 27.5137C22.5716 27.5137 22.4569 27.5418 22.3534 27.5992H22.3545ZM50.7574 33.1016L49.8371 33.6101C49.8022 33.6292 49.782 33.6641 49.782 33.7023V34.7216C49.782 34.7598 49.8034 34.7947 49.8371 34.8138L50.7574 35.3235C50.7922 35.3426 50.8339 35.3426 50.8687 35.3235L51.789 34.8138C51.8228 34.7947 51.8441 34.7598 51.8441 34.7216V33.7023C51.8441 33.6641 51.8228 33.6292 51.7879 33.6101L50.8676 33.1016C50.8507 33.0915 50.8316 33.087 50.8125 33.087C50.7934 33.087 50.7742 33.0915 50.7574 33.1016Z" fill="#388E3C"/>
<path d="M43.2199 21.1215L40.5322 19.6218C40.4479 19.5746 40.3444 19.5757 40.2611 19.6252C40.1779 19.6747 40.1261 19.7636 40.1261 19.8603L40.125 28.9188L37.6466 27.5475C37.5431 27.4901 37.4272 27.462 37.3125 27.462C37.1978 27.462 37.0819 27.4901 36.9784 27.5475H36.9795L31.4591 30.6018C31.2521 30.7155 31.125 30.927 31.125 31.1542V37.2663C31.125 37.4947 31.2521 37.7051 31.4591 37.8198L36.9806 40.8765C37.1865 40.9901 37.4419 40.9901 37.6478 40.8765L43.1681 37.8198C43.3729 37.7062 43.5 37.4947 43.5 37.2663V21.5985C43.5 21.4005 43.392 21.2182 43.2199 21.1215ZM39.9743 35.8522L37.4655 37.2416C37.3721 37.2933 37.2562 37.2933 37.1629 37.2416L34.653 35.8522C34.5574 35.8005 34.5 35.7037 34.5 35.6002V32.8215C34.5 32.718 34.5574 32.6223 34.6519 32.5695L37.1617 31.1812H37.1606C37.2079 31.1553 37.2596 31.143 37.3125 31.143C37.3654 31.143 37.4171 31.1565 37.4644 31.1812L39.9731 32.5695C40.0676 32.6223 40.125 32.7191 40.125 32.8226V35.6013C40.125 35.7037 40.0676 35.8005 39.9743 35.8522Z" fill="#586870"/>
<path d="M22.3545 27.5992L16.5 37.3192C16.5 37.5476 16.6271 37.758 16.8341 37.8727L22.3556 40.9293C22.5615 41.043 22.8169 41.043 23.0227 40.9293L28.875 31.2071C28.875 30.9787 28.7479 30.7683 28.5409 30.6536L23.0216 27.5992C22.9181 27.5418 22.8022 27.5137 22.6875 27.5137C22.5716 27.5137 22.4569 27.5418 22.3534 27.5992" fill="#2E7D32"/>
<path d="M22.3545 27.5992L16.8341 30.6536C16.6271 30.7672 16.5 30.9787 16.5 31.2071L22.3545 40.9293C22.5604 41.043 22.8158 41.043 23.0216 40.9293L28.542 37.8727C28.7479 37.758 28.875 37.5476 28.875 37.3192L23.0216 27.5992C22.9181 27.5418 22.8022 27.5137 22.6875 27.5137C22.5716 27.5137 22.4569 27.5418 22.3534 27.5992" fill="#4CAF50"/>
<path d="M56.6659 30.6018L51.1466 27.5475C51.0431 27.4901 50.9272 27.462 50.8125 27.462C50.6978 27.462 50.5819 27.4901 50.4784 27.5475H50.4795L44.9591 30.6018C44.7533 30.7155 44.625 30.9315 44.625 31.1677V37.2551C44.625 37.4902 44.7533 37.7073 44.9591 37.821L50.4806 40.8776C50.6876 40.9923 50.9408 40.9923 51.1478 40.8776L53.6936 39.468C53.9265 39.3386 53.9254 39.0045 53.6914 38.8762L48.1519 35.8533C48.0585 35.8005 48 35.7026 48 35.5968V32.8226C48 32.7191 48.0563 32.6235 48.1463 32.574L50.6606 31.1835H50.6595C50.7067 31.1576 50.7585 31.1452 50.8114 31.1452C50.8642 31.1452 50.916 31.1587 50.9632 31.1835L53.4776 32.5751C53.5676 32.6246 53.6239 32.7202 53.6239 32.8237V35.0872C53.6239 35.184 53.6756 35.274 53.76 35.3223C53.8444 35.3696 53.9479 35.3696 54.0322 35.3212L56.73 33.7541C56.8965 33.6573 57 33.4785 57 33.285V31.17C57 30.9326 56.8717 30.7155 56.6659 30.6018ZM15.0409 30.6018L9.52163 27.5475C9.41813 27.4901 9.30225 27.462 9.1875 27.462C9.07275 27.462 8.95687 27.4901 8.85337 27.5475H8.8545L3.33412 30.6018C3.12825 30.7155 3 30.9315 3 31.1677V39.5658C3 39.6626 3.05175 39.7526 3.13612 39.801C3.2205 39.8482 3.324 39.8482 3.40837 39.7998L6.10612 38.2327C6.27262 38.136 6.375 37.9571 6.375 37.7636V32.8215C6.375 32.718 6.43125 32.6223 6.52125 32.5728L9.03562 31.1823C9.08287 31.1565 9.13462 31.1441 9.1875 31.1441C9.24038 31.1441 9.29212 31.1576 9.33938 31.1823L11.8537 32.574C11.9437 32.6235 12 32.7191 12 32.8226V37.7647C12 37.9582 12.1024 38.1371 12.27 38.2338L14.9677 39.801C15.0521 39.8493 15.1556 39.8493 15.24 39.8021C15.3232 39.7526 15.375 39.6626 15.375 39.5658V31.1688C15.375 30.9326 15.2467 30.7155 15.0409 30.6018Z" fill="#586870"/>
</svg>
