<svg xmlns="http://www.w3.org/2000/svg" width="198" height="198" viewBox="0 0 198 198">
  <g id="On_Time_Delivery" data-name="On Time Delivery" transform="translate(-2789.273 -3176.255)">
    <g id="Group_4128" data-name="Group 4128" transform="translate(113.745 -1.356)">
      <g id="Group_3910" data-name="Group 3910" transform="translate(2769.193 3271.261)">
        <path id="Path_4384" data-name="Path 4384" d="M2899.489,3442.956h-.064a41.4,41.4,0,1,1,.11-82.8h.063a41.4,41.4,0,1,1-.109,82.8Zm.047-73.809a32.407,32.407,0,1,0-.1,64.814h.05a32.407,32.407,0,1,0,.1-64.814Z" transform="translate(-2858.102 -3360.152)"/>
      </g>
      <path id="Path_4385" data-name="Path 4385" d="M2706.188,3274.059a65.811,65.811,0,0,0,52.777,64.552c4.32.861,8.8.95,13.2,1.383,2.7.266,4.5,1.971,4.64,4.438.17,3-1.932,5.129-5.125,5.129a69.923,69.923,0,0,1-25.678-4.625c-24.435-9.565-40.5-26.957-47.082-52.389a75.195,75.195,0,0,1,43.682-87.95c43.825-18.583,94.174,7.908,103.4,54.507a116.253,116.253,0,0,1,1.475,14.531,4.773,4.773,0,1,1-9.521.368c-.2-7.568-1.155-15.015-3.932-22.079-9.744-24.784-27.724-39.755-54.21-43.036-33.165-4.108-63.093,16.622-71.442,48.714-1.387,5.33-1.806,10.912-2.672,16.377Z"/>
      <path id="Path_4386" data-name="Path 4386" d="M2814.477,3299.351v-2.269q0-24.739,0-49.479c0-3.815,1.739-6.042,4.732-6.08,3.048-.04,4.847,2.23,4.847,6.135q0,27.6,0,55.2c0,4.479-1.6,6.09-6.063,6.092q-14.813.008-29.627-.011a9.686,9.686,0,0,1-2.821-.3,4.76,4.76,0,0,1,1.616-9.257c8.36-.05,16.721-.026,25.082-.031Z" transform="translate(-47.218 -23.612)"/>
      <path id="Path_4387" data-name="Path 4387" d="M2917.758,3440.14c-3.661-2.764-7.125-5.428-10.642-8.021-2.461-1.814-5.329-1.45-7,.785a4.742,4.742,0,0,0,1.14,6.827q7.2,5.536,14.5,10.951a4.62,4.62,0,0,0,6.74-.872q9.2-12.024,18.26-24.156a4.683,4.683,0,0,0-.9-6.734,4.818,4.818,0,0,0-6.748.954c-.928,1.123-1.774,2.314-2.653,3.477C2926.258,3428.894,2922.069,3434.436,2917.758,3440.14Z" transform="translate(-111.484 -120.692)"/>
    </g>
    <rect id="Rectangle_9614" data-name="Rectangle 9614" width="198" height="198" transform="translate(2789.273 3176.255)" fill="#fff" opacity="0"/>
  </g>
</svg>
