<svg width="30" height="30" viewBox="0 0 30 30" fill="none" xmlns="http://www.w3.org/2000/svg">
<path d="M10.8711 10.875H13.3414L14.9961 12.5297L16.6508 10.875H19.1211C19.7399 10.875 20.2461 10.3688 20.2461 9.75V4.125C20.2461 3.50623 19.7399 3 19.1211 3H10.8711C10.2523 3 9.74609 3.50623 9.74609 4.125V9.75C9.74609 10.3688 10.2523 10.875 10.8711 10.875ZM10.4961 4.125C10.4961 3.91875 10.6648 3.75 10.8711 3.75H19.1211C19.3273 3.75 19.4961 3.91875 19.4961 4.125V9.75C19.4961 9.95625 19.3273 10.125 19.1211 10.125H16.3414L14.9961 11.4703L13.6508 10.125H10.8711C10.6648 10.125 10.4961 9.95625 10.4961 9.75V4.125Z" fill="#FFC400"/>
<path d="M18.0945 18.8859L16.1117 18.225C16.8148 17.8265 17.2461 17.0812 17.2461 16.2703V15.5156C17.2461 14.2735 16.2383 13.2656 14.9961 13.2656C13.7539 13.2656 12.7461 14.2735 12.7461 15.5156V16.2703C12.7461 17.0765 13.1773 17.8219 13.8805 18.225L11.8977 18.8859C11.2836 19.0875 10.8711 19.664 10.8711 20.3109V25.5001H11.6211V20.3109C11.6211 19.9875 11.8273 19.7015 12.132 19.5984L14.9961 18.6422L17.8602 19.5984C18.1648 19.7015 18.3711 19.9875 18.3711 20.3109V25.5001H19.1211V20.3109C19.1211 19.664 18.7086 19.0921 18.0945 18.8859ZM15.4695 17.6953L14.9961 17.8547L14.5227 17.6953C13.9086 17.4937 13.4961 16.9172 13.4961 16.2703V15.5156C13.4961 14.686 14.1664 14.0156 14.9961 14.0156C15.8258 14.0156 16.4961 14.686 16.4961 15.5156V16.2703C16.4961 16.9172 16.0836 17.4937 15.4695 17.6953Z" fill="#D9D9D9"/>
<path d="M16.8711 21H17.6211V25.5H16.8711V21Z" fill="#D9D9D9"/>
<path d="M12.3711 21H13.1211V25.5H12.3711V21Z" fill="#D9D9D9"/>
<path d="M25.5055 20.4699L24.2726 20.0199C24.8023 19.6731 25.1211 19.0824 25.1211 18.4496V18.1777C25.1258 17.4652 24.7227 16.8183 24.0851 16.4996C23.5555 16.2371 22.9367 16.2371 22.407 16.4996C21.7695 16.8137 21.3664 17.4652 21.3711 18.1777V18.4496C21.3711 19.0824 21.6898 19.673 22.2195 20.0199L20.9867 20.4699C20.5414 20.634 20.2461 21.0559 20.2461 21.5293V25.4996H20.9961V21.5246C20.9961 21.3653 21.0945 21.2246 21.2445 21.1731L23.2461 20.4465L25.2476 21.1731C25.3976 21.2293 25.4961 21.37 25.4961 21.5246V25.4996H26.2461V21.5246C26.2461 21.0512 25.9508 20.6293 25.5055 20.47L25.5055 20.4699ZM23.6305 19.5043L23.2461 19.6449L22.8617 19.5043C22.4164 19.3403 22.1211 18.9184 22.1211 18.4449V18.1731C22.1211 17.5496 22.6227 17.0481 23.2461 17.0481C23.8696 17.0481 24.3711 17.5496 24.3711 18.1731V18.4449C24.3711 18.923 24.0758 19.3449 23.6305 19.5043H23.6305Z" fill="#D9D9D9"/>
<path d="M23.9961 22.5H24.7461V25.5H23.9961V22.5Z" fill="#D9D9D9"/>
<path d="M21.7461 22.5H22.4961V25.5H21.7461V22.5Z" fill="#D9D9D9"/>
<path d="M9.00548 20.4699L7.77265 20.0199C8.30232 19.6731 8.62109 19.0824 8.62109 18.4496V18.1777C8.62578 17.4652 8.22266 16.8183 7.58515 16.4996C7.05548 16.2371 6.43671 16.2371 5.90704 16.4996C5.26954 16.8137 4.86642 17.4652 4.87109 18.1777V18.4496C4.87109 19.0824 5.18984 19.673 5.71954 20.0199L4.48671 20.4699C4.04138 20.634 3.74609 21.0559 3.74609 21.5293V25.4996H4.49609V21.5246C4.49609 21.3653 4.59453 21.2246 4.74453 21.1731L6.74609 20.4419L8.74765 21.1684C8.89765 21.2247 8.99609 21.3653 8.99609 21.52V25.4996H9.74608V21.5246C9.74608 21.0512 9.45077 20.6293 9.00547 20.47L9.00548 20.4699ZM7.13048 19.5043L6.7461 19.6449L6.36173 19.5043C5.9164 19.3403 5.62111 18.9184 5.62111 18.4449V18.1731C5.62111 17.5496 6.12267 17.0481 6.74611 17.0481C7.36955 17.0481 7.87111 17.5496 7.87111 18.1731V18.4449C7.87111 18.923 7.5758 19.3449 7.1305 19.5043H7.13048Z" fill="#D9D9D9"/>
<path d="M7.49609 22.5H8.24609V25.5H7.49609V22.5Z" fill="#D9D9D9"/>
<path d="M5.24609 22.5H5.99609V25.5H5.24609V22.5Z" fill="#D9D9D9"/>
<path d="M8.24609 12.375V11.25H9.37109V10.5H8.24609V9.375H7.49609V10.5H6.37109V11.25H7.49609V12.375H8.24609Z" fill="#FFC400"/>
<path d="M14.2457 6.90467L15.3707 8.02967L17.6207 5.77967V6.75H18.3707V4.5H16.1207V5.25H17.091L15.3707 6.97033L14.2457 5.84533L11.3535 8.73283L11.8879 9.26721L14.2457 6.90467Z" fill="#FFC400"/>
<path d="M4.87109 14.25H6.55859L7.87109 15.9984L9.18359 14.25H10.8711C11.4899 14.25 11.9961 13.7438 11.9961 13.125V11.625H11.2461V13.125C11.2461 13.3313 11.0773 13.5 10.8711 13.5H8.80859L7.87109 14.7516L6.93359 13.5H4.87109C4.66484 13.5 4.49609 13.3313 4.49609 13.125V8.625C4.49609 8.41875 4.66484 8.25 4.87109 8.25H8.99609V7.5H4.87109C4.25232 7.5 3.74609 8.00623 3.74609 8.625V13.125C3.74609 13.7438 4.25232 14.25 4.87109 14.25Z" fill="#FFC400"/>
<path d="M21.7461 12.375H22.4961V11.25H23.6211V10.5H22.4961V9.375H21.7461V10.5H20.6211V11.25H21.7461V12.375Z" fill="#FFC400"/>
<path d="M25.1211 7.5H20.9961V8.25H25.1211C25.3273 8.25 25.4961 8.41875 25.4961 8.625V13.125C25.4961 13.3313 25.3273 13.5 25.1211 13.5H23.0586L22.1211 14.7516L21.1836 13.5H19.1211C18.9148 13.5 18.7461 13.3313 18.7461 13.125V11.625H17.9961V13.125C17.9961 13.7438 18.5023 14.25 19.1211 14.25H20.8086L22.1211 15.9984L23.4336 14.25H25.1211C25.7399 14.25 26.2461 13.7438 26.2461 13.125V8.625C26.2461 8.00623 25.7399 7.5 25.1211 7.5Z" fill="#FFC400"/>
</svg>
