<svg width="60" height="60" viewBox="0 0 60 60" fill="none" xmlns="http://www.w3.org/2000/svg">
<path d="M29.9996 42.0124C17.4761 42.0124 7.28711 36.4665 7.28711 29.6499C7.28711 22.8332 17.4761 17.2874 29.9996 17.2874C42.5231 17.2874 52.7121 22.8332 52.7121 29.6499C52.7121 36.4665 42.5231 42.0124 29.9996 42.0124Z" fill="#DCD5F2"/>
<path d="M30 17.575C42.3654 17.575 52.425 22.9921 52.425 29.65C52.425 36.3079 42.3654 41.725 30 41.725C17.6346 41.725 7.575 36.3079 7.575 29.65C7.575 22.9921 17.6346 17.575 30 17.575ZM30 17C17.2977 17 7 22.6638 7 29.65C7 36.6362 17.2977 42.3 30 42.3C42.7023 42.3 53 36.6362 53 29.65C53 22.6638 42.7023 17 30 17Z" fill="#8B75A1"/>
<path d="M21.4402 26.1998C22.4321 26.1998 23.2882 26.5575 23.7885 27.1808C24.2192 27.7178 24.3526 28.4291 24.1726 29.2375C23.689 31.4174 22.7529 31.9498 19.4035 31.9498H17.023L18.0293 26.1998H21.4402ZM21.4402 25.0498H17.0633L15.0508 36.5498H16.2008L16.808 33.0998H19.4041C22.7753 33.0998 24.6096 32.5794 25.2956 29.4865C25.8849 26.83 23.9265 25.0498 21.4402 25.0498ZM42.1402 26.1998C43.1321 26.1998 43.9882 26.5575 44.4885 27.1808C44.9192 27.7178 45.0526 28.4291 44.8726 29.2375C44.389 31.4174 43.4529 31.9498 40.1035 31.9498H37.723L38.7293 26.1998H42.1402ZM42.1402 25.0498H37.7633L35.7508 36.5498H36.9008L37.508 33.0998H40.1041C43.4753 33.0998 45.3096 32.5794 45.9956 29.4865C46.5849 26.83 44.6265 25.0498 42.1402 25.0498Z" fill="#36404D"/>
<path d="M35.2172 25.7468C34.7118 25.25 33.8211 25.0499 32.4928 25.0499H29.3085L30.0008 21.5999H28.7933L26.5508 33.0999H27.695L29.0681 26.1999H29.3091H32.4934C33.8378 26.1999 34.2725 26.4299 34.411 26.5661C34.6083 26.7605 34.6548 27.2711 34.5358 27.9249L33.5198 33.0999H34.7307L35.6657 28.1376C35.8652 27.0405 35.714 26.2355 35.2172 25.7468Z" fill="#36404D"/>
</svg>
