<svg xmlns="http://www.w3.org/2000/svg" width="125.243" height="150" viewBox="0 0 125.243 150">
  <g id="Platform_Migration" data-name="Platform Migration" transform="translate(1800.055 -2827.72)">
    <path id="Path_4366" data-name="Path 4366" d="M-1786.617,3118.037a36.959,36.959,0,0,1-4.332-1.242c-5.454-2.283-7.976-6.755-8.852-12.335a26.616,26.616,0,0,1-.209-4.088q-.02-23.283,0-46.566a10.144,10.144,0,0,1,.206-2.174,2.983,2.983,0,0,1,2.851-2.3,2.991,2.991,0,0,1,3.017,2.277,9.735,9.735,0,0,1,.214,2.172q.017,23.8,0,47.591a11.507,11.507,0,0,0,1.823,6.946,7.767,7.767,0,0,0,5.484,3.274,20.2,20.2,0,0,0,2.917.207q45.915.016,91.83.007c5.214,0,8.858-2.512,10.057-7.009a14.348,14.348,0,0,0,.386-3.473c.071-5.417,0-10.836.142-16.25.194-7.174-3.882-9.976-10.022-10.625a34.928,34.928,0,0,0-3.658-.131q-33.832-.011-67.664-.005h-1.71c.444.515.69.841.975,1.128,1.927,1.939,3.892,3.841,5.784,5.813a3.155,3.155,0,0,1,.214,4.579,3.128,3.128,0,0,1-4.58-.155q-6.105-6.01-12.116-12.115a3.1,3.1,0,0,1,.005-4.8q6.008-6.107,12.117-12.115a3.125,3.125,0,0,1,4.579-.143,3.145,3.145,0,0,1-.227,4.577c-2.172,2.23-4.42,4.385-6.539,6.937h1.651q33.759,0,67.518,0a27.716,27.716,0,0,1,10.214,1.544c6.195,2.417,9.811,7.941,9.749,14.9-.055,6.05-.109,12.1-.209,18.148a15.623,15.623,0,0,1-10.839,14.653c-.867.281-1.75.512-2.625.766Z" transform="translate(-0.022 -140.317)"/>
    <path id="Path_4367" data-name="Path 4367" d="M-1681.229,2874.6h-1.766q-11.279,0-22.559,0c-9.6-.013-16.313-6.721-16.334-16.3-.006-2.832-.036-5.664.017-8.494a3.1,3.1,0,0,1,2.61-3.241,2.96,2.96,0,0,1,3.243,1.709,6.023,6.023,0,0,1,.344,2.138c.039,2.635-.012,5.272.022,7.908.074,5.857,3.608,9.8,9.421,9.988,6.679.213,13.37.049,20.311.049a9.752,9.752,0,0,0-.732-.973q-16.309-16.316-32.652-32.6a2.969,2.969,0,0,0-1.891-.793q-31.274-.061-62.549-.021c-6.093.01-9.972,3.928-9.983,10.007-.026,14.255-.055,28.511.018,42.766.025,4.975,1.666,9.316,6.49,11.545a15.03,15.03,0,0,0,6.083,1.23c22.021.085,44.043.054,66.065.052.275,0,.55-.047,1.227-.109-2.193-2.161-4.161-4.088-6.113-6.033a10.5,10.5,0,0,1-1.348-1.534,2.976,2.976,0,0,1,.387-3.877,3.042,3.042,0,0,1,3.89-.31,5.945,5.945,0,0,1,.906.733q5.809,5.792,11.6,11.6c1.825,1.839,1.834,3.511.021,5.339-3.85,3.883-7.734,7.732-11.593,11.607a3.364,3.364,0,0,1-3.822,1.086c-2.114-.825-2.574-3.4-.88-5.2,1.842-1.953,3.785-3.81,5.679-5.714.331-.332.637-.688,1.194-1.293h-2c-21.387,0-42.774.052-64.16-.06a28.052,28.052,0,0,1-8.74-1.38c-5.726-1.944-8.934-6.425-10.391-12.126a27.662,27.662,0,0,1-.794-6.652c-.069-13.865-.051-27.73-.028-41.595.012-7.454,4.156-13.418,10.862-15.516a17.213,17.213,0,0,1,5.026-.777c21.533-.051,43.067-.028,64.6-.047a4.7,4.7,0,0,1,3.531,1.446q19.77,19.794,39.568,39.561a4.689,4.689,0,0,1,1.452,3.527q-.032,22.7-.018,45.4c0,2.734-1.787,4.326-4.005,3.618a2.855,2.855,0,0,1-2.139-2.513,15.945,15.945,0,0,1-.068-1.9q-.005-20.138,0-40.276Z"/>
  </g>
</svg>
