<svg width="60" height="60" viewBox="0 0 60 60" fill="none" xmlns="http://www.w3.org/2000/svg">
<path d="M50 29.5042C50 26.7519 46.5987 24.1435 41.3838 22.526C42.5873 17.1399 42.0525 12.8547 39.6956 11.4827C39.1524 11.1609 38.5174 11.0085 37.8237 11.0085V12.897C38.2081 12.897 38.5174 12.9732 38.7764 13.1172C39.913 13.7778 40.4061 16.293 40.0215 19.5281C39.9298 20.3241 39.7793 21.1625 39.5955 22.0179C37.9573 21.6114 36.1689 21.298 34.2886 21.0948C33.1605 19.5281 31.9905 18.1053 30.812 16.8604C33.5365 14.2944 36.0938 12.8885 37.8321 12.8885V11C35.5338 11 32.5253 12.6599 29.4834 15.5393C26.4413 12.6768 23.4328 11.0339 21.1346 11.0339V12.9224C22.8645 12.9224 25.4301 14.3198 28.1545 16.8689C26.9845 18.1138 25.8145 19.5281 24.703 21.0948C22.8142 21.298 21.0259 21.6114 19.3879 22.0263C19.1956 21.1795 19.0536 20.358 18.9532 19.5704C18.5606 16.3353 19.0452 13.8201 20.1735 13.1511C20.4241 12.9986 20.75 12.9309 21.1346 12.9309V11.0423C20.4325 11.0423 19.7974 11.1948 19.2459 11.5166C16.8975 12.8885 16.371 17.1653 17.5827 22.5345C12.3846 24.1605 9 26.7604 9 29.5042C9 32.2567 12.4013 34.8651 17.6162 36.4825C16.4127 41.8688 16.9475 46.1538 19.3044 47.5258C19.8476 47.8476 20.4826 48 21.1847 48C23.4829 48 26.4915 46.3402 29.5335 43.4608C32.5754 46.3233 35.584 47.9663 37.8822 47.9663C38.5841 47.9663 39.2193 47.8139 39.7709 47.4919C42.1192 46.1199 42.6458 41.8432 41.4339 36.4742C46.6154 34.8566 50 32.2482 50 29.5042ZM39.1191 23.8556C38.8098 24.9482 38.4254 26.0743 37.9908 27.2007C37.6482 26.5233 37.2889 25.8458 36.8961 25.1682C36.5117 24.4908 36.102 23.8302 35.6926 23.1866C36.8792 23.3644 38.0242 23.5846 39.1191 23.8556ZM35.2914 32.8748C34.6396 34.0182 33.9711 35.1022 33.2775 36.11C32.0321 36.22 30.7704 36.2793 29.5 36.2793C28.238 36.2793 26.9761 36.22 25.7394 36.1183C25.0457 35.1105 24.3686 34.0351 23.7168 32.9002C23.0816 31.7909 22.5051 30.6645 21.9785 29.5298C22.4967 28.3949 23.0816 27.26 23.7086 26.1507C24.3604 25.0074 25.0289 23.9234 25.7225 22.9156C26.9679 22.8055 28.2296 22.7462 29.5 22.7462C30.762 22.7462 32.0239 22.8055 33.2606 22.9071C33.9543 23.9149 34.6314 24.9904 35.2832 26.1253C35.9183 27.2346 36.4949 28.361 37.0215 29.4959C36.4949 30.6306 35.9183 31.7655 35.2914 32.8748ZM37.9908 31.774C38.4295 32.8777 38.8144 34.0025 39.1442 35.1444C38.0493 35.4154 36.8961 35.6442 35.701 35.822C36.1105 35.17 36.5199 34.5009 36.9045 33.8148C37.2889 33.1375 37.6482 32.4514 37.9908 31.774ZM29.5166 40.8102C28.7394 39.997 27.9622 39.0909 27.1934 38.1001C27.9456 38.134 28.7144 38.1594 29.4916 38.1594C30.2772 38.1594 31.0544 38.1425 31.815 38.1001C31.0976 39.0448 30.3304 39.9495 29.5166 40.8102ZM23.299 35.822C22.1123 35.6442 20.9674 35.4239 19.8727 35.1529C20.1817 34.0605 20.5663 32.9341 21.0008 31.8077C21.3435 32.4853 21.7029 33.1628 22.0955 33.8402C22.4883 34.5178 22.8895 35.1783 23.299 35.822ZM29.475 18.1985C30.2522 19.0115 31.0294 19.9176 31.7982 20.9085C31.046 20.8746 30.2772 20.8492 29.5 20.8492C28.7144 20.8492 27.9372 20.8661 27.1768 20.9085C27.8941 19.9638 28.6613 19.0592 29.475 18.1985ZM23.2906 23.1866C22.8811 23.8387 22.4717 24.5077 22.0873 25.1936C21.7029 25.8711 21.3435 26.5487 21.0008 27.2261C20.5621 26.1224 20.1772 24.9976 19.8476 23.8556C20.9423 23.5931 22.0955 23.3644 23.2906 23.1866ZM15.7274 33.7895C12.7691 32.5107 10.8553 30.834 10.8553 29.5042C10.8553 28.1746 12.7691 26.4894 15.7274 25.2191C16.4462 24.9057 17.2318 24.6263 18.0424 24.3637C18.5188 26.0236 19.1455 27.7512 19.9227 29.5213C19.1539 31.2828 18.5354 33.0019 18.0675 34.6534C17.2402 34.3907 16.4546 34.1029 15.7274 33.7895ZM20.2236 45.8914C19.087 45.2308 18.5939 42.7156 18.9785 39.4804C19.0704 38.6845 19.2207 37.846 19.4045 36.9906C21.0427 37.3972 22.8311 37.7106 24.7114 37.9138C25.8395 39.4804 27.0095 40.9032 28.188 42.1481C25.4635 44.7142 22.9062 46.1199 21.1679 46.1199C20.7919 46.1116 20.4744 46.0353 20.2236 45.8914ZM40.0468 39.4382C40.4394 42.6732 39.9548 45.1884 38.8265 45.8575C38.5759 46.0099 38.25 46.0777 37.8654 46.0777C36.1355 46.0777 33.5699 44.6803 30.8455 42.1312C32.0155 40.8863 33.1855 39.4721 34.297 37.9052C36.1858 37.702 37.9741 37.3886 39.6121 36.9737C39.8044 37.8291 39.9548 38.6506 40.0468 39.4382ZM43.2642 33.7895C42.5454 34.1029 41.7598 34.3824 40.9492 34.6449C40.4728 32.985 39.8461 31.2574 39.0688 29.4874C39.8378 27.7258 40.4562 26.0067 40.9241 24.3553C41.7516 24.6178 42.537 24.9057 43.2726 25.2191C46.231 26.4978 48.1447 28.1746 48.1447 29.5042C48.1363 30.834 46.2225 32.5192 43.2642 33.7895Z" fill="#61DAFB"/>
<path d="M29.4949 33.3738C31.6043 33.3738 33.3142 31.6411 33.3142 29.5035C33.3142 27.366 31.6043 25.6333 29.4949 25.6333C27.3857 25.6333 25.6758 27.366 25.6758 29.5035C25.6758 31.6411 27.3857 33.3738 29.4949 33.3738Z" fill="#61DAFB"/>
</svg>
