<svg width="60" height="60" viewBox="0 0 60 60" fill="none" xmlns="http://www.w3.org/2000/svg">
<path d="M32.5066 29.4999C32.5066 31.1617 31.1622 32.5062 29.5004 32.5062C27.8386 32.5062 26.4941 31.1617 26.4941 29.4999C26.4941 27.8381 27.8386 26.4937 29.5004 26.4937C31.1622 26.4937 32.5066 27.8381 32.5066 29.4999Z" fill="#8BB7F0"/>
<path d="M29.4992 32.7375C27.7144 32.7375 26.2617 31.2852 26.2617 29.5C26.2617 27.7147 27.7144 26.2625 29.4992 26.2625C31.284 26.2625 32.7367 27.7147 32.7367 29.5C32.7367 31.2852 31.284 32.7375 29.4992 32.7375ZM29.4992 26.725C27.9688 26.725 26.7242 27.9695 26.7242 29.5C26.7242 31.0304 27.9688 32.275 29.4992 32.275C31.0296 32.275 32.2742 31.0304 32.2742 29.5C32.2742 27.9695 31.0296 26.725 29.4992 26.725Z" fill="#4E7AB5"/>
<path d="M23.3184 45.9203C22.5271 45.9203 21.8065 45.739 21.1761 45.382C20.1216 44.784 19.3927 43.7535 19.0089 42.3203C18.5626 40.652 18.6157 38.4362 19.1624 35.9017C14.7539 34.3851 12.2305 32.0583 12.2305 29.5002C12.2305 26.9417 14.7534 24.6153 19.162 23.0992C18.6153 20.5643 18.5616 18.3484 19.0079 16.6802C19.3918 15.2464 20.1207 14.216 21.1748 13.6184C21.8047 13.2614 22.5257 13.0801 23.3171 13.0801C25.3465 13.0801 27.8916 14.3427 30.5001 16.6404C33.1086 14.345 35.6529 13.0833 37.68 13.0833C38.4713 13.0833 39.1919 13.2646 39.8223 13.6217C40.8754 14.2188 41.6048 15.2474 41.9886 16.6793C42.4354 18.347 42.3818 20.5633 41.8346 23.0988C46.2441 24.6148 48.768 26.9417 48.768 29.5002C48.768 32.0588 46.2441 34.3856 41.8346 35.9021C42.3813 38.4371 42.435 40.6529 41.9882 42.3207C41.6043 43.7531 40.8759 44.7817 39.8237 45.3788C39.1928 45.7358 38.4718 45.9171 37.6809 45.9171C35.6524 45.9171 33.1073 44.6554 30.4997 42.361C27.8912 44.6582 25.3465 45.9203 23.3184 45.9203ZM20.9426 36.4405C20.4842 38.6221 20.4329 40.486 20.7964 41.842C21.0471 42.779 21.4814 43.4289 22.0887 43.773C22.4369 43.9705 22.8509 44.0708 23.3184 44.0708C24.8882 44.0708 26.9546 43.0154 29.1557 41.0937C28.0526 39.9828 26.9759 38.7252 25.9515 37.3516C24.1796 37.1592 22.4961 36.853 20.9426 36.4405ZM31.8432 41.0928C34.0438 43.0126 36.1107 44.0671 37.6805 44.0676C38.148 44.0676 38.562 43.9672 38.9112 43.7697C39.5166 43.4265 39.9499 42.7781 40.2002 41.8425C40.5637 40.4855 40.5128 38.6221 40.0545 36.441C38.4995 36.8535 36.8156 37.1597 35.0442 37.3521C34.0202 38.7257 32.9449 39.9828 31.8432 41.0928ZM28.4485 37.5445C29.12 38.3659 29.8073 39.1322 30.4992 39.8292C31.1893 39.1327 31.877 38.3663 32.5481 37.5445C31.8585 37.5773 31.1717 37.594 30.4992 37.594C29.8263 37.594 29.139 37.5773 28.4485 37.5445ZM26.9606 35.5955C28.1146 35.694 29.3046 35.744 30.4992 35.744C31.6948 35.744 32.8834 35.694 34.0355 35.596C34.7228 34.6321 35.3781 33.622 35.9845 32.592C36.5709 31.5953 37.1227 30.5552 37.625 29.4998C37.1241 28.4471 36.5728 27.4074 35.9849 26.4084C35.38 25.3807 34.7246 24.3706 34.0355 23.4045C32.8843 23.3064 31.6957 23.2565 30.4992 23.2565C29.3023 23.2565 28.1132 23.3064 26.9625 23.4049C26.2734 24.3697 25.6171 25.3798 25.0112 26.4089C24.4238 27.4074 23.8725 28.4471 23.3712 29.5011C23.8716 30.5529 24.4229 31.5926 25.0107 32.5925C25.6138 33.6169 26.2692 34.6266 26.9606 35.5955ZM38.5888 31.7105C38.2623 32.333 37.9237 32.9435 37.5782 33.53C37.23 34.1229 36.8595 34.7177 36.4747 35.3041C37.5727 35.1349 38.623 34.9179 39.6063 34.6566C39.3334 33.709 38.9916 32.7206 38.5888 31.7105ZM21.3898 34.6562C22.3736 34.917 23.4234 35.1344 24.52 35.3037C24.1329 34.7135 23.7624 34.1183 23.4165 33.53C23.0719 32.944 22.7329 32.3344 22.4069 31.7119C22.0059 32.7174 21.6645 33.7048 21.3898 34.6562ZM39.6641 29.5002C40.3708 31.0686 40.9466 32.6189 41.3791 34.1146C44.8025 32.9102 46.918 31.1532 46.918 29.5002C46.918 27.8472 44.8025 26.0902 41.3791 24.8859C40.9476 26.3816 40.3713 27.9319 39.6641 29.5002ZM19.6175 24.8868C16.1955 26.0907 14.0805 27.8477 14.0805 29.5002C14.0805 31.1532 16.1955 32.9102 19.6184 34.1141C20.0504 32.6179 20.6262 31.0676 21.332 29.5011C20.6258 27.9342 20.05 26.3839 19.6175 24.8868ZM21.3894 24.3443C21.6641 25.2942 22.0054 26.2821 22.4069 27.2895C22.7325 26.6688 23.071 26.0588 23.417 25.4709C23.7648 24.8794 24.1352 24.2846 24.5214 23.6968C23.4234 23.8656 22.3736 24.083 21.3894 24.3443ZM36.4756 23.6963C36.8628 24.2869 37.2332 24.8817 37.5792 25.4709C37.9242 26.0569 38.2632 26.6669 38.5897 27.2895C38.9916 26.2826 39.333 25.2947 39.6077 24.3438C38.6226 24.0825 37.5727 23.8651 36.4756 23.6963ZM23.3171 14.9301C22.8495 14.9301 22.436 15.03 22.0882 15.2279C21.4814 15.572 21.0466 16.2218 20.7955 17.1589C20.4324 18.5163 20.4833 20.3797 20.9421 22.5604C22.4961 22.1479 24.1805 21.8412 25.9528 21.6488C26.9782 20.2747 28.0549 19.0181 29.1566 17.9081C26.9551 15.9855 24.8872 14.9301 23.3171 14.9301ZM35.0447 21.6484C36.816 21.8408 38.5 22.1469 40.0549 22.5595C40.5137 20.3783 40.5651 18.5145 40.2011 17.1575C39.9504 16.2223 39.5166 15.5739 38.9107 15.2307C38.562 15.0332 38.148 14.9329 37.68 14.9329C36.1107 14.9329 34.0447 15.9878 31.8437 17.9081C32.9445 19.0177 34.0202 20.2747 35.0447 21.6484ZM30.4992 21.4065C31.1717 21.4065 31.8585 21.4231 32.5486 21.456C31.8779 20.6355 31.1907 19.8696 30.5001 19.1721C29.8078 19.8705 29.121 20.6364 28.4503 21.456C29.1399 21.4231 29.8267 21.4065 30.4992 21.4065Z" fill="#8BB7F0"/>
<path d="M23.3178 13.3113C25.3963 13.3113 27.941 14.6572 30.5014 16.9498C33.0613 14.659 35.6046 13.3145 37.6812 13.3145C38.4319 13.3145 39.1145 13.4857 39.7098 13.8228C40.7069 14.388 41.3988 15.369 41.766 16.7393C42.2642 18.551 42.1596 20.7816 41.5653 23.2513C45.8305 24.6763 48.5375 26.9245 48.5375 29.5002C48.5375 32.0758 45.8305 34.3241 41.5648 35.7495C42.1851 38.4195 42.2891 40.7103 41.7656 42.261C41.3984 43.6309 40.7069 44.6124 39.7107 45.1775C39.1145 45.5152 38.5729 45.6877 37.8228 45.6877C37.8223 45.6877 37.6304 45.6877 37.6299 45.6877C35.5524 45.6877 33.0595 44.3418 30.5 42.052C27.9401 44.3441 25.3963 45.6891 23.3188 45.6891C22.5681 45.6891 21.8855 45.5179 21.2902 45.1808C20.2922 44.6142 19.5998 43.6319 19.233 42.2605C18.6827 40.5414 18.7937 38.2817 19.4338 35.749C15.1691 34.3236 12.4625 32.0758 12.4625 29.5002C12.4625 26.925 15.1691 24.6768 19.4333 23.2513C19.1156 21.8365 18.9125 20.523 18.9056 19.3252C18.9 18.3789 19.0291 17.4988 19.2326 16.7398C19.5998 15.368 20.2917 14.3857 21.2898 13.8196C21.8846 13.482 22.5672 13.3113 23.3178 13.3113ZM20.7681 22.8467C22.3762 22.405 24.1619 22.071 26.079 21.8675C27.1806 20.3829 28.3337 19.0481 29.495 17.8974C27.2417 15.8874 25.0476 14.6983 23.3178 14.6983C22.8096 14.6983 22.3581 14.8084 21.9747 15.0262C21.312 15.4023 20.8407 16.0992 20.5729 17.0987C20.1761 18.5796 20.2663 20.5813 20.7681 22.8467ZM40.2305 22.8462C40.7324 20.5809 40.8225 18.5787 40.4257 17.0978C40.1584 16.1002 39.6871 15.4046 39.0257 15.0295C38.6418 14.8116 38.1891 14.7016 37.6812 14.7016C35.9529 14.7016 33.7602 15.8893 31.5073 17.8974C32.6682 19.0481 33.8198 20.3829 34.9206 21.8671C36.8367 22.0706 38.6224 22.4045 40.2305 22.8462ZM27.9456 21.7144C28.779 21.665 29.6148 21.622 30.4838 21.622C31.3528 21.622 32.2205 21.6654 33.0539 21.7144C32.2177 20.6604 31.3593 19.6975 30.5005 18.8451C29.6416 19.6975 28.7827 20.6604 27.9456 21.7144ZM30.5 35.9752C31.777 35.9752 32.9993 35.9192 34.1621 35.817C34.8646 34.8379 35.544 33.7982 36.1841 32.7095C36.8099 31.6462 37.376 30.5699 37.8815 29.5002C37.376 28.4304 36.8099 27.3546 36.1846 26.2918C35.544 25.2026 34.8651 24.1634 34.1621 23.1843C32.9998 23.0811 31.7774 23.0252 30.5 23.0252C29.2226 23.0252 27.9997 23.0811 26.837 23.1838C26.1335 24.1629 25.4537 25.2026 24.8131 26.2914C24.1878 27.3546 23.6217 28.4309 23.1162 29.5006C23.6217 30.5704 24.1873 31.6462 24.8126 32.709C25.4532 33.7977 26.1326 34.8374 26.8356 35.8165C27.9988 35.9192 29.2221 35.9752 30.5 35.9752ZM38.615 27.8412C39.1353 26.5883 39.5659 25.358 39.8943 24.1814C38.7135 23.8568 37.4093 23.5885 35.9963 23.3919C36.4718 24.0982 36.9348 24.8303 37.3801 25.5879C37.8214 26.3367 38.2316 27.0896 38.615 27.8412ZM22.3827 27.8417C22.7656 27.0901 23.1763 26.3371 23.6166 25.5879C24.0625 24.8303 24.5259 24.0986 25.0018 23.3924C23.5889 23.5885 22.2846 23.8572 21.1039 24.1819C21.4322 25.3585 21.8628 26.5883 22.3827 27.8417ZM41.2245 34.4129C44.9596 33.1475 47.15 31.2882 47.15 29.5002C47.15 27.7122 44.9596 25.8529 41.2245 24.5875C40.7837 26.1623 40.175 27.8171 39.4115 29.4997C40.175 31.1828 40.7837 32.8376 41.2245 34.4129ZM19.7746 34.4124C20.2149 32.838 20.8231 31.1832 21.5867 29.5011C20.8231 27.8185 20.2145 26.1632 19.7742 24.5884C16.0395 25.8538 13.85 27.7126 13.85 29.5002C13.85 31.2882 16.0399 33.147 19.7746 34.4124ZM35.9963 35.6084C37.4093 35.4123 38.7135 35.1441 39.8943 34.8189C39.5655 33.6423 39.1349 32.4121 38.615 31.1587C38.2316 31.9103 37.8209 32.6632 37.3801 33.4125C36.9348 34.17 36.4718 34.9022 35.9963 35.6084ZM25.0004 35.608C24.525 34.9017 24.062 34.17 23.6161 33.4129C23.1758 32.6641 22.7656 31.9117 22.3827 31.1606C21.8628 32.413 21.4327 33.6428 21.1043 34.8189C22.2846 35.1431 23.5884 35.4114 25.0004 35.608ZM23.3192 44.3016C25.0485 44.3016 27.2417 43.1129 29.4945 41.1038C28.3323 39.9527 27.1797 38.6174 26.0776 37.1324C24.1614 36.9293 22.3766 36.5954 20.769 36.1537C20.2676 38.419 20.1775 40.4207 20.5738 41.9017C20.8412 42.9007 21.3129 43.5976 21.9752 43.9736C22.3582 44.1915 22.8109 44.3016 23.3192 44.3016ZM37.6812 44.2988C38.1895 44.2988 38.6414 44.1887 39.0257 43.9709C39.6871 43.5958 40.1575 42.9002 40.4243 41.9021C40.8211 40.4207 40.731 38.419 40.2296 36.1542C38.6215 36.5959 36.8363 36.9298 34.9197 37.1328C33.8189 38.6174 32.6668 39.9522 31.5059 41.1034C33.7588 43.1106 35.952 44.2983 37.6812 44.2988ZM30.5 40.1562C31.3589 39.3033 32.2173 38.3399 33.0539 37.2859C32.221 37.3354 31.4079 37.4399 30.5384 37.4399C29.6684 37.4399 28.7776 37.3354 27.9442 37.2859C28.7813 38.3404 29.6407 39.3038 30.5 40.1562ZM23.1536 12.8835C22.3216 12.8835 21.7268 13.0398 21.0618 13.4167C19.9522 14.0462 19.1863 15.1238 18.7858 16.62C18.3418 18.279 18.3802 20.4597 18.8949 22.9475C14.5063 24.5001 12 26.8755 12 29.5002C12 32.1253 14.5068 34.5003 18.8954 36.0529C18.3807 38.5407 18.3423 40.7214 18.7867 42.3803C19.1868 43.8756 19.9522 44.9532 21.0627 45.5836C21.7287 45.961 22.5288 46.1215 23.3604 46.1215C25.4356 46.1215 27.8712 44.9491 30.5005 42.6685C33.1293 44.9468 35.606 46.1483 37.6808 46.1488C38.5128 46.1488 39.2722 45.9578 39.9382 45.5804C41.0469 44.9518 41.8118 43.8756 42.2119 42.3813C42.6563 40.7218 42.618 38.5411 42.1032 36.0538C46.4928 34.5007 49 32.1253 49 29.5002C49 26.875 46.4932 24.4996 42.1037 22.947C42.6189 20.4588 42.6568 18.2781 42.2123 16.6191C41.8118 15.1247 41.0464 14.0485 39.9373 13.42C39.2718 13.043 38.5124 12.8516 37.6808 12.8516C35.6065 12.8516 33.1302 14.0536 30.5009 16.3328C27.8712 14.0517 25.3829 12.8821 23.3072 12.8821L23.1536 12.8835ZM21.1205 22.2745C20.9068 21.1997 20.7634 20.1924 20.7556 19.309C20.7486 18.5135 20.8578 17.8211 21.0192 17.218C21.2537 16.343 21.6519 15.7408 22.2028 15.4282C22.5154 15.2506 22.8965 15.1303 23.3234 15.1303C24.7946 15.1303 26.7306 16.1376 28.8193 17.921C27.7921 18.9723 26.788 20.1498 25.8287 21.4291C24.1707 21.6141 22.5899 21.8976 21.1205 22.2745ZM32.1826 17.9219C34.2708 16.1399 36.2114 15.1641 37.6808 15.1641C38.1081 15.1641 38.4841 15.2543 38.7972 15.4318C39.3472 15.7436 39.7449 16.3444 39.9789 17.2176C40.3832 18.5209 40.3309 20.2534 39.8781 22.2741C38.4088 21.8976 36.8284 21.6136 35.1708 21.4295C34.212 20.1507 33.2089 18.9732 32.1826 17.9219ZM28.9613 21.2029C29.4682 20.6017 29.9829 20.0328 30.5005 19.5019C31.018 20.0328 31.5323 20.6017 32.0387 21.2029C31.5212 21.1844 31.0064 21.1752 30.5 21.1752C29.9936 21.1752 29.4793 21.1844 28.9613 21.2029ZM27.0891 23.6264C28.2014 23.5344 29.3475 23.4687 30.5 23.4687C31.6521 23.4687 32.7982 23.5344 33.91 23.6264C34.5723 24.5602 35.2032 25.5347 35.7859 26.5258C36.3511 27.4869 36.8834 28.4864 37.3691 29.4997C36.883 30.5135 36.3506 31.5134 35.7855 32.4745C35.2022 33.4661 34.5719 34.4401 33.9096 35.3739C32.7982 35.466 31.6521 35.5895 30.5 35.5895C29.347 35.5895 28.2005 35.4655 27.0877 35.3735C26.4249 34.4401 25.7941 33.4657 25.2108 32.4741C24.6457 31.5134 24.1138 30.514 23.6282 29.5002C24.1138 28.4864 24.6461 27.4865 25.2113 26.5254C25.795 25.5342 26.4263 24.5597 27.0891 23.6264ZM38.5577 26.7363C38.3038 26.2654 38.0434 25.8029 37.7793 25.3534C37.5157 24.9052 37.2395 24.4552 36.9537 24.008C37.7742 24.1477 38.5655 24.3146 39.319 24.5075C39.103 25.2318 38.8481 25.9773 38.5577 26.7363ZM21.6792 24.5075C22.4326 24.3146 23.224 24.1477 24.0444 24.008C23.7581 24.4552 23.482 24.9052 23.2184 25.3529C22.9543 25.8025 22.6939 26.265 22.44 26.7358C22.1496 25.9778 21.8952 25.2322 21.6792 24.5075ZM39.9188 29.4997C40.5733 28.0373 41.1153 26.5897 41.5329 25.1864C44.7256 26.3515 46.6875 27.9836 46.6875 29.5002C46.6875 31.0167 44.7256 32.6489 41.5329 33.8139C41.1148 32.4102 40.5733 30.9621 39.9188 29.4997ZM19.4657 33.8135C16.274 32.6484 14.3125 31.0163 14.3125 29.5002C14.3125 27.9841 16.274 26.3519 19.4652 25.1869C19.8829 26.5906 20.4244 28.0382 21.0789 29.5006C20.4249 30.9626 19.8833 32.4102 19.4657 33.8135ZM36.9533 34.9928C37.2391 34.5451 37.5157 34.0951 37.7788 33.6474C38.0434 33.1979 38.3038 32.7349 38.5577 32.2641C38.8481 33.023 39.1025 33.7691 39.319 34.4938C38.5651 34.6857 37.7737 34.8532 36.9533 34.9928ZM21.6797 34.4929C21.8957 33.7686 22.15 33.0235 22.44 32.2655C22.6935 32.7358 22.9538 33.1983 23.2179 33.6474C23.4811 34.0951 23.7572 34.5447 24.0435 34.9924C23.2235 34.8522 22.4326 34.6853 21.6797 34.4929ZM23.3192 43.8391C22.8919 43.8391 22.5163 43.7489 22.2032 43.5713C21.6528 43.2586 21.2546 42.6569 21.0206 41.7819C20.6363 40.4661 20.6797 38.7331 21.1214 36.7254C22.5903 37.1018 24.1702 37.3858 25.8274 37.5699C26.7871 38.8492 27.7911 40.0271 28.8188 41.0793C26.7306 42.8632 24.7895 43.8395 23.3192 43.8391ZM35.1703 37.5708C36.8279 37.3863 38.4083 37.1028 39.8777 36.7263C40.3887 38.9185 40.429 40.6659 39.978 41.7823C39.7444 42.656 39.3472 43.2568 38.7977 43.568C38.4841 43.7456 38.1086 43.8358 37.6817 43.8358V44.2983L37.6812 43.8358C36.2105 43.8358 34.2694 42.86 32.1817 41.0789C33.2084 40.0276 34.2116 38.8501 35.1703 37.5708ZM30.5 39.4994C29.982 38.9685 29.4668 38.3991 28.9599 37.7974C29.4779 37.8159 29.9931 37.8252 30.5 37.8252C31.0064 37.8252 31.5212 37.8159 32.0387 37.7974C31.5323 38.3991 31.0175 38.9685 30.5 39.4994Z" fill="#4E7AB5"/>
</svg>
