<svg width="30" height="30" viewBox="0 0 30 30" fill="none" xmlns="http://www.w3.org/2000/svg">
<path d="M15.0001 6C14.7874 6 14.5748 6.00787 14.3627 6.02306C14.3206 6.02587 14.2784 6.03487 14.2367 6.03825C14.0719 6.05231 13.9099 6.07481 13.7474 6.09787C13.6557 6.11081 13.5623 6.11475 13.4706 6.1305C13.4703 6.1305 13.4699 6.1305 13.4695 6.1305C13.4251 6.13837 13.3823 6.15187 13.3379 6.16031C13.1787 6.19012 13.0229 6.22781 12.8665 6.26606C12.776 6.288 12.6831 6.30206 12.5931 6.32737C12.5924 6.32775 12.5916 6.32812 12.5909 6.3285C12.5526 6.33975 12.5155 6.35437 12.4778 6.36562C12.3091 6.41512 12.1454 6.4725 11.9811 6.53044C11.9378 6.54619 11.8934 6.55856 11.8501 6.57431C11.8369 6.57971 11.8241 6.5861 11.8118 6.59344C9.90494 7.31977 8.30045 8.67086 7.26013 10.4263C7.20839 10.5124 7.15214 10.5951 7.10264 10.6822C7.10207 10.683 7.10151 10.6837 7.10095 10.6845L7.09195 10.7042C6.66513 11.4878 6.35816 12.331 6.18127 13.2056C6.18127 13.2079 6.17958 13.2096 6.17902 13.2118C6.1554 13.3299 6.14471 13.4503 6.12558 13.569C6.09746 13.7428 6.06371 13.9144 6.04627 14.091C6.04627 14.0944 6.04459 14.0983 6.04402 14.1022C6.04402 14.1024 6.04402 14.1026 6.04402 14.1028C5.99338 14.6126 5.98642 15.1258 6.02321 15.6367C6.02345 15.6418 6.02382 15.6469 6.02434 15.6519L6.03334 15.7222C6.03434 15.7298 6.03566 15.7373 6.03727 15.7447C6.17191 17.384 6.75622 18.9544 7.72588 20.283C7.79788 20.3865 7.86932 20.49 7.94582 20.5907C7.9473 20.592 7.9488 20.5933 7.95031 20.5946C7.97 20.6199 7.99363 20.6424 8.01388 20.6677C8.09825 20.7707 8.18881 20.8674 8.27769 20.967C8.36712 21.0682 8.45037 21.174 8.54431 21.2707C8.56456 21.291 8.58706 21.3084 8.60731 21.3287C8.68324 21.4052 8.76481 21.4755 8.84356 21.5497C8.96224 21.6622 9.07643 21.7792 9.2013 21.8844C9.21986 21.9002 9.24068 21.9126 9.25868 21.9272C9.35093 22.0042 9.44992 22.0723 9.54555 22.1449C9.66986 22.2394 9.78967 22.3401 9.91904 22.4284L9.94661 22.4458C10.1142 22.5606 10.2914 22.6629 10.4669 22.7659C10.54 22.8086 10.6098 22.8581 10.6846 22.8986L10.6958 22.9042C12.0157 23.6253 13.496 24.0022 15.0001 24C15.7369 24 16.4485 23.9016 17.1336 23.7339C17.223 23.7142 17.313 23.6962 17.4019 23.6737C17.404 23.6734 17.406 23.673 17.4081 23.6726C17.4503 23.6614 17.4908 23.6445 17.5324 23.6321C17.6905 23.5854 17.8446 23.5309 17.9993 23.4757C18.0859 23.4454 18.1753 23.4223 18.2608 23.3891C18.2968 23.3751 18.3306 23.3565 18.366 23.3419C18.5235 23.2783 18.6754 23.2069 18.8273 23.1354C18.9116 23.0961 18.9994 23.0634 19.0826 23.0212C19.1147 23.0044 19.1445 22.9841 19.176 22.9672C19.3206 22.8913 19.4601 22.8081 19.6001 22.7242C19.6868 22.6725 19.7773 22.6275 19.8628 22.5724C19.863 22.5724 19.8632 22.5724 19.8634 22.5724C19.8937 22.5538 19.9207 22.5307 19.9506 22.5116C20.0766 22.4284 20.1958 22.3372 20.3173 22.2472C20.409 22.1803 20.5052 22.1196 20.5941 22.0487V22.0498C20.6199 22.0296 20.6424 22.0059 20.6677 21.9851C20.7645 21.9064 20.8551 21.822 20.9479 21.7399C21.0547 21.6454 21.1672 21.5565 21.2696 21.4569C21.27 21.4566 21.2704 21.4562 21.2707 21.4558C21.2932 21.4339 21.3129 21.4091 21.3349 21.3872C21.4052 21.3174 21.4687 21.2421 21.5374 21.1701C21.6442 21.0553 21.7567 20.9451 21.8585 20.8247C21.8683 20.813 21.8772 20.8006 21.885 20.7876C23.2499 19.1718 23.9991 17.1252 24 15.0101C24 15.0067 24 15.0034 24 15C24 14.7879 23.9921 14.5759 23.9769 14.3644C23.9741 14.3227 23.9651 14.2822 23.9617 14.2406C23.9471 14.0662 23.9235 13.8941 23.8987 13.7226C23.8869 13.6382 23.8824 13.5538 23.8683 13.4706V13.4694C23.861 13.4301 23.8492 13.3907 23.8419 13.3513C23.8095 13.1853 23.7723 13.0202 23.7305 12.8563C23.7097 12.7691 23.6968 12.6797 23.6726 12.5931C23.6726 12.5927 23.6726 12.5923 23.6726 12.5919C23.6613 12.5503 23.6445 12.5109 23.6321 12.4699C23.5829 12.3069 23.5291 12.1454 23.4706 11.9856C23.4414 11.9034 23.42 11.8191 23.388 11.7381C23.375 11.7054 23.3582 11.6739 23.3452 11.6413C23.2772 11.4726 23.2001 11.3089 23.1219 11.1446C23.0865 11.0698 23.0578 10.9916 23.0201 10.9174C23.0055 10.8887 22.9863 10.8617 22.9717 10.833C22.8958 10.6884 22.8131 10.5495 22.7298 10.41C22.6764 10.32 22.6303 10.2255 22.574 10.1372C22.5726 10.1351 22.5711 10.133 22.5695 10.131C22.5498 10.1017 22.5279 10.0742 22.5077 10.0449C21.3607 8.30754 19.6483 7.02019 17.6606 6.40106C17.61 6.38587 17.5594 6.37687 17.5105 6.36281C17.2722 6.29143 17.0311 6.23007 16.7877 6.17887C16.7303 6.16762 16.6723 6.16312 16.615 6.15244C16.3775 6.10716 16.1382 6.0715 15.8978 6.04556C15.5997 6.01462 15.2999 6 15.0001 6ZM15.0001 6.5625C15.2813 6.5625 15.562 6.57712 15.8415 6.60525H15.8427C16.1222 6.63337 16.3995 6.675 16.6752 6.73069C16.8484 6.76556 17.0183 6.81562 17.1887 6.86119L14.8234 8.61675L12.4863 6.95456C12.5414 6.93769 12.5954 6.918 12.65 6.9C12.7473 6.87187 12.8468 6.84881 12.9458 6.82406C13.1112 6.78187 13.2777 6.74362 13.4453 6.71156C13.5781 6.68737 13.7131 6.66881 13.8475 6.65025C13.987 6.63112 14.1259 6.612 14.266 6.59962C14.5084 6.57937 14.7526 6.5625 15.0001 6.5625ZM17.8553 7.06762C19.3533 7.60691 20.6681 8.55917 21.6476 9.81431C21.6464 9.81729 21.6453 9.82029 21.6442 9.82331L20.4281 13.0897L17.943 14.0584L15.256 12.0997L15.1277 9.0915L17.8502 7.07212C17.8521 7.07065 17.854 7.06915 17.8558 7.06762H17.8553ZM11.8349 7.18125L14.5664 9.12469L14.6946 12.1402L12.1353 13.9926L9.35543 13.1961L8.13481 10.1057C9.06536 8.79907 10.3488 7.7845 11.8349 7.18069V7.18125ZM22.043 10.3639L22.0684 10.3976C22.1133 10.4657 22.1527 10.5371 22.1949 10.6063C22.2978 10.7751 22.3985 10.9449 22.4891 11.121C22.5212 11.1823 22.5487 11.2459 22.5791 11.3089C22.6719 11.499 22.7608 11.6914 22.839 11.8882C22.8671 11.9602 22.8913 12.0339 22.9177 12.1059C22.9847 12.2887 23.0482 12.4727 23.1022 12.66C23.1287 12.7511 23.1506 12.8439 23.1737 12.9367C23.2175 13.1094 23.258 13.2832 23.2901 13.4587C23.3126 13.5774 23.3283 13.6984 23.3452 13.8187C23.4037 14.2098 23.4345 14.6046 23.4375 15C23.4375 15.0298 23.4335 15.0585 23.433 15.0877L21.003 13.1601L22.0436 10.3639H22.043ZM7.75907 10.6879L8.83568 13.4104L6.5767 15.2779C6.57389 15.1856 6.56264 15.0939 6.56264 15C6.56342 14.4371 6.61976 13.8756 6.73083 13.3237C6.8987 12.4953 7.19014 11.6968 7.59538 10.9551C7.64601 10.8634 7.70451 10.7773 7.75907 10.6879ZM15.0034 12.6105L17.5459 14.4651L16.5677 17.4564L13.4211 17.4497L12.4548 14.4561L15.0029 12.6105H15.0034ZM20.6565 13.6039L23.2777 15.6834C23.3134 15.7119 23.3555 15.7312 23.4003 15.7397C23.2627 17.3225 22.6781 18.8336 21.7145 20.0968C21.6801 20.0772 21.642 20.0652 21.6026 20.0614L18.1562 19.734L17.07 17.7304L18.0904 14.6046L20.6571 13.6033L20.6565 13.6039ZM9.29074 13.7642L11.8788 14.5056L12.8884 17.6291L11.3798 19.4814L7.94469 19.4736C7.91648 19.4735 7.88841 19.4777 7.86144 19.4859C7.18896 18.4214 6.7652 17.219 6.6217 15.9681L9.29074 13.7642ZM13.3008 18.0122L16.5863 18.0178L17.6995 20.0743L16.3647 23.1551C16.3424 23.2071 16.3364 23.2645 16.3472 23.3199C15.9074 23.3902 15.4596 23.4375 15.0001 23.4375C14.2817 23.4347 13.5666 23.3402 12.8721 23.1562C12.8734 23.1231 12.8689 23.0899 12.8586 23.0584L11.8175 19.8341L13.3008 18.0122ZM8.24225 20.0361L11.2932 20.0439C11.2936 20.0443 11.294 20.0447 11.2943 20.0451L12.236 22.9627C12.0605 22.9026 11.885 22.8435 11.714 22.7715H11.7128C11.4541 22.6618 11.201 22.5397 10.9552 22.4047C10.9552 22.4044 10.9552 22.404 10.9552 22.4036C10.7077 22.2686 10.4686 22.1224 10.2363 21.9643C10.0125 21.8107 9.79626 21.6465 9.5883 21.4721C9.53205 21.4254 9.48142 21.3731 9.42686 21.3247C9.27039 21.1894 9.11898 21.0483 8.97293 20.9017C8.92005 20.8477 8.87168 20.7892 8.82049 20.7336C8.68605 20.5913 8.5566 20.4444 8.43237 20.2931C8.3795 20.2279 8.33169 20.1581 8.2805 20.0906L8.24225 20.0361ZM18.2136 20.3044L21.3028 20.5974C21.1734 20.7442 21.0412 20.8894 20.9017 21.0272C20.8511 21.0772 20.7949 21.1222 20.7426 21.1712C20.5924 21.3101 20.4411 21.4485 20.2813 21.5762C20.2104 21.6336 20.1351 21.6853 20.0625 21.7399C19.9179 21.851 19.7697 21.9573 19.6181 22.0588C19.5394 22.1106 19.4561 22.1567 19.3746 22.2062C19.2166 22.3041 19.0554 22.3968 18.8914 22.4841C18.8166 22.5229 18.7395 22.5572 18.663 22.5937C18.4841 22.6798 18.303 22.7625 18.1191 22.8356C18.0471 22.8637 17.9728 22.8891 17.9003 22.9155C17.7163 22.983 17.5318 23.0466 17.3434 23.1011C17.2444 23.1298 17.1437 23.1534 17.0436 23.1782L16.9665 23.1956L16.962 23.1911L18.2136 20.3044Z" fill="#D9D9D9"/>
<circle cx="15" cy="15" r="8.65" stroke="#FFC400" stroke-width="0.7"/>
</svg>
